<?xml version="1.0" encoding="UTF-8" standalone="no"?>
<!DOCTYPE svg PUBLIC "-//W3C//DTD SVG 1.1//EN" "http://www.w3.org/Graphics/SVG/1.1/DTD/svg11.dtd">
<svg width="100%" height="100%" viewBox="0 0 4562 1248" version="1.1" xmlns="http://www.w3.org/2000/svg" xmlns:xlink="http://www.w3.org/1999/xlink" xml:space="preserve" xmlns:serif="http://www.serif.com/" style="fill-rule:evenodd;clip-rule:evenodd;stroke-linejoin:round;stroke-miterlimit:2;">
    <g id="logo" transform="matrix(4.16667,0,0,4.16667,0,0)">
        <g transform="matrix(1,0,0,1,0,-178.863)">
            <rect x="144.761" y="232.186" width="21.509" height="13.772" style="fill:rgb(238,49,35);"/>
        </g>
        <g transform="matrix(1,0,0,1,0,-139.311)">
            <rect x="117.249" y="212.41" width="21.509" height="13.772" style="fill:rgb(238,49,35);"/>
        </g>
        <g transform="matrix(1,0,0,1,0,-139.311)">
            <rect x="172.273" y="212.41" width="21.509" height="13.772" style="fill:rgb(238,49,35);"/>
        </g>
        <g transform="matrix(1,0,0,1,0,-99.761)">
            <rect x="144.761" y="192.635" width="21.509" height="13.772" style="fill:rgb(238,49,35);"/>
        </g>
        <g transform="matrix(1,0,0,1,182.161,67.0955)">
            <path d="M0,-13.772C6.418,-13.772 11.621,-8.569 11.621,-2.151L11.621,0L-9.888,0L-9.888,-13.772L0,-13.772Z" style="fill:rgb(238,49,35);fill-rule:nonzero;"/>
        </g>
        <g transform="matrix(1,0,0,1,172.273,92.874)">
            <path d="M0,13.772L0,0L21.509,0L21.509,2.151C21.509,8.569 16.306,13.772 9.888,13.772L0,13.772Z" style="fill:rgb(238,49,35);fill-rule:nonzero;"/>
        </g>
        <g transform="matrix(1,0,0,1,117.249,55.4745)">
            <path d="M0,9.47C0,3.052 5.203,-2.151 11.621,-2.151L21.509,-2.151L21.509,11.621L0,11.621L0,9.47Z" style="fill:rgb(238,49,35);fill-rule:nonzero;"/>
        </g>
        <g transform="matrix(1,0,0,1,128.87,92.874)">
            <path d="M0,13.772C-6.418,13.772 -11.621,8.569 -11.621,2.151L-11.621,0L9.888,0L9.888,13.772L0,13.772Z" style="fill:rgb(238,49,35);fill-rule:nonzero;"/>
        </g>
        <g transform="matrix(1,0,0,1,249.695,86.682)">
            <path d="M0,-13.395C0,-11.768 -1.319,-10.449 -2.946,-10.449L-32.704,-10.449L-32.704,-21.906L-2.946,-21.906C-1.319,-21.906 0,-20.587 0,-18.96L0,-13.395ZM13.018,-19.005C13.018,-26.932 6.591,-33.359 -1.337,-33.359L-45.721,-33.358L-45.721,19.964L-32.704,19.964L-32.704,1.003L-3.647,1.003C-2.02,1.003 -0.701,2.322 -0.701,3.949L-0.701,19.964L12.316,19.964L12.316,3.949C12.316,1.053 10.826,-1.494 8.573,-2.972C11.31,-5.585 13.018,-9.268 13.018,-13.351L13.018,-19.005Z" style="fill:white;fill-rule:nonzero;"/>
        </g>
        <g transform="matrix(1,0,0,1,395.215,106.646)">
            <path d="M0,-53.323L-44.471,-53.322L-44.483,-53.322L-44.483,0L-31.465,0L-31.465,-41.87L-1.609,-41.87C0.018,-41.87 1.337,-40.551 1.337,-38.924L1.337,0L14.355,0L14.355,-38.968C14.355,-46.896 7.928,-53.323 0,-53.323" style="fill:white;fill-rule:nonzero;"/>
        </g>
        <g transform="matrix(1,0,0,1,327.622,53.3223)">
            <rect x="0" y="0" width="13.018" height="53.323" style="fill:white;fill-rule:nonzero;"/>
        </g>
        <g transform="matrix(1,0,0,1,321.027,106.646)">
            <path d="M0,-53.323L-52.513,-53.323L-52.513,-41.87L-37.467,-41.87L-37.467,0L-24.449,0L-24.449,-41.87L0,-41.87L0,-53.323Z" style="fill:white;fill-rule:nonzero;"/>
        </g>
        <g transform="matrix(1,0,0,1,531.317,106.646)">
            <path d="M0,-53.323L-52.513,-53.323L-52.513,-41.87L-37.467,-41.87L-37.467,0L-24.449,0L-24.449,-41.87L0,-41.87L0,-53.323Z" style="fill:white;fill-rule:nonzero;"/>
        </g>
        <g transform="matrix(1,0,0,1,432.692,64.7758)">
            <path d="M0,30.417L0,20.848L33.803,20.848L33.803,9.395L0,9.395L0,-0L39.495,-0L39.495,-11.453L-13.017,-11.453L-13.017,41.87L40.206,41.87L40.206,30.417L0,30.417Z" style="fill:white;fill-rule:nonzero;"/>
        </g>
        <g transform="matrix(1,0,0,1,110.455,95.1942)">
            <path d="M0,-30.418L0,-41.871L-57.133,-41.871L-57.133,11.453L-44.115,11.453L-44.115,-7.508L-6.403,-7.508L-6.403,-18.961L-44.115,-18.961L-44.115,-30.418L0,-30.418Z" style="fill:white;fill-rule:nonzero;"/>
        </g>
        <g transform="matrix(-1,0,0,1,1255.29,-139.311)">
            <rect x="625.994" y="184.887" width="3.301" height="68.818" style="fill:white;"/>
        </g>
        <g transform="matrix(1,0,0,1,90.7461,215.231)">
            <path d="M0,-28.701L0.704,-28.701L18.973,-59.428L40.499,-59.428L12.986,-14.35L41.115,30.727L19.193,30.727L0.704,-0.043L0,-0.043L-18.489,30.727L-40.323,30.727L-12.106,-14.35L-39.795,-59.428L-18.181,-59.428L0,-28.701Z" style="fill:white;fill-rule:nonzero;"/>
        </g>
        <g transform="matrix(1,0,0,1,175.262,200.308)">
            <path d="M0,1.145C10.917,1.145 16.244,-5.018 16.244,-13.954C16.244,-22.934 10.917,-28.921 -0.088,-28.921L-12.942,-28.921L-12.942,1.145L0,1.145ZM-32.003,-44.505L3.566,-44.505C24.035,-44.505 35.877,-31.871 35.877,-13.954C35.877,4.05 23.815,16.42 3.082,16.42L-12.942,16.42L-12.942,45.65L-32.003,45.65L-32.003,-44.505Z" style="fill:white;fill-rule:nonzero;"/>
        </g>
        <g transform="matrix(1,0,0,1,223.549,245.959)">
            <path d="M0,-90.155L60.749,-90.155L60.749,-74.44L19.061,-74.44L19.061,-52.957L57.623,-52.957L57.623,-37.242L19.061,-37.242L19.061,-15.716L60.925,-15.716L60.925,0L0,0L0,-90.155Z" style="fill:white;fill-rule:nonzero;"/>
        </g>
        <g transform="matrix(1,0,0,1,331.483,203.082)">
            <path d="M0,-4.402C10.917,-4.402 16.244,-8.892 16.244,-17.828C16.244,-26.809 10.917,-31.695 -0.088,-31.695L-12.942,-31.695L-12.942,-4.402L0,-4.402ZM-32.003,-47.278L3.566,-47.278C24.035,-47.278 35.877,-35.745 35.877,-17.828C35.877,-5.502 30.198,3.434 19.941,7.836L39.09,42.876L18.048,42.876L0.968,10.917L-12.942,10.917L-12.942,42.876L-32.003,42.876L-32.003,-47.278Z" style="fill:white;fill-rule:nonzero;"/>
        </g>
        <g transform="matrix(1,0,0,1,377.393,245.959)">
            <path d="M0,-90.155L74.043,-90.155L74.043,-74.44L46.442,-74.44L46.442,0L27.601,0L27.601,-74.44L0,-74.44L0,-90.155Z" style="fill:white;fill-rule:nonzero;"/>
        </g>
        <g transform="matrix(1,0,0,1,497.169,231.3)">
            <path d="M0,-60.793C-9.332,-60.793 -14.483,-56.523 -14.483,-50.712C-14.615,-44.241 -8.056,-41.336 -0.22,-39.531L7.88,-37.594C23.551,-34.072 34.865,-26.104 34.909,-11.093C34.865,5.414 21.923,15.935 -0.088,15.935C-21.966,15.935 -35.921,5.855 -36.405,-13.647L-17.96,-13.647C-17.344,-4.622 -10.213,-0.044 -0.308,-0.044C9.376,-0.044 15.628,-4.534 15.672,-11.137C15.628,-17.212 10.169,-20.03 0.352,-22.407L-9.464,-24.872C-24.695,-28.526 -34.072,-36.141 -34.028,-49.436C-34.116,-65.811 -19.633,-76.728 0.132,-76.728C20.206,-76.728 33.412,-65.635 33.676,-49.568L15.407,-49.568C14.703,-56.655 9.113,-60.793 0,-60.793" style="fill:white;fill-rule:nonzero;"/>
        </g>
        <g transform="matrix(1,0,0,1,594.344,240.855)">
            <path d="M0,-78.18C-12.59,-78.18 -21.262,-71.093 -21.262,-61.408C-21.262,-51.9 -12.062,-47.454 -3.302,-44.988L6.207,-42.259C17.652,-39.046 30.682,-33.059 30.682,-18.092C30.682,-3.653 18.973,7.396 -0.572,7.396C-18.973,7.396 -30.595,-2.42 -31.563,-16.683L-23.111,-16.683C-22.23,-5.986 -12.722,-0.131 -0.572,-0.131C12.898,-0.131 22.715,-7.395 22.715,-18.224C22.715,-27.424 15.055,-31.606 3.874,-34.864L-6.911,-38.033C-21.042,-42.215 -29.23,-49.479 -29.23,-61.056C-29.23,-75.583 -16.42,-85.576 0.22,-85.576C16.992,-85.576 28.834,-75.451 29.45,-61.76L21.482,-61.76C20.47,-71.797 11.93,-78.18 0,-78.18" style="fill:white;fill-rule:nonzero;"/>
        </g>
        <g transform="matrix(1,0,0,1,711.957,248.251)">
            <path d="M0,-91.695L0,-32.003C0,-13.602 -13.823,0 -34.16,0C-54.454,0 -68.364,-13.602 -68.32,-32.003L-68.32,-91.695L-60.088,-91.695L-60.088,-32.575C-60.088,-18.225 -49.876,-7.747 -34.16,-7.747C-18.445,-7.747 -8.232,-18.225 -8.232,-32.575L-8.232,-91.695L0,-91.695Z" style="fill:white;fill-rule:nonzero;"/>
        </g>
        <g transform="matrix(1,0,0,1,744.169,246.711)">
            <path d="M0,-90.155L32.708,-11.622L33.5,-11.622L66.207,-90.155L75.716,-90.155L75.716,0L67.968,0L67.968,-72.767L67.264,-72.767L36.845,0L29.362,0L-1.057,-72.767L-1.761,-72.767L-1.761,0L-9.509,0L-9.509,-90.155L0,-90.155Z" style="fill:white;fill-rule:nonzero;"/>
        </g>
        <g transform="matrix(1,0,0,1,852.097,246.711)">
            <path d="M0,-90.155L32.707,-11.622L33.5,-11.622L66.207,-90.155L75.716,-90.155L75.716,0L67.968,0L67.968,-72.767L67.264,-72.767L36.845,0L29.362,0L-1.057,-72.767L-1.761,-72.767L-1.761,0L-9.509,0L-9.509,-90.155L0,-90.155Z" style="fill:white;fill-rule:nonzero;"/>
        </g>
        <g transform="matrix(-1,0,0,1,1909.27,103.986)">
            <rect x="950.517" y="52.57" width="8.232" height="90.155" style="fill:white;"/>
        </g>
        <g transform="matrix(1,0,0,1,975.996,246.711)">
            <path d="M0,-90.155L65.371,-90.155L65.371,-82.76L36.802,-82.76L36.802,0L28.569,0L28.569,-82.76L0,-82.76L0,-90.155Z" style="fill:white;fill-rule:nonzero;"/>
        </g>
        <g transform="matrix(1,0,0,1,90.7461,215.231)">
            <path d="M0,-28.701L0.704,-28.701L18.973,-59.428L40.499,-59.428L12.986,-14.35L41.115,30.727L19.193,30.727L0.704,-0.043L0,-0.043L-18.489,30.727L-40.323,30.727L-12.106,-14.35L-39.795,-59.428L-18.181,-59.428L0,-28.701Z" style="fill:white;fill-rule:nonzero;"/>
        </g>
        <g transform="matrix(1,0,0,1,175.262,200.308)">
            <path d="M0,1.145C10.917,1.145 16.244,-5.018 16.244,-13.954C16.244,-22.934 10.917,-28.921 -0.088,-28.921L-12.942,-28.921L-12.942,1.145L0,1.145ZM-32.003,-44.505L3.566,-44.505C24.035,-44.505 35.877,-31.871 35.877,-13.954C35.877,4.05 23.815,16.42 3.082,16.42L-12.942,16.42L-12.942,45.65L-32.003,45.65L-32.003,-44.505Z" style="fill:white;fill-rule:nonzero;"/>
        </g>
        <g transform="matrix(1,0,0,1,223.549,245.959)">
            <path d="M0,-90.155L60.749,-90.155L60.749,-74.44L19.061,-74.44L19.061,-52.957L57.623,-52.957L57.623,-37.242L19.061,-37.242L19.061,-15.716L60.925,-15.716L60.925,0L0,0L0,-90.155Z" style="fill:white;fill-rule:nonzero;"/>
        </g>
        <g transform="matrix(1,0,0,1,331.483,203.082)">
            <path d="M0,-4.402C10.917,-4.402 16.244,-8.892 16.244,-17.828C16.244,-26.809 10.917,-31.695 -0.088,-31.695L-12.942,-31.695L-12.942,-4.402L0,-4.402ZM-32.003,-47.278L3.566,-47.278C24.035,-47.278 35.877,-35.745 35.877,-17.828C35.877,-5.502 30.198,3.434 19.941,7.836L39.09,42.876L18.048,42.876L0.968,10.917L-12.942,10.917L-12.942,42.876L-32.003,42.876L-32.003,-47.278Z" style="fill:white;fill-rule:nonzero;"/>
        </g>
        <g transform="matrix(1,0,0,1,377.393,245.959)">
            <path d="M0,-90.155L74.043,-90.155L74.043,-74.44L46.442,-74.44L46.442,0L27.601,0L27.601,-74.44L0,-74.44L0,-90.155Z" style="fill:white;fill-rule:nonzero;"/>
        </g>
        <g transform="matrix(1,0,0,1,497.169,231.3)">
            <path d="M0,-60.793C-9.332,-60.793 -14.483,-56.523 -14.483,-50.712C-14.615,-44.241 -8.056,-41.336 -0.22,-39.531L7.88,-37.594C23.551,-34.072 34.865,-26.104 34.909,-11.093C34.865,5.414 21.923,15.935 -0.088,15.935C-21.966,15.935 -35.921,5.855 -36.405,-13.647L-17.96,-13.647C-17.344,-4.622 -10.213,-0.044 -0.308,-0.044C9.376,-0.044 15.628,-4.534 15.672,-11.137C15.628,-17.212 10.169,-20.03 0.352,-22.407L-9.464,-24.872C-24.695,-28.526 -34.072,-36.141 -34.028,-49.436C-34.116,-65.811 -19.633,-76.728 0.132,-76.728C20.206,-76.728 33.412,-65.635 33.676,-49.568L15.407,-49.568C14.703,-56.655 9.113,-60.793 0,-60.793" style="fill:white;fill-rule:nonzero;"/>
        </g>
        <g transform="matrix(1,0,0,1,594.344,240.855)">
            <path d="M0,-78.18C-12.59,-78.18 -21.262,-71.093 -21.262,-61.408C-21.262,-51.9 -12.062,-47.454 -3.302,-44.988L6.207,-42.259C17.652,-39.046 30.682,-33.059 30.682,-18.092C30.682,-3.653 18.973,7.396 -0.572,7.396C-18.973,7.396 -30.595,-2.42 -31.563,-16.683L-23.111,-16.683C-22.23,-5.986 -12.722,-0.131 -0.572,-0.131C12.898,-0.131 22.715,-7.395 22.715,-18.224C22.715,-27.424 15.055,-31.606 3.874,-34.864L-6.911,-38.033C-21.042,-42.215 -29.23,-49.478 -29.23,-61.056C-29.23,-75.583 -16.42,-85.576 0.22,-85.576C16.992,-85.576 28.834,-75.451 29.45,-61.76L21.482,-61.76C20.47,-71.797 11.93,-78.18 0,-78.18" style="fill:white;fill-rule:nonzero;"/>
        </g>
        <g transform="matrix(1,0,0,1,711.957,248.251)">
            <path d="M0,-91.695L0,-32.003C0,-13.602 -13.823,0 -34.16,0C-54.454,0 -68.364,-13.602 -68.32,-32.003L-68.32,-91.695L-60.089,-91.695L-60.089,-32.575C-60.089,-18.225 -49.876,-7.747 -34.16,-7.747C-18.445,-7.747 -8.232,-18.225 -8.232,-32.575L-8.232,-91.695L0,-91.695Z" style="fill:white;fill-rule:nonzero;"/>
        </g>
        <g transform="matrix(1,0,0,1,744.169,246.711)">
            <path d="M0,-90.155L32.708,-11.622L33.5,-11.622L66.207,-90.155L75.716,-90.155L75.716,0L67.968,0L67.968,-72.767L67.264,-72.767L36.845,0L29.362,0L-1.057,-72.767L-1.761,-72.767L-1.761,0L-9.508,0L-9.508,-90.155L0,-90.155Z" style="fill:white;fill-rule:nonzero;"/>
        </g>
        <g transform="matrix(1,0,0,1,852.097,246.711)">
            <path d="M0,-90.155L32.707,-11.622L33.5,-11.622L66.207,-90.155L75.716,-90.155L75.716,0L67.968,0L67.968,-72.767L67.264,-72.767L36.845,0L29.362,0L-1.057,-72.767L-1.761,-72.767L-1.761,0L-9.509,0L-9.509,-90.155L0,-90.155Z" style="fill:white;fill-rule:nonzero;"/>
        </g>
        <g transform="matrix(-1,0,0,1,1909.27,103.986)">
            <rect x="950.517" y="52.57" width="8.232" height="90.155" style="fill:white;"/>
        </g>
        <g transform="matrix(1,0,0,1,975.996,246.711)">
            <path d="M0,-90.155L65.371,-90.155L65.371,-82.76L36.802,-82.76L36.802,0L28.569,0L28.569,-82.76L0,-82.76L0,-90.155Z" style="fill:white;fill-rule:nonzero;"/>
        </g>
        <g transform="matrix(1,0,0,1,740.136,46.9848)">
            <path d="M0,6.115L-3.519,-4.705L-3.742,-4.705L-7.261,6.115L0,6.115ZM-17.396,17.354L-7.525,-11.239L0.265,-11.239L10.122,17.354L3.644,17.354L1.521,10.834L-8.796,10.834L-10.918,17.354L-17.396,17.354Z" style="fill:white;fill-rule:nonzero;"/>
        </g>
        <g transform="matrix(1,0,0,1,761.149,64.3394)">
            <path d="M0,-28.594L7.875,-9.383L8.21,-9.383L16.084,-28.594L23.54,-28.594L23.54,0L17.676,0L17.676,-18.611L17.438,-18.611L10.039,-0.14L6.046,-0.14L-1.354,-18.681L-1.591,-18.681L-1.591,0L-7.455,0L-7.455,-28.594L0,-28.594Z" style="fill:white;fill-rule:nonzero;"/>
        </g>
        <g transform="matrix(1,0,0,1,789.662,64.3394)">
            <path d="M0,-28.594L19.268,-28.594L19.268,-23.61L6.045,-23.61L6.045,-16.796L18.275,-16.796L18.275,-11.812L6.045,-11.812L6.045,-4.985L19.323,-4.985L19.323,0L0,0L0,-28.594Z" style="fill:white;fill-rule:nonzero;"/>
        </g>
        <g transform="matrix(1,0,0,1,823.897,50.74)">
            <path d="M0,-1.396C3.462,-1.396 5.151,-2.82 5.151,-5.654C5.151,-8.502 3.462,-10.052 -0.028,-10.052L-4.105,-10.052L-4.105,-1.396L0,-1.396ZM-10.15,-14.995L1.131,-14.995C7.623,-14.995 11.379,-11.336 11.379,-5.654C11.379,-1.745 9.577,1.089 6.324,2.485L12.397,13.599L5.724,13.599L0.307,3.463L-4.105,3.463L-4.105,13.599L-10.15,13.599L-10.15,-14.995Z" style="fill:white;fill-rule:nonzero;"/>
        </g>
        <g transform="matrix(-1,0,0,1,1685.14,-199.197)">
            <rect x="839.55" y="234.942" width="6.045" height="28.594" style="fill:white;"/>
        </g>
        <g transform="matrix(1,0,0,1,869.693,54.3281)">
            <path d="M0,-8.572C-0.461,-11.714 -2.848,-13.626 -6.157,-13.626C-10.583,-13.626 -13.487,-10.234 -13.487,-4.286C-13.487,1.829 -10.541,5.054 -6.199,5.054C-2.974,5.054 -0.572,3.295 0,0.238L6.115,0.266C5.459,5.529 1.033,10.402 -6.297,10.402C-13.947,10.402 -19.616,5.041 -19.616,-4.286C-19.616,-13.64 -13.85,-18.974 -6.297,-18.974C0.321,-18.974 5.319,-15.176 6.115,-8.572L0,-8.572Z" style="fill:white;fill-rule:nonzero;"/>
        </g>
        <g transform="matrix(1,0,0,1,895.47,46.9848)">
            <path d="M0,6.115L-3.519,-4.705L-3.742,-4.705L-7.261,6.115L0,6.115ZM-17.396,17.354L-7.525,-11.239L0.265,-11.239L10.122,17.354L3.644,17.354L1.521,10.834L-8.796,10.834L-10.918,17.354L-17.396,17.354Z" style="fill:white;fill-rule:nonzero;"/>
        </g>
        <g transform="matrix(1,0,0,1,918.983,59.6894)">
            <path d="M0,-19.281C-2.96,-19.281 -4.594,-17.927 -4.594,-16.084C-4.636,-14.031 -2.556,-13.11 -0.07,-12.537L2.499,-11.923C7.47,-10.806 11.058,-8.279 11.071,-3.518C11.058,1.718 6.953,5.054 -0.028,5.054C-6.967,5.054 -11.393,1.857 -11.547,-4.328L-5.696,-4.328C-5.501,-1.466 -3.239,-0.013 -0.098,-0.013C2.974,-0.013 4.956,-1.438 4.97,-3.532C4.956,-5.459 3.225,-6.352 0.111,-7.106L-3.002,-7.888C-7.833,-9.047 -10.807,-11.462 -10.793,-15.678C-10.82,-20.872 -6.228,-24.335 0.042,-24.335C6.408,-24.335 10.597,-20.817 10.681,-15.72L4.887,-15.72C4.663,-17.969 2.89,-19.281 0,-19.281" style="fill:white;fill-rule:nonzero;"/>
        </g>
        <g transform="matrix(-1,0,0,1,1454.62,-104.831)">
            <rect x="724.289" y="187.759" width="6.045" height="28.594" style="fill:white;"/>
        </g>
        <g transform="matrix(1,0,0,1,759.235,82.9277)">
            <path d="M0,28.594L-5.222,28.594L-17.661,10.597L-17.871,10.597L-17.871,28.594L-23.916,28.594L-23.916,0L-18.61,0L-6.269,17.983L-6.018,17.983L-6.018,0L0,0L0,28.594Z" style="fill:white;fill-rule:nonzero;"/>
        </g>
        <g transform="matrix(1,0,0,1,763.133,111.522)">
            <path d="M0,-28.594L23.483,-28.594L23.483,-23.61L14.729,-23.61L14.729,0L8.754,0L8.754,-23.61L0,-23.61L0,-28.594Z" style="fill:white;fill-rule:nonzero;"/>
        </g>
        <g transform="matrix(1,0,0,1,790.5,111.522)">
            <path d="M0,-28.594L19.268,-28.594L19.268,-23.61L6.045,-23.61L6.045,-16.796L18.275,-16.796L18.275,-11.812L6.045,-11.812L6.045,-4.985L19.323,-4.985L19.323,0L0,0L0,-28.594Z" style="fill:white;fill-rule:nonzero;"/>
        </g>
        <g transform="matrix(1,0,0,1,824.735,97.9226)">
            <path d="M0,-1.396C3.462,-1.396 5.151,-2.82 5.151,-5.654C5.151,-8.502 3.462,-10.052 -0.028,-10.052L-4.105,-10.052L-4.105,-1.396L0,-1.396ZM-10.15,-14.995L1.131,-14.995C7.623,-14.995 11.379,-11.336 11.379,-5.654C11.379,-1.745 9.577,1.089 6.324,2.485L12.397,13.599L5.724,13.599L0.307,3.463L-4.105,3.463L-4.105,13.599L-10.15,13.599L-10.15,-14.995Z" style="fill:white;fill-rule:nonzero;"/>
        </g>
        <g transform="matrix(1,0,0,1,864.304,82.9277)">
            <path d="M0,28.594L-5.222,28.594L-17.661,10.597L-17.871,10.597L-17.871,28.594L-23.916,28.594L-23.916,0L-18.61,0L-6.269,17.983L-6.018,17.983L-6.018,0L0,0L0,28.594Z" style="fill:white;fill-rule:nonzero;"/>
        </g>
        <g transform="matrix(1,0,0,1,885.138,94.1675)">
            <path d="M0,6.115L-3.519,-4.705L-3.742,-4.705L-7.261,6.115L0,6.115ZM-17.396,17.354L-7.525,-11.239L0.265,-11.239L10.122,17.354L3.644,17.354L1.521,10.834L-8.796,10.834L-10.918,17.354L-17.396,17.354Z" style="fill:white;fill-rule:nonzero;"/>
        </g>
        <g transform="matrix(1,0,0,1,894.089,111.522)">
            <path d="M0,-28.594L23.483,-28.594L23.483,-23.61L14.729,-23.61L14.729,0L8.754,0L8.754,-23.61L0,-23.61L0,-28.594Z" style="fill:white;fill-rule:nonzero;"/>
        </g>
        <g transform="matrix(-1,0,0,1,1848.95,-104.831)">
            <rect x="921.455" y="187.759" width="6.045" height="28.594" style="fill:white;"/>
        </g>
        <g transform="matrix(1,0,0,1,945.372,106.564)">
            <path d="M0,-18.68C-4.398,-18.68 -7.261,-15.399 -7.261,-9.34C-7.261,-3.28 -4.398,0.001 0,0.001C4.384,0.001 7.26,-3.28 7.26,-9.34C7.26,-15.399 4.384,-18.68 0,-18.68M0,5.348C-7.623,5.348 -13.39,-0.027 -13.39,-9.34C-13.39,-18.694 -7.623,-24.028 0,-24.028C7.581,-24.028 13.39,-18.694 13.39,-9.34C13.39,0.015 7.581,5.348 0,5.348" style="fill:white;fill-rule:nonzero;"/>
        </g>
        <g transform="matrix(1,0,0,1,987.147,82.9277)">
            <path d="M0,28.594L-5.222,28.594L-17.661,10.597L-17.871,10.597L-17.871,28.594L-23.916,28.594L-23.916,0L-18.61,0L-6.269,17.983L-6.018,17.983L-6.018,0L0,0L0,28.594Z" style="fill:white;fill-rule:nonzero;"/>
        </g>
        <g transform="matrix(1,0,0,1,1007.98,94.1675)">
            <path d="M0,6.115L-3.519,-4.705L-3.742,-4.705L-7.261,6.115L0,6.115ZM-17.396,17.354L-7.525,-11.239L0.265,-11.239L10.122,17.354L3.644,17.354L1.521,10.834L-8.796,10.834L-10.918,17.354L-17.396,17.354Z" style="fill:white;fill-rule:nonzero;"/>
        </g>
        <g transform="matrix(1,0,0,1,1021.54,111.522)">
            <path d="M0,-28.594L6.045,-28.594L6.045,-4.985L18.304,-4.985L18.304,0L0,0L0,-28.594Z" style="fill:white;fill-rule:nonzero;"/>
        </g>
    </g>
</svg>
