<?xml version="1.0" encoding="UTF-8"?><svg id="Security_Networking" xmlns="http://www.w3.org/2000/svg" viewBox="0 0 192 192"><defs><style>.cls-1{fill:#fff;}.cls-2{fill:#9063cd;}.cls-3{fill:#464646;}</style></defs><path class="cls-3" d="m81.83,180.07h-38.64c-6.43,0-11.66-5.23-11.66-11.66V23.63c0-6.43,5.23-11.66,11.66-11.66h38.64c6.43,0,11.66,5.23,11.66,11.66v54.97h-4V23.63c0-4.22-3.44-7.66-7.66-7.66h-38.64c-4.22,0-7.66,3.44-7.66,7.66v144.78c0,4.22,3.44,7.66,7.66,7.66h38.64c4.22,0,7.66-3.44,7.66-7.66v-19.93h4v19.93c0,6.43-5.23,11.66-11.66,11.66Z"/><path class="cls-3" d="m70,34.24h-25.44c-1.1,0-2-.9-2-2s.9-2,2-2h25.44c1.1,0,2,.9,2,2s-.9,2-2,2Z"/><path class="cls-3" d="m80.47,34.24c-.53,0-1.04-.21-1.42-.59-.37-.37-.59-.89-.59-1.41s.21-1.04.59-1.41c.09-.09.19-.18.3-.25.11-.07.22-.13.34-.18.12-.05.25-.09.37-.11.65-.13,1.34.08,1.81.55.37.37.58.89.58,1.41s-.21,1.04-.58,1.41c-.37.37-.89.59-1.41.59Z"/><path class="cls-3" d="m70,47.73h-25.44c-1.1,0-2-.9-2-2s.9-2,2-2h25.44c1.1,0,2,.9,2,2s-.9,2-2,2Z"/><path class="cls-3" d="m80.47,47.73c-.13,0-.26-.01-.39-.04-.13-.03-.25-.06-.37-.11-.12-.05-.24-.11-.34-.18-.11-.07-.21-.16-.3-.25-.37-.37-.59-.89-.59-1.41s.21-1.04.59-1.41c.74-.74,2.08-.74,2.83,0,.37.37.58.89.58,1.41s-.21,1.04-.58,1.41c-.37.37-.89.59-1.41.59Z"/><path class="cls-3" d="m70,61.22h-25.44c-1.1,0-2-.9-2-2s.9-2,2-2h25.44c1.1,0,2,.9,2,2s-.9,2-2,2Z"/><path class="cls-3" d="m80.47,61.22c-.53,0-1.04-.21-1.42-.58-.37-.37-.59-.89-.59-1.41s.21-1.04.59-1.42c.09-.09.19-.18.3-.25.11-.07.22-.13.34-.18.12-.05.25-.09.37-.11.65-.13,1.34.08,1.81.55.37.37.58.89.58,1.42s-.21,1.04-.58,1.41c-.37.37-.89.58-1.41.58Z"/><path class="cls-3" d="m152.75,150.48h-85.82c-4.25,0-7.71-3.46-7.71-7.71v-58.46c0-4.25,3.46-7.71,7.71-7.71h85.82c4.25,0,7.71,3.46,7.71,7.71v58.46c0,4.25-3.46,7.71-7.71,7.71Zm-85.82-69.89c-2.05,0-3.71,1.67-3.71,3.71v58.46c0,2.05,1.67,3.71,3.71,3.71h85.82c2.05,0,3.71-1.67,3.71-3.71v-58.46c0-2.05-1.67-3.71-3.71-3.71h-85.82Z"/><path class="cls-2" d="m112.09,107.14c0,7.62-4.14,14.28-10.3,17.84v37.31l-10.27-5.72-10.26,5.72v-37.31c-6.16-3.55-10.31-10.21-10.31-17.84,0-11.36,9.21-20.57,20.57-20.57s20.57,9.21,20.57,20.57Z"/><path class="cls-3" d="m101.79,164.28c-.34,0-.67-.08-.97-.25l-9.3-5.18-9.29,5.18c-.62.35-1.38.34-1.99-.02s-.99-1.02-.99-1.72v-36.19c-6.39-4.14-10.31-11.3-10.31-18.96,0-12.45,10.13-22.57,22.57-22.57s22.57,10.13,22.57,22.57c0,7.65-3.92,14.81-10.3,18.96v36.19c0,.71-.38,1.37-.99,1.72-.31.18-.66.28-1.01.28Zm-10.27-9.72c.34,0,.67.08.97.25l7.3,4.06v-33.91c0-.71.38-1.38,1-1.73,5.74-3.31,9.3-9.48,9.3-16.1,0-10.24-8.33-18.57-18.57-18.57s-18.57,8.33-18.57,18.57c0,6.62,3.57,12.79,9.31,16.1.62.36,1,1.02,1,1.73v33.91l7.29-4.06c.3-.17.64-.25.97-.25Z"/><path class="cls-3" d="m148.67,102.08h-29.72c-1.1,0-2-.9-2-2s.9-2,2-2h29.72c1.1,0,2,.9,2,2s-.9,2-2,2Z"/><path class="cls-3" d="m148.67,111.05h-29.72c-1.1,0-2-.9-2-2s.9-2,2-2h29.72c1.1,0,2,.9,2,2s-.9,2-2,2Z"/><path class="cls-3" d="m148.67,120.02h-29.72c-1.1,0-2-.9-2-2s.9-2,2-2h29.72c1.1,0,2,.9,2,2s-.9,2-2,2Z"/><path class="cls-3" d="m148.67,128.99h-29.72c-1.1,0-2-.9-2-2s.9-2,2-2h29.72c1.1,0,2,.9,2,2s-.9,2-2,2Z"/><path class="cls-1" d="m88.95,104.06c-.54,0-.99-.35-1.21-.85-.57-1.32-1.85-2.06-3.42-2.06-2.52,0-4.3,1.94-4.3,5.42s1.79,5.42,4.29,5.42c1.55,0,2.83-.71,3.42-2.01.22-.48.66-.81,1.19-.81h.2c.9,0,1.55.94,1.17,1.76-.97,2.08-3.1,3.57-6.01,3.57-4.07,0-7.07-2.95-7.07-7.92s3.04-7.92,7.07-7.92c2.79,0,5.06,1.33,6.06,3.68.35.83-.31,1.74-1.2,1.74h-.19Z"/><path class="cls-1" d="m92.84,112.41l4.2-11.94c.34-.98,1.26-1.63,2.3-1.63h0c1.03,0,1.95.65,2.3,1.63l4.21,11.94c.32.91-.35,1.86-1.32,1.86h0c-.6,0-1.13-.38-1.33-.95l-.96-2.85h-5.8l-.95,2.85c-.19.57-.73.96-1.33.96h0c-.96,0-1.64-.95-1.32-1.86Zm8.65-4.19l-2.09-6.21h-.12l-2.09,6.21h4.29Z"/></svg>
