<?xml version="1.0" encoding="UTF-8"?>
<svg id="Security_Networking" data-name="Security Networking" xmlns="http://www.w3.org/2000/svg" version="1.1" viewBox="0 0 192 192">
  <defs>
    <style>
      .cls-1 {
        fill: #fff;
        stroke-width: 4px;
      }

      .cls-1, .cls-2, .cls-3 {
        stroke-linecap: round;
        stroke-linejoin: round;
      }

      .cls-1, .cls-3 {
        stroke: #464646;
      }

      .cls-2 {
        stroke: #000;
      }

      .cls-2, .cls-3 {
        fill: none;
        stroke-width: 4px;
      }
    </style>
  </defs>
  <g id="Stroke">
    <path class="cls-3" d="M178.5,37.5v22.2H14.4v-22.2c0-5.3,4.3-9.6,9.6-9.6h144.8c5.3,0,9.6,4.3,9.6,9.6Z"/>
    <path class="cls-3" d="M178.5,59.7v86.2c0,5.3-4.3,9.6-9.6,9.6H24c-5.3,0-9.6-4.3-9.6-9.6V59.7h164.1Z"/>
  </g>
  <line class="cls-3" x1="32.4" y1="73.6" x2="160.4" y2="73.6"/>
  <line class="cls-3" x1="32.5" y1="89.6" x2="160.5" y2="89.6"/>
  <line class="cls-3" x1="32.5" y1="105.6" x2="160.5" y2="105.6"/>
  <line class="cls-3" x1="32.5" y1="121.6" x2="160.5" y2="121.6"/>
  <line class="cls-3" x1="32.5" y1="137.6" x2="160.6" y2="137.6"/>
  <line class="cls-3" x1="46.4" y1="73.6" x2="46.4" y2="137.6"/>
  <line class="cls-3" x1="66.4" y1="73.6" x2="66.4" y2="137.6"/>
  <line class="cls-3" x1="86.4" y1="73.6" x2="86.4" y2="137.6"/>
  <line class="cls-3" x1="106.4" y1="73.6" x2="106.4" y2="137.6"/>
  <line class="cls-3" x1="126.4" y1="73.6" x2="126.4" y2="149.6"/>
  <line class="cls-3" x1="146.4" y1="73.6" x2="146.4" y2="149.6"/>
  <line class="cls-3" x1="32.4" y1="13.6" x2="32.4" y2="37.6"/>
  <line class="cls-3" x1="44.5" y1="13.6" x2="44.5" y2="37.6"/>
  <line class="cls-3" x1="148.4" y1="13.6" x2="148.4" y2="37.6"/>
  <line class="cls-3" x1="160.4" y1="13.6" x2="160.4" y2="37.6"/>
  <circle class="cls-1" cx="146.4" cy="156.4" r="25.5"/>
  <polyline class="cls-2" points="146.4 141.2 146.4 159.3 157.9 159.3"/>
</svg>
