<?xml version="1.0" encoding="UTF-8"?>
<svg id="Security_Networking" data-name="Security Networking" xmlns="http://www.w3.org/2000/svg" viewBox="0 0 192 192">
  <defs>
    <style>
      .cls-1 {
        fill: #464646;
      }

      .cls-1, .cls-2, .cls-3 {
        stroke-width: 0px;
      }

      .cls-2 {
        fill: #3cb17e;
      }

      .cls-3 {
        fill: #fff;
      }
    </style>
  </defs>
  <g>
    <path class="cls-2" d="m96.04,177.97l-1.75-.84c-25.15-12.09-37.28-18.97-47.33-30.39-8.54-9.7-13.63-23.65-13.63-37.3V33.57l3.72-.29c20.31-1.62,39.46-7.69,56.92-18.02l2.06-1.22,2.06,1.22c17.21,10.19,36.89,16.43,56.92,18.02l3.72.29v75.88c0,13.65-5.1,27.61-13.63,37.3-10.05,11.42-22.18,18.3-47.32,30.39l-1.75.84Z"/>
    <path class="cls-1" d="m96.04,179.97c-.3,0-.59-.07-.87-.2l-1.75-.84c-25.41-12.21-37.69-19.2-47.96-30.87-8.85-10.05-14.13-24.49-14.13-38.62V33.57c0-1.04.8-1.91,1.84-1.99l3.72-.29c19.99-1.59,38.85-7.57,56.06-17.75l2.06-1.22c.63-.37,1.41-.37,2.04,0l2.06,1.22c16.96,10.04,36.35,16.18,56.06,17.75l3.72.29c1.04.08,1.84.95,1.84,1.99v75.88c0,14.14-5.28,28.58-14.13,38.62-10.26,11.66-22.54,18.65-47.95,30.87l-1.75.84c-.27.13-.57.2-.87.2ZM35.33,35.42v74.03c0,13.19,4.91,26.64,13.13,35.98,9.8,11.14,21.79,17.94,46.69,29.91l.88.43.88-.43c24.9-11.97,36.88-18.77,46.69-29.91,8.23-9.34,13.14-22.78,13.14-35.98V35.42l-1.87-.15c-20.32-1.62-40.3-7.94-57.79-18.3l-1.04-.62-1.04.62c-17.74,10.5-37.18,16.66-57.79,18.3l-1.88.15Z"/>
  </g>
  <g>
    <path class="cls-3" d="m115.37,50.13h-38.67c-3.9,0-7.07,3.17-7.07,7.07v77.6c0,3.9,3.17,7.07,7.07,7.07h38.67c3.9,0,7.07-3.17,7.07-7.07V57.2c0-3.9-3.17-7.07-7.07-7.07Zm3.07,84.67c0,1.69-1.38,3.07-3.07,3.07h-38.67c-1.69,0-3.07-1.38-3.07-3.07V57.2c0-1.69,1.38-3.07,3.07-3.07h38.67c1.69,0,3.07,1.38,3.07,3.07v77.6Z"/>
    <path class="cls-3" d="m86.12,60.83h12.38c1.1,0,2-.9,2-2s-.9-2-2-2h-12.38c-1.1,0-2,.9-2,2s.9,2,2,2Z"/>
    <path class="cls-3" d="m104.85,60.83c.53,0,1.04-.21,1.41-.59s.59-.89.59-1.41-.21-1.04-.59-1.42c-.75-.75-2.08-.74-2.83,0-.09.09-.18.19-.25.3-.07.11-.13.23-.18.35-.05.12-.09.25-.11.37-.03.13-.04.26-.04.39,0,.53.21,1.04.59,1.41.37.37.89.59,1.41.59Z"/>
    <path class="cls-3" d="m110.3,83.58l-2.19,2.19c-2.91-3.43-7.24-5.61-12.08-5.61-8.74,0-15.84,7.11-15.84,15.84s7.11,15.84,15.84,15.84,15.84-7.11,15.84-15.84c0-2.43-.57-4.73-1.55-6.79l2.8-2.8c.78-.78.78-2.05,0-2.83s-2.05-.78-2.83,0Zm-2.42,12.42c0,6.53-5.31,11.84-11.84,11.84s-11.84-5.31-11.84-11.84,5.31-11.84,11.84-11.84c3.73,0,7.07,1.74,9.24,4.45l-9.52,9.52-4.53-4.53c-.78-.78-2.05-.78-2.83,0-.78.78-.78,2.05,0,2.83l5.94,5.94c.38.38.88.59,1.41.59s1.04-.21,1.41-.59l10.1-10.1c.39,1.17.61,2.43.61,3.73Z"/>
  </g>
</svg>
