<?xml version="1.0" encoding="utf-8"?>
<!-- Generator: Adobe Illustrator 27.7.0, SVG Export Plug-In . SVG Version: 6.00 Build 0)  -->
<svg version="1.1" id="Security_Networking" xmlns="http://www.w3.org/2000/svg" xmlns:xlink="http://www.w3.org/1999/xlink"
	 x="0px" y="0px" viewBox="0 0 192 192" style="enable-background:new 0 0 192 192;" xml:space="preserve">
<style type="text/css">
	.st0{fill:#FFFFFF;}
</style>
<path class="st0" d="M96,180c-0.3,0-0.6-0.1-0.9-0.2l-1.8-0.8c-25.4-12.2-37.7-19.2-48-30.9c-8.8-10.1-14.1-24.5-14.1-38.6V33.6
	c0-1,0.8-1.9,1.8-2l3.7-0.3c20-1.6,38.8-7.6,56.1-17.8l2.1-1.2c0.6-0.4,1.4-0.4,2,0l2.1,1.2c17,10,36.3,16.2,56.1,17.8l3.7,0.3
	c1,0.1,1.8,0.9,1.8,2v75.9c0,14.1-5.3,28.6-14.1,38.6c-10.3,11.7-22.5,18.6-47.9,30.9l-1.8,0.8C96.6,179.9,96.3,180,96,180L96,180z
	 M35.3,35.4v74c0,13.2,4.9,26.6,13.1,36c9.8,11.1,21.8,17.9,46.7,29.9l0.9,0.4l0.9-0.4c24.9-12,36.9-18.8,46.7-29.9
	c8.2-9.3,13.1-22.8,13.1-36v-74l-1.9-0.2C134.5,33.6,114.5,27.3,97,17l-1-0.6L95,17C77.2,27.5,57.8,33.6,37.2,35.3
	C37.2,35.3,35.3,35.4,35.3,35.4z"/>
<path class="st0" d="M115.3,141.9H76.7c-3.9,0-7.1-3.2-7.1-7.1V57.2c0-3.9,3.2-7.1,7.1-7.1h38.7c3.9,0,7.1,3.2,7.1,7.1v77.6
	C122.4,138.7,119.2,141.9,115.3,141.9L115.3,141.9z M76.7,54.1c-1.7,0-3.1,1.4-3.1,3.1v77.6c0,1.7,1.4,3.1,3.1,3.1h38.7
	c1.7,0,3.1-1.4,3.1-3.1V57.2c0-1.7-1.4-3.1-3.1-3.1C115.3,54.1,76.7,54.1,76.7,54.1z"/>
<path class="st0" d="M98.5,60.8H86.1c-1.1,0-2-0.9-2-2s0.9-2,2-2h12.4c1.1,0,2,0.9,2,2S99.6,60.8,98.5,60.8z"/>
<path class="st0" d="M104.8,60.8c-0.5,0-1-0.2-1.4-0.6s-0.6-0.9-0.6-1.4c0-0.1,0-0.3,0-0.4s0.1-0.2,0.1-0.4s0.1-0.2,0.2-0.3
	c0.1-0.1,0.2-0.2,0.2-0.3c0.7-0.7,2.1-0.7,2.8,0c0.1,0.1,0.2,0.2,0.2,0.3c0.1,0.1,0.1,0.2,0.2,0.3s0.1,0.2,0.1,0.4
	c0,0.1,0,0.3,0,0.4c0,0.5-0.2,1-0.6,1.4C105.8,60.6,105.3,60.8,104.8,60.8L104.8,60.8z"/>
<path class="st0" d="M96,111.8c-8.7,0-15.8-7.1-15.8-15.8S87.3,80.2,96,80.2s15.8,7.1,15.8,15.8S104.7,111.8,96,111.8z M96,84.1
	c-6.5,0-11.8,5.3-11.8,11.8s5.3,11.8,11.8,11.8s11.8-5.3,11.8-11.8S102.5,84.1,96,84.1z"/>
<path class="st0" d="M95.7,103c-0.5,0-1-0.2-1.4-0.6l-5.9-5.9c-0.8-0.8-0.8-2.1,0-2.8s2.1-0.8,2.8,0l4.5,4.5l14.6-14.6
	c0.8-0.8,2.1-0.8,2.8,0s0.8,2.1,0,2.8l-16,16C96.8,102.8,96.2,103,95.7,103L95.7,103z"/>
</svg>
