<?xml version="1.0" encoding="UTF-8"?>
<svg id="Security_Networking" data-name="Security Networking" xmlns="http://www.w3.org/2000/svg" viewBox="0 0 192 192">
  <defs>
    <style>
      .cls-1 {
        fill: #464646;
      }

      .cls-1, .cls-2 {
        stroke-width: 0px;
      }

      .cls-2 {
        fill: #3cb17e;
      }
    </style>
  </defs>
  <path class="cls-2" d="m118.3,64h-42.1c-1.1,0-2-.9-2-2V19.9c0-1.1.9-2,2-2h42.1c1.1,0,2,.9,2,2v42.1c0,1.1-.9,2-2,2Zm2,53.03v-42.1c0-1.1-.9-2-2-2h-42.1c-1.1,0-2,.9-2,2v42.1c0,1.1.9,2,2,2h42.1c1.1,0,2-.9,2-2Zm0,55.03v-42.1c0-1.1-.9-2-2-2h-42.1c-1.1,0-2,.9-2,2v42.1c0,1.1.9,2,2,2h42.1c1.1,0,2-.9,2-2Z"/>
  <path class="cls-1" d="m135.75,16.49c-.78-.78-2.05-.78-2.83,0l-10.62,10.62v-7.22c0-2.21-1.79-4-4-4h-42.1c-2.21,0-4,1.79-4,4v42.1c0,2.21,1.79,4,4,4h42.1c2.21,0,4-1.79,4-4v-29.23l13.45-13.45c.78-.78.78-2.05,0-2.83Zm-17.45,45.5h-42.1s0-42.1,0-42.1h42.1v11.21s-21.61,21.61-21.61,21.61l-13.54-13.54c-.78-.78-2.05-.78-2.83,0-.78.78-.78,2.05,0,2.83l14.95,14.95c.38.38.88.59,1.41.59s1.04-.21,1.41-.59l20.2-20.2v25.23Zm17.45,9.76c-.78-.78-2.05-.78-2.83,0l-10.62,10.62v-7.46c0-2.21-1.79-4-4-4h-42.1c-2.21,0-4,1.79-4,4v42.1c0,2.21,1.79,4,4,4h42.1c2.21,0,4-1.79,4-4v-28.99l13.45-13.45c.78-.78.78-2.05,0-2.83Zm-17.45,45.26h-42.1s0-42.1,0-42.1h42.1v11.45s-21.61,21.61-21.61,21.61l-13.54-13.54c-.78-.78-2.05-.78-2.83,0-.78.78-.78,2.05,0,2.83l14.95,14.95c.38.38.88.59,1.41.59s1.04-.21,1.41-.59l20.2-20.2v24.99Zm17.45,9.91c-.78-.78-2.05-.78-2.83,0l-10.62,10.62v-7.6c0-2.21-1.79-4-4-4h-42.1c-2.21,0-4,1.79-4,4v42.1c0,2.21,1.79,4,4,4h42.1c2.21,0,4-1.79,4-4v-28.84l13.45-13.45c.78-.78.78-2.05,0-2.83Zm-17.45,45.12h-42.1s0-42.1,0-42.1h42.1v11.6s-21.61,21.61-21.61,21.61l-13.54-13.54c-.78-.78-2.05-.78-2.83,0-.78.78-.78,2.05,0,2.83l14.95,14.95c.38.38.88.59,1.41.59s1.04-.21,1.41-.59l20.2-20.2v24.84Z"/>
</svg>
