<?xml version="1.0" encoding="utf-8"?>
<!-- Generator: Adobe Illustrator 27.7.0, SVG Export Plug-In . SVG Version: 6.00 Build 0)  -->
<svg version="1.1" id="Security_Networking" xmlns="http://www.w3.org/2000/svg" xmlns:xlink="http://www.w3.org/1999/xlink"
	 x="0px" y="0px" viewBox="0 0 192 192" style="enable-background:new 0 0 192 192;" xml:space="preserve">
<style type="text/css">
	.st0{fill:#FFFFFF;}
</style>
<path class="st0" d="M118.3,66H76.2c-2.2,0-4-1.8-4-4V19.9c0-2.2,1.8-4,4-4h42.1c2.2,0,4,1.8,4,4V62C122.3,64.2,120.5,66,118.3,66z
	 M76.2,19.9V62h42.1V19.9H76.2z"/>
<path class="st0" d="M118.3,121H76.2c-2.2,0-4-1.8-4-4V74.9c0-2.2,1.8-4,4-4h42.1c2.2,0,4,1.8,4,4V117
	C122.3,119.2,120.5,121,118.3,121z M76.2,74.9V117h42.1V74.9H76.2z"/>
<path class="st0" d="M118.3,176.1H76.2c-2.2,0-4-1.8-4-4V130c0-2.2,1.8-4,4-4h42.1c2.2,0,4,1.8,4,4v42.1
	C122.3,174.3,120.5,176.1,118.3,176.1L118.3,176.1z M76.2,130v42.1h42.1V130H76.2z"/>
<path class="st0" d="M96.7,57.6c-0.5,0-1-0.2-1.4-0.6L80.3,42c-0.8-0.8-0.8-2,0-2.8s2.1-0.8,2.8,0l13.5,13.5l36.2-36.2
	c0.8-0.8,2.1-0.8,2.8,0c0.8,0.8,0.8,2,0,2.8L98.1,57C97.7,57.4,97.2,57.6,96.7,57.6L96.7,57.6z"/>
<path class="st0" d="M96.7,112.8c-0.5,0-1-0.2-1.4-0.6L80.3,97.3c-0.8-0.8-0.8-2.1,0-2.8s2.1-0.8,2.8,0L96.7,108l36.2-36.2
	c0.8-0.8,2.1-0.8,2.8,0s0.8,2.1,0,2.8l-37.7,37.7C97.7,112.6,97.2,112.8,96.7,112.8L96.7,112.8z"/>
<path class="st0" d="M96.7,168c-0.5,0-1-0.2-1.4-0.6l-14.9-14.9c-0.8-0.8-0.8-2.1,0-2.8s2.1-0.8,2.8,0l13.5,13.5l36.2-36.2
	c0.8-0.8,2.1-0.8,2.8,0s0.8,2.1,0,2.8l-37.7,37.7C97.7,167.8,97.2,168,96.7,168L96.7,168z"/>
</svg>
