<?xml version="1.0" encoding="utf-8"?>
<!-- Generator: Adobe Illustrator 27.7.0, SVG Export Plug-In . SVG Version: 6.00 Build 0)  -->
<svg version="1.1" id="Security_Networking" xmlns="http://www.w3.org/2000/svg" xmlns:xlink="http://www.w3.org/1999/xlink"
	 x="0px" y="0px" viewBox="0 0 192 192" style="enable-background:new 0 0 192 192;" xml:space="preserve">
<style type="text/css">
	.st0{fill:#FFFFFF;}
</style>
<path class="st0" d="M158.3,119.6c-0.5,0-0.9-0.2-1.3-0.5c-0.5-0.4-0.7-1-0.7-1.6c0-0.6,0-1.2,0-1.8c0-22.5-13.1-43.3-33.4-53
	c-7.9-3.8-16.4-5.7-25.2-5.7c-4.3,0-8.5,0.5-12.7,1.4c-22.3,4.9-39.8,22.4-44.6,44.7c-0.9,4.1-1.3,8.3-1.3,12.5c0,0.7,0,1.2,0,1.8
	c0,0.6-0.2,1.2-0.7,1.6c-0.5,0.4-1.1,0.5-1.7,0.4c-11.3-2.6-20.1-10.3-24.1-21.2c-2.2-5.7-2.5-11.9-1-18
	c2.9-11.7,11.9-20.8,23.4-23.9c0,0,0.1,0,0.1,0c2.9-0.6,5.9-0.9,8.8-1.1l1.2-0.1c0,0,0-0.1,0.1-0.2c4.7-10.3,12.7-16.9,23.7-19.4
	c4.4-1.1,8.4-1.3,12.2-0.7c0,0,0.1,0,0.1,0c7.4-11.2,17.8-18.1,30.8-20.3c13.8-1.9,25.9,1.4,36.1,10c7.4,5.9,12.4,13.8,14.4,22.9
	c0.6,3.1,1,6.5,1,9.9c0,0,0.1,0,0.1,0c10.9,4.7,17.8,12.4,20.5,22.9c0.1,0.5,0.2,1,0.4,1.5l0.1,0.3c0,0.1,0.1,0.3,0.1,0.4
	c0,0.2,0.1,0.5,0.1,0.8c0.1,0.4,0.2,1,0.2,1.6v5.8c0,0.1,0,0.2,0,0.3c-0.3,2.6-1,5.2-1.6,7.4c0,0.1,0,0.1-0.1,0.2
	c-4,10.6-12.8,18.2-23.9,20.8l-0.4,0.1C158.6,119.6,158.4,119.6,158.3,119.6L158.3,119.6z M97.7,53.1c9.4,0,18.5,2,26.9,6.1
	c21.5,10.2,35.4,32.1,35.7,55.8c8.8-2.7,15.7-9.1,19-17.7c0.6-2,1.2-4.3,1.5-6.6V85c0-0.2-0.1-0.5-0.1-0.8c-0.1-0.4-0.2-0.8-0.2-1.4
	l0-0.1c-0.1-0.5-0.2-1-0.3-1.4c-2.4-9.3-8.3-15.9-18.1-20.1c-1.6-0.5-2.1-1.5-2.4-2.5l-0.1-0.3c-0.1-0.2-0.1-0.4-0.1-0.7
	c0-3.2-0.3-6.5-0.9-9.4c-1.8-8.3-6.2-15.2-13-20.6c-9.5-7.9-20.2-10.9-32.9-9.1c-11.9,2-21.4,8.3-28.2,18.7c-0.8,1.4-2.3,2-4.1,1.6
	c-3.2-0.5-6.7-0.3-10.6,0.6c-9.9,2.3-16.7,8-21,17.3c-0.1,0.2-0.1,0.2-0.1,0.3c-0.2,0.6-0.9,2.1-3.2,2.1l-1.2,0.1
	c-2.8,0.3-5.7,0.6-8.4,1.1c-10.1,2.7-18,10.7-20.5,21c-1.3,5.3-1,10.7,0.9,15.6c3.3,8.8,10,15.3,18.8,18.1c0-4.3,0.5-8.5,1.4-12.6
	c5.2-23.8,23.9-42.5,47.6-47.8C88.5,53.6,93.1,53.1,97.7,53.1L97.7,53.1z M182.8,90.9L182.8,90.9L182.8,90.9z"/>
<path class="st0" d="M97.7,178.4c-24,0-46.2-14-56.6-35.8c-3.7-7.9-5.8-16.3-6-24.9c0-0.6,0-1.3,0-1.9c0-4.5,0.5-9,1.5-13.4
	c5.2-23.8,23.9-42.5,47.6-47.8c4.4-1,9-1.5,13.5-1.5c9.4,0,18.5,2,26.9,6.1c21.7,10.3,35.7,32.5,35.7,56.5l0,0v0.1
	c0,0.7,0,1.3,0,1.9c-0.5,16.3-7.2,31.6-18.9,43C129.6,172.1,114.1,178.3,97.7,178.4L97.7,178.4z M97.7,57.1c-4.3,0-8.5,0.5-12.7,1.4
	c-22.3,4.9-39.8,22.5-44.6,44.7c-0.9,4.1-1.3,8.3-1.3,12.5c0,0.7,0,1.2,0,1.8c0.2,8.1,2.1,16,5.6,23.4c9.7,20.3,30.5,33.5,53,33.5
	c15.3,0,29.9-5.9,40.9-16.6c11-10.7,17.3-24.9,17.7-40.2c0-0.6,0-1.2,0-1.8l2-0.1h-2c0-22.5-13.1-43.2-33.4-52.9
	C114.9,59,106.5,57.1,97.7,57.1L97.7,57.1z"/>
<g id="FortiExtender">
	<path class="st0" d="M134.7,82.4H60.6c-1.1,0-2-0.9-2-2s0.9-2,2-2h74.1c1.1,0,2,0.9,2,2S135.8,82.4,134.7,82.4z"/>
	<path class="st0" d="M121.3,96H74c-1.1,0-2-0.9-2-2s0.9-2,2-2h47.3c1.1,0,2,0.9,2,2S122.4,96,121.3,96z"/>
	<path class="st0" d="M107.9,109.5H87.4c-1.1,0-2-0.9-2-2s0.9-2,2-2h20.5c1.1,0,2,0.9,2,2S109,109.5,107.9,109.5z"/>
	<path class="st0" d="M112.2,161H83.1c-4.1,0-7.4-3.3-7.4-7.4v-27.1c0-4.1,3.3-7.4,7.4-7.4h29.1c4.1,0,7.4,3.3,7.4,7.4v27.1
		C119.6,157.7,116.3,161,112.2,161z M83.1,123.2c-1.9,0-3.4,1.5-3.4,3.4v27c0,1.9,1.5,3.4,3.4,3.4h29.1c1.9,0,3.4-1.5,3.4-3.4v-27.1
		c0-1.9-1.5-3.4-3.4-3.4C112.2,123.2,83.1,123.2,83.1,123.2z"/>
	<path class="st0" d="M105.9,150.3H89.5c-1.1,0-2-0.9-2-2v-16.4c0-1.1,0.9-2,2-2h16.4c1.1,0,2,0.9,2,2v16.4
		C107.9,149.4,107,150.3,105.9,150.3z M91.5,146.3h12.4v-12.4H91.5V146.3z"/>
</g>
</svg>
