<?xml version="1.0" encoding="UTF-8"?>
<svg id="Security_Networking" data-name="Security Networking" xmlns="http://www.w3.org/2000/svg" viewBox="0 0 192 192">
  <defs>
    <style>
      .cls-1 {
        fill: #464646;
      }

      .cls-1, .cls-2, .cls-3 {
        stroke-width: 0px;
      }

      .cls-2 {
        fill: #3cb17e;
      }

      .cls-3 {
        fill: #fff;
      }
    </style>
  </defs>
  <g>
    <path class="cls-2" d="m96.04,177.97l-1.75-.84c-25.15-12.09-37.28-18.97-47.33-30.39-8.54-9.7-13.63-23.65-13.63-37.3V33.57l3.72-.29c20.31-1.62,39.46-7.69,56.92-18.02l2.06-1.22,2.06,1.22c17.21,10.19,36.89,16.43,56.92,18.02l3.72.29v75.88c0,13.65-5.1,27.61-13.63,37.3-10.05,11.42-22.18,18.3-47.32,30.39l-1.75.84Z"/>
    <path class="cls-1" d="m96.04,179.97c-.3,0-.59-.07-.87-.2l-1.75-.84c-25.41-12.21-37.69-19.2-47.96-30.87-8.85-10.05-14.13-24.49-14.13-38.62V33.57c0-1.04.8-1.91,1.84-1.99l3.72-.29c19.99-1.59,38.85-7.57,56.06-17.75l2.06-1.22c.63-.37,1.41-.37,2.04,0l2.06,1.22c16.96,10.04,36.35,16.18,56.06,17.75l3.72.29c1.04.08,1.84.95,1.84,1.99v75.88c0,14.14-5.28,28.58-14.13,38.62-10.26,11.66-22.54,18.65-47.95,30.87l-1.75.84c-.27.13-.57.2-.87.2ZM35.33,35.42v74.03c0,13.19,4.91,26.64,13.13,35.98,9.8,11.14,21.79,17.94,46.69,29.91l.88.43.88-.43c24.89-11.97,36.88-18.77,46.69-29.91,8.23-9.33,13.14-22.78,13.14-35.98V35.42l-1.87-.15c-20.32-1.62-40.3-7.94-57.79-18.3l-1.04-.62-1.04.62c-17.74,10.5-37.18,16.66-57.79,18.3l-1.88.15Z"/>
  </g>
  <g>
    <path class="cls-3" d="m49.49,80.86c0-1.04.84-1.88,1.88-1.88h10.88c7.83,0,12,4.77,12,11.27s-4.22,11.27-12.08,11.27h-6.51v8.42c0,1.7-1.38,3.08-3.08,3.08h0c-1.7,0-3.08-1.38-3.08-3.08v-29.07Zm11.85,15.59c4.59,0,6.63-2.58,6.63-6.2s-2.04-6.11-6.66-6.11h-5.65v12.31h5.68Z"/>
    <path class="cls-3" d="m74.13,108.9l9.27-26.33c.76-2.15,2.79-3.59,5.07-3.59h0c2.28,0,4.31,1.44,5.07,3.59l9.28,26.33c.71,2.01-.78,4.11-2.91,4.11h0c-1.33,0-2.5-.85-2.92-2.1l-2.12-6.29h-12.79l-2.1,6.28c-.42,1.26-1.6,2.11-2.93,2.11h0c-2.13,0-3.62-2.1-2.91-4.11Zm19.07-9.23l-4.6-13.71h-.27l-4.6,13.71h9.47Z"/>
    <path class="cls-3" d="m111.4,78.99c1.83,0,3.48,1.11,4.18,2.8l8.95,21.86h.4l8.95-21.86c.69-1.7,2.35-2.8,4.18-2.8h0c2.49,0,4.51,2.02,4.51,4.51v26.56c0,1.63-1.32,2.96-2.96,2.96h0c-1.63,0-2.96-1.32-2.96-2.96v-20.42h-.32l-8.58,21.23c-.5,1.24-1.7,2.05-3.04,2.05h0c-1.34,0-2.54-.81-3.04-2.05l-8.58-21.28h-.32v20.47c0,1.63-1.32,2.96-2.96,2.96h0c-1.63,0-2.96-1.32-2.96-2.96v-26.56c0-2.49,2.02-4.51,4.51-4.51h0Z"/>
  </g>
</svg>
