<?xml version="1.0" encoding="utf-8"?>
<!-- Generator: Adobe Illustrator 28.3.0, SVG Export Plug-In . SVG Version: 6.00 Build 0)  -->
<svg version="1.1" id="Security_Networking" xmlns="http://www.w3.org/2000/svg" xmlns:xlink="http://www.w3.org/1999/xlink"
	 x="0px" y="0px" viewBox="0 0 192 192" style="enable-background:new 0 0 192 192;" xml:space="preserve">
<style type="text/css">
	.st0{fill:#FFFFFF;}
</style>
<g>
	<path class="st0" d="M156.6,119.4c-0.5,0-0.9-0.2-1.3-0.5c-0.5-0.4-0.7-1-0.7-1.6c0-0.6,0-1.2,0-1.8c0-22.5-13.1-43.3-33.4-53
		c-7.9-3.8-16.4-5.7-25.2-5.7c-4.3,0-8.5,0.5-12.7,1.4C61.1,63.2,43.6,80.7,38.7,103c-0.9,4.1-1.3,8.3-1.3,12.5c0,0.7,0,1.2,0,1.8
		c0,0.6-0.2,1.2-0.7,1.6c-0.5,0.4-1.1,0.5-1.7,0.4c-11.3-2.6-20.1-10.3-24.1-21.2c-2.2-5.7-2.5-11.9-1-18
		c2.9-11.7,11.9-20.8,23.4-23.9c0,0,0.1,0,0.1,0c2.9-0.6,5.9-0.9,8.8-1.1l1.2-0.1c0,0,0-0.1,0.1-0.2c4.7-10.3,12.7-16.9,23.7-19.4
		c4.4-1.1,8.4-1.3,12.2-0.7c0,0,0.1,0,0.1,0c7.4-11.2,17.8-18.1,30.8-20.3c13.8-1.9,25.9,1.4,36.1,10c7.4,5.9,12.4,13.8,14.4,22.9
		c0.6,3.1,1,6.5,1,9.9c0,0,0.1,0,0.1,0c10.9,4.7,17.8,12.4,20.5,22.9c0.1,0.5,0.2,1,0.4,1.5l0.1,0.3c0,0.1,0.1,0.3,0.1,0.4
		c0,0.2,0.1,0.5,0.1,0.8c0.1,0.4,0.2,1,0.2,1.6v5.8c0,0.1,0,0.2,0,0.3c-0.3,2.6-1,5.2-1.6,7.4c0,0.1,0,0.1-0.1,0.2
		c-4,10.6-12.8,18.2-23.9,20.8l-0.4,0.1C156.9,119.4,156.8,119.4,156.6,119.4L156.6,119.4z M96,52.9c9.4,0,18.5,2,26.9,6.1
		c21.5,10.2,35.5,32.1,35.7,55.8c8.8-2.7,15.7-9.1,19-17.7c0.6-2,1.2-4.3,1.5-6.6v-5.7c0-0.2-0.1-0.5-0.1-0.8
		c-0.1-0.4-0.2-0.8-0.2-1.4l0-0.1c-0.1-0.5-0.2-1-0.3-1.4c-2.4-9.3-8.3-15.9-18.1-20.1c-1.6-0.5-2.1-1.5-2.4-2.5l-0.1-0.3
		c-0.1-0.2-0.1-0.4-0.1-0.7c0-3.2-0.3-6.5-0.9-9.4c-1.8-8.3-6.2-15.2-13-20.6c-9.5-7.9-20.2-10.9-32.9-9.1
		c-11.9,2-21.4,8.3-28.2,18.7c-0.8,1.4-2.3,2-4.1,1.6c-3.2-0.5-6.7-0.3-10.6,0.6c-9.9,2.3-16.7,8-21,17.3c-0.1,0.2-0.1,0.2-0.1,0.3
		c-0.2,0.6-0.9,2.1-3.2,2.1L42.6,59c-2.8,0.3-5.7,0.6-8.4,1.1c-10.1,2.7-18,10.7-20.5,21c-1.3,5.3-1,10.7,0.9,15.6
		c3.3,8.8,10,15.3,18.8,18.1c0-4.3,0.5-8.5,1.4-12.6C40,78.4,58.7,59.6,82.5,54.4C86.9,53.4,91.5,52.9,96,52.9L96,52.9z M181.1,90.7
		L181.1,90.7L181.1,90.7z"/>
</g>
<path class="st0" d="M96,178.1c-24,0-46.2-14-56.6-35.8c-3.7-7.9-5.8-16.3-6-24.9c0-0.6,0-1.3,0-1.9c0-4.5,0.5-9,1.5-13.4
	C40,78.3,58.7,59.6,82.5,54.4c4.4-1,9-1.5,13.5-1.5c9.4,0,18.5,2,26.9,6.1c21.7,10.3,35.7,32.5,35.7,56.5l0,0v0.1c0,0.7,0,1.3,0,1.9
	c-0.5,16.3-7.2,31.6-18.9,43C127.9,171.8,112.4,178.1,96,178.1L96,178.1z M96,56.9c-4.3,0-8.5,0.5-12.7,1.4
	C61.1,63.2,43.6,80.7,38.7,103c-0.9,4.1-1.3,8.3-1.3,12.5c0,0.7,0,1.2,0,1.8c0.2,8.1,2.1,16,5.6,23.4c9.7,20.3,30.5,33.5,53,33.5
	c15.3,0,29.9-5.9,40.9-16.6c11-10.7,17.3-24.9,17.7-40.2c0-0.6,0-1.2,0-1.8l2-0.1h-2c0-22.5-13.1-43.2-33.4-52.9
	C113.3,58.8,104.8,56.9,96,56.9z"/>
<g>
	<g>
		<path class="st0" d="M88.1,107.3c-1.1,0-2-0.9-2-2v-5.5c0-5.4,4.4-9.9,9.9-9.9s9.9,4.4,9.9,9.9v5.4c0,1.1-0.9,2-2,2s-2-0.9-2-2
			v-5.4c0-3.2-2.6-5.9-5.9-5.9s-5.9,2.6-5.9,5.9v5.5C90.1,106.4,89.2,107.3,88.1,107.3z"/>
		<g>
			<path class="st0" d="M106.4,135.1H85.6c-3.1,0-5.5-2.5-5.5-5.5v-20.8c0-3.1,2.5-5.5,5.5-5.5h20.8c3.1,0,5.5,2.5,5.5,5.5v20.8
				C111.9,132.6,109.4,135.1,106.4,135.1z M85.6,107.2c-0.8,0-1.5,0.7-1.5,1.5v20.8c0,0.9,0.7,1.5,1.5,1.5h20.8
				c0.8,0,1.5-0.7,1.5-1.5v-20.8c0-0.8-0.7-1.5-1.5-1.5H85.6z"/>
		</g>
	</g>
	<path class="st0" d="M96,165.4c-0.3,0-0.6-0.1-0.9-0.2l-1-0.5c-14-6.7-20.8-10.6-26.5-17.1c-5-5.7-8-13.8-8-21.7V84.3
		c0-1,0.8-1.9,1.8-2l2-0.2c10.8-0.9,21-4.1,30.3-9.6l1.1-0.7c0.6-0.4,1.4-0.4,2,0l1.1,0.7c9.2,5.4,19.6,8.7,30.3,9.6l2,0.2
		c1,0.1,1.8,0.9,1.8,2v41.5c0,7.9-3,16.1-8,21.7c-5.7,6.5-12.5,10.4-26.5,17.1l-1,0.5C96.6,165.3,96.3,165.4,96,165.4L96,165.4z
		 M63.7,86.2v39.7c0,7,2.6,14.1,7,19.1c5.3,6,11.8,9.7,25.3,16.1l0.1,0l0.1,0c13.5-6.5,20-10.2,25.3-16.1c4.4-4.9,7-12.1,7-19.1
		V86.2h-0.2c-11.3-0.9-22.3-4.4-32-10.2L96,76L95.9,76c-9.8,5.8-20.6,9.2-32,10.1L63.7,86.2L63.7,86.2z"/>
</g>
</svg>
