<?xml version="1.0" encoding="UTF-8"?>
<svg id="Security_Networking" data-name="Security Networking" xmlns="http://www.w3.org/2000/svg" viewBox="0 0 192 192">
  <defs>
    <style>
      .cls-1 {
        fill: #464646;
      }

      .cls-1, .cls-2 {
        stroke-width: 0px;
      }

      .cls-2 {
        fill: #9063cd;
      }
    </style>
  </defs>
  <g id="FortiSASE_Network" data-name="FortiSASE Network">
    <rect class="cls-1" x="74.93" y="27.86" width="42.14" height="4"/>
    <rect class="cls-1" x="147.11" y="39.48" width="4" height="42.08" transform="translate(-10.29 82.66) rotate(-30)"/>
    <rect class="cls-1" x="132.96" y="117.01" width="35.56" height="4" transform="translate(-27.69 190.05) rotate(-60)"/>
    <rect class="cls-1" x="39.26" y="101.23" width="4" height="35.56" transform="translate(-53.98 36.57) rotate(-30)"/>
    <rect class="cls-1" x="21.85" y="58.53" width="42.09" height="4" transform="translate(-30.97 67.41) rotate(-60)"/>
    <path class="cls-1" d="m131.43,46.22c-9.02,0-16.36-7.34-16.36-16.36s7.34-16.36,16.36-16.36,16.36,7.34,16.36,16.36-7.34,16.36-16.36,16.36Zm0-28.71c-6.81,0-12.36,5.54-12.36,12.36s5.54,12.36,12.36,12.36,12.36-5.54,12.36-12.36-5.54-12.36-12.36-12.36Z"/>
    <path class="cls-1" d="m166.81,107.54c-9.02,0-16.36-7.34-16.36-16.36s7.34-16.36,16.36-16.36,16.36,7.34,16.36,16.36-7.34,16.36-16.36,16.36Zm0-28.71c-6.81,0-12.36,5.54-12.36,12.36s5.54,12.36,12.36,12.36,12.36-5.54,12.36-12.36-5.54-12.36-12.36-12.36Z"/>
    <path class="cls-1" d="m25.19,107.54c-9.02,0-16.36-7.34-16.36-16.36s7.34-16.36,16.36-16.36,16.36,7.34,16.36,16.36-7.34,16.36-16.36,16.36Zm0-28.71c-6.81,0-12.36,5.54-12.36,12.36s5.54,12.36,12.36,12.36,12.36-5.54,12.36-12.36-5.54-12.36-12.36-12.36Z"/>
    <path class="cls-1" d="m60.58,46.22c-9.02,0-16.36-7.34-16.36-16.36s7.34-16.36,16.36-16.36,16.36,7.34,16.36,16.36-7.34,16.36-16.36,16.36Zm0-28.71c-6.81,0-12.36,5.54-12.36,12.36s5.54,12.36,12.36,12.36,12.36-5.54,12.36-12.36-5.54-12.36-12.36-12.36Z"/>
    <path class="cls-1" d="m73.08,166.36H22.97c-1.1,0-2-.9-2-2v-29.95c0-1.1.9-2,2-2h50.11c1.1,0,2,.9,2,2v29.95c0,1.1-.9,2-2,2Zm-48.11-4h46.11v-25.95H24.97v25.95Z"/>
    <path class="cls-1" d="m83.06,178.49H12.94c-.77,0-1.48-.45-1.81-1.15-.33-.7-.23-1.53.27-2.13l10.01-12.14c.38-.46.95-.73,1.54-.73h50.11c.6,0,1.16.27,1.54.73l10.01,12.14c.49.6.6,1.43.27,2.13-.33.7-1.03,1.15-1.81,1.15Zm-65.89-4h61.65l-6.71-8.14H23.89l-6.71,8.14Z"/>
    <path class="cls-1" d="m169.16,166.36h-50.11c-1.1,0-2-.9-2-2v-29.95c0-1.1.9-2,2-2h50.11c1.1,0,2,.9,2,2v29.95c0,1.1-.9,2-2,2Zm-48.11-4h46.11v-25.95h-46.11v25.95Z"/>
    <path class="cls-1" d="m179.14,178.49h-70.13c-.77,0-1.48-.45-1.81-1.15-.33-.7-.23-1.53.27-2.13l10.01-12.14c.38-.46.95-.73,1.54-.73h50.11c.6,0,1.16.27,1.54.73l10.01,12.14c.49.6.6,1.43.27,2.13-.33.7-1.03,1.15-1.81,1.15Zm-65.89-4h61.65l-6.71-8.14h-48.23l-6.71,8.14Z"/>
    <rect class="cls-1" x="72.94" y="40.37" width="4" height="28.72" transform="translate(-17.32 44.81) rotate(-30.01)"/>
    <rect class="cls-1" x="39.55" y="89.18" width="112.9" height="4"/>
    <rect class="cls-1" x="102.71" y="52.73" width="28.72" height="4" transform="translate(11.13 128.73) rotate(-59.99)"/>
    <g>
      <circle class="cls-2" cx="96" cy="91.48" r="28"/>
      <path class="cls-1" d="m96,121.48c-16.54,0-30-13.46-30-30s13.46-30,30-30,30,13.46,30,30-13.46,30-30,30Zm0-56c-14.34,0-26,11.66-26,26s11.66,26,26,26,26-11.66,26-26-11.66-26-26-26Z"/>
    </g>
    <g>
      <g>
        <polygon class="cls-2" points="113.72 150.27 104.91 155.76 96.1 161.24 87.29 155.76 78.49 150.27 87.29 144.79 96.1 139.32 104.91 144.79 113.72 150.27"/>
        <path class="cls-1" d="m96.1,163.24c-.37,0-.73-.1-1.06-.3l-17.61-10.97c-.59-.37-.94-1.01-.94-1.7s.36-1.33.94-1.7l17.61-10.96c.65-.4,1.46-.4,2.11,0l17.61,10.96c.59.37.94,1.01.94,1.7s-.36,1.33-.94,1.7l-17.61,10.97c-.32.2-.69.3-1.06.3Zm-13.83-12.97l13.83,8.61,13.83-8.61-13.83-8.6-13.83,8.6Z"/>
      </g>
      <path class="cls-1" d="m96.1,163.24c-1.1,0-2-.9-2-2v-21.93c0-1.1.9-2,2-2s2,.9,2,2v21.93c0,1.1-.9,2-2,2Z"/>
    </g>
  </g>
</svg>
