<?xml version="1.0" encoding="UTF-8"?>
<svg id="Security_Networking" data-name="Security Networking" xmlns="http://www.w3.org/2000/svg" viewBox="0 0 192 192">
  <defs>
    <style>
      .cls-1 {
        fill: #fff;
        stroke-width: 0px;
      }
    </style>
  </defs>
  <path class="cls-1" d="m156.76,77.06v50.7H35.31V59.88c0-1.71,1.4-3.11,3.11-3.11h27.23c.07.47.14.93.23,1.39.09.47.19.92.29,1.38.32,1.35.73,2.68,1.22,3.95.32.86.69,1.71,1.1,2.53.6,1.2,1.27,2.36,2.01,3.47.25.37.51.74.77,1.1.27.35.54.71.82,1.06.28.34.56.68.86,1.02.29.33.59.66.9.98.31.32.62.63.94.94.33.31.65.61.99.9.3.26.6.51.9.76.07.06.14.11.21.17.29.23.59.45.89.67.06.05.13.1.19.14.24.18.49.35.74.52.17.12.34.23.51.33.21.14.42.28.63.4.17.11.34.22.51.31.24.15.48.28.73.41.15.09.3.17.45.25.22.12.45.24.68.34.2.12.41.22.62.31.2.1.41.19.62.28.12.06.23.11.35.16h.01c.07.03.13.06.2.09.26.11.53.22.79.32.39.15.78.29,1.18.42.38.14.76.26,1.15.37.03.01.06.02.1.03.31.1.62.18.94.26.18.05.36.1.55.14.36.09.72.17,1.09.24.07.02.14.03.21.05.4.07.8.14,1.2.2.08.02.16.03.24.04.29.05.59.09.88.11.66.09,1.34.15,2.02.18.46.03.92.04,1.39.05h.53c.96,0,1.91-.06,2.85-.15,1.6-.16,3.16-.43,4.68-.83.33-.08.66-.17.98-.27.16-.04.31-.09.46-.14.28-.08.55-.17.83-.27.41-.13.82-.28,1.23-.45.25-.09.5-.19.75-.3.07-.02.13-.05.2-.09h.01c.11-.04.22-.09.33-.14.27-.12.54-.24.8-.37.13-.06.25-.12.38-.19.27-.13.54-.26.8-.4.14-.08.27-.15.41-.23.3-.16.6-.34.89-.51.08-.04.15-.09.22-.13.33-.2.65-.41.97-.62.04-.02.08-.05.12-.08.29-.19.57-.39.85-.59.15-.11.3-.21.44-.32.2-.15.4-.3.6-.46.15-.12.29-.23.44-.35.25-.2.49-.41.73-.62.05-.05.11-.1.17-.15.25-.21.49-.44.73-.66.64-.61,1.26-1.24,1.84-1.9.26-.28.51-.57.75-.87.02-.02.04-.05.06-.07.29-.35.57-.71.84-1.07h0c.28-.39.55-.76.81-1.15.26-.38.51-.78.76-1.17.24-.4.47-.8.7-1.21,1.77-3.18,2.98-6.72,3.52-10.51h19.04v-4h-20.83c-1.04,0-1.91.8-1.99,1.83-.18,2.17-.62,4.25-1.28,6.22-.38,1.18-.85,2.33-1.39,3.42,0,0-.01,0-.01.01-.35.73-.74,1.44-1.17,2.13-.22.34-.44.69-.67,1.03-.44.66-.93,1.31-1.44,1.93,0,0-.01,0-.01,0-.5.62-1.04,1.21-1.6,1.78-2.92,2.95-6.53,5.22-10.57,6.55-.55.18-1.11.35-1.68.49-.63.17-1.27.31-1.92.42-.61.12-1.23.21-1.86.28-.93.11-1.89.16-2.85.17h-.41c-.97,0-1.93-.06-2.87-.18-.65-.06-1.3-.16-1.94-.29-.61-.11-1.21-.24-1.8-.4-.5-.12-.99-.26-1.48-.43-.19-.05-.37-.11-.56-.18-.3-.1-.59-.21-.88-.33-.86-.33-1.69-.7-2.51-1.12-.72-.37-1.41-.77-2.09-1.19-.34-.22-.68-.45-1.02-.68-.66-.46-1.29-.95-1.9-1.46-.61-.51-1.2-1.06-1.77-1.64-1.97-2-3.63-4.33-4.9-6.89h-.01c-.53-1.11-1-2.25-1.39-3.43-.65-1.98-1.08-4.06-1.26-6.22,0-.06-.01-.11-.03-.17-.15-.95-.98-1.66-1.96-1.66h-29.02c-3.92,0-7.11,3.19-7.11,7.11v69.88c0,1.1.9,2,2,2h125.45c1.1,0,2-.9,2-2v-52.7h-4Z"/>
  <g>
    <path class="cls-1" d="m96.04,58.5c-5.34,0-10.62-.6-15.69-1.78-4.65-1.07-9.29-2.67-13.77-4.75-.75-.35-1.21-1.13-1.15-1.95.08-1.18.24-2.38.47-3.56,2.23-11.48,10.99-20.82,22.31-23.8.63-.17,1.28-.32,1.94-.45v-2.78c0-1.1.9-2,2-2h7.65c1.1,0,2,.9,2,2v2.75c.7.13,1.39.29,2.08.48,11.31,2.97,20.07,12.32,22.31,23.8.23,1.18.39,2.38.47,3.56.06.83-.4,1.6-1.15,1.95-4.43,2.08-9.07,3.68-13.78,4.76-5.06,1.18-10.34,1.78-15.69,1.78Zm-26.49-9.58c3.83,1.69,7.76,3,11.7,3.9,9.56,2.23,20.03,2.23,29.58,0,3.99-.91,7.92-2.22,11.7-3.9-.07-.57-.16-1.14-.27-1.71-1.95-9.98-9.57-18.11-19.41-20.7-1.1-.29-2.21-.52-3.31-.66-1-.13-1.74-.98-1.74-1.98v-2.45h-3.65v2.47c0,1-.74,1.85-1.73,1.98-1.08.15-2.15.36-3.18.64-9.86,2.59-17.48,10.72-19.42,20.7-.11.57-.2,1.14-.27,1.71Z"/>
    <path class="cls-1" d="m96.03,83.04h-.17c-16.04-.12-29.1-12.2-30.43-28.1-.07-.82-.11-1.68-.11-2.6,0-.84.04-1.62.11-2.39.06-.65.43-1.22,1-1.55.56-.32,1.25-.35,1.84-.07,4.17,1.96,8.54,3.47,12.98,4.48,9.57,2.23,20.03,2.23,29.58,0,4.39-1.01,8.76-2.51,12.99-4.48.59-.27,1.27-.25,1.84.08.56.32.94.9,1,1.54.07.76.11,1.54.11,2.39,0,.07,0,.14-.01.21,0,.77-.04,1.56-.12,2.4-1.33,15.91-14.38,27.99-30.36,28.1h-.24Zm-26.7-29.87c.01.49.04.96.08,1.42,1.16,13.84,12.51,24.34,26.4,24.44h.39c13.94-.09,25.29-10.6,26.45-24.44.04-.5.07-.97.09-1.43-3.61,1.5-7.3,2.69-11.01,3.54-10.13,2.36-21.23,2.36-31.38,0-3.74-.85-7.43-2.04-11.01-3.53Z"/>
    <path class="cls-1" d="m144.49,131.49H47.59c-1.1,0-2-.9-2-2,0-27.82,22.63-50.45,50.45-50.45s50.45,22.63,50.45,50.45c0,1.1-.9,2-2,2Zm-94.86-4h92.81c-1.05-24.69-21.46-44.45-46.41-44.45s-45.36,19.76-46.41,44.45Z"/>
    <g>
      <path class="cls-1" d="m70.92,131.49c-1.1,0-2-.9-2-2v-19.74c0-1.1.9-2,2-2s2,.9,2,2v19.74c0,1.1-.9,2-2,2Z"/>
      <path class="cls-1" d="m121.16,131.49c-1.1,0-2-.9-2-2v-19.74c0-1.1.9-2,2-2s2,.9,2,2v19.74c0,1.1-.9,2-2,2Z"/>
    </g>
  </g>
  <path class="cls-1" d="m172.93,162.14H19.03c-2.78,0-5.25-1.56-6.43-4.08-1.18-2.51-.82-5.4.95-7.55l18.16-22.03c.38-.46.95-.73,1.54-.73h125.45c.6,0,1.16.27,1.54.73l18.16,22.03c1.77,2.14,2.13,5.03.95,7.54-1.18,2.51-3.64,4.07-6.41,4.08h0Zm-138.74-30.38l-17.56,21.3c-.79.95-.94,2.18-.42,3.29.53,1.12,1.58,1.78,2.81,1.78h153.89c1.24,0,2.29-.67,2.81-1.78.52-1.11.37-2.34-.42-3.29l-17.56-21.3H34.19Z"/>
  <path class="cls-1" d="m67.43,52.15c-.28,0-.57-.06-.85-.19-2.09-.98-4.12-2.05-6.03-3.2-.95-.57-1.26-1.79-.69-2.74.57-.95,1.79-1.26,2.74-.69,1.8,1.07,3.71,2.09,5.67,3,1,.47,1.43,1.66.96,2.66-.34.73-1.06,1.15-1.81,1.15Z"/>
  <path class="cls-1" d="m124.66,52.15c-.75,0-1.47-.43-1.81-1.15-.47-1-.04-2.19.96-2.66,1.85-.87,3.71-1.85,5.54-2.93.96-.56,2.18-.24,2.74.71.56.95.24,2.18-.71,2.74-1.94,1.14-3.91,2.19-5.88,3.11-.27.13-.56.19-.85.19Z"/>
  <path class="cls-1" d="m92.15,38.37c-1.1,0-2-.9-2-2v-12.48c0-1.1.9-2,2-2s2,.9,2,2v12.48c0,1.1-.9,2-2,2Z"/>
  <path class="cls-1" d="m99.8,38.37c-1.1,0-2-.9-2-2v-12.5c0-1.1.9-2,2-2s2,.9,2,2v12.5c0,1.1-.9,2-2,2Z"/>
  <g>
    <path class="cls-1" d="m152.13,48.6h-4v-6.03c0-5.86,4.77-10.63,10.63-10.63s10.63,4.77,10.63,10.63v5.94h-4v-5.94c0-3.66-2.97-6.63-6.63-6.63s-6.63,2.97-6.63,6.63v6.03Z"/>
    <path class="cls-1" d="m170.15,46.52h-22.78c-3.24,0-5.88,2.64-5.88,5.88v22.78c0,3.24,2.64,5.88,5.88,5.88h22.78c3.24,0,5.88-2.64,5.88-5.88v-22.78c0-3.24-2.64-5.88-5.88-5.88Zm1.88,28.66c0,1.04-.84,1.88-1.88,1.88h-22.78c-1.04,0-1.88-.84-1.88-1.88v-22.78c0-1.04.84-1.88,1.88-1.88h22.78c1.04,0,1.88.84,1.88,1.88v22.78Z"/>
  </g>
</svg>
