<?xml version="1.0" encoding="UTF-8"?><svg id="Security_Networking" xmlns="http://www.w3.org/2000/svg" viewBox="0 0 192 192"><defs><style>.cls-1{fill:#a2b2c8;}.cls-2{fill:#464646;}</style></defs><g id="FortiWLM"><path class="cls-2" d="m148.08,180.07H43.92c-6.42,0-11.64-5.22-11.64-11.64V35.61c0-6.42,5.22-11.64,11.64-11.64h104.15c6.42,0,11.64,5.22,11.64,11.64v132.82c0,6.42-5.22,11.64-11.64,11.64ZM43.92,27.97c-4.21,0-7.64,3.43-7.64,7.64v132.82c0,4.21,3.43,7.64,7.64,7.64h104.15c4.21,0,7.64-3.43,7.64-7.64V35.61c0-4.21-3.43-7.64-7.64-7.64H43.92Z"/><path class="cls-2" d="m107.94,27.9h-23.88c-1.1,0-2-.9-2-2,0-7.69,6.25-13.94,13.94-13.94s13.94,6.25,13.94,13.94c0,1.1-.9,2-2,2Zm-21.68-4h19.47c-.93-4.52-4.94-7.94-9.74-7.94s-8.81,3.41-9.74,7.94Z"/><polygon class="cls-1" points="124.92 46.87 67.08 46.87 57.43 25.9 134.57 25.9 124.92 46.87"/><path class="cls-2" d="m124.92,48.87h-57.85c-.78,0-1.49-.45-1.82-1.16l-9.65-20.97c-.28-.62-.23-1.34.13-1.91s1-.92,1.68-.92h77.15c.68,0,1.32.35,1.68.92s.42,1.3.13,1.91l-9.65,20.97c-.33.71-1.04,1.16-1.82,1.16Zm-56.56-4h55.28l7.81-16.97H60.55l7.81,16.97Z"/></g><path class="cls-2" d="m142.29,69.5H49.71c-1.1,0-2-.9-2-2s.9-2,2-2h92.58c1.1,0,2,.9,2,2s-.9,2-2,2Z"/><path class="cls-2" d="m142.29,85.05H49.71c-1.1,0-2-.9-2-2s.9-2,2-2h92.58c1.1,0,2,.9,2,2s-.9,2-2,2Z"/><path class="cls-2" d="m142.29,100.6H49.71c-1.1,0-2-.9-2-2s.9-2,2-2h92.58c1.1,0,2,.9,2,2s-.9,2-2,2Z"/><path class="cls-2" d="m142.29,116.14H49.71c-1.1,0-2-.9-2-2s.9-2,2-2h92.58c1.1,0,2,.9,2,2s-.9,2-2,2Z"/><path class="cls-2" d="m142.29,131.69H49.71c-1.1,0-2-.9-2-2s.9-2,2-2h92.58c1.1,0,2,.9,2,2s-.9,2-2,2Z"/><path class="cls-2" d="m94.03,147.24h-44.32c-1.1,0-2-.9-2-2s.9-2,2-2h44.32c1.1,0,2,.9,2,2s-.9,2-2,2Z"/></svg>
