<?xml version="1.0" encoding="UTF-8"?>
<svg id="Security_Networking" data-name="Security Networking" xmlns="http://www.w3.org/2000/svg" viewBox="0 0 192 192">
  <defs>
    <style>
      .cls-1 {
        fill: #464646;
      }

      .cls-1, .cls-2 {
        stroke-width: 0px;
      }

      .cls-2 {
        fill: #9063cd;
      }
    </style>
  </defs>
  <rect class="cls-1" x="76.08" y="31.77" width="38.8" height="4"/>
  <rect class="cls-1" x="147.76" y="45.39" width="4" height="39.25" transform="translate(-12.44 83.59) rotate(-30)"/>
  <rect class="cls-1" x="130.15" y="125.57" width="39.23" height="4" transform="translate(-35.6 193.48) rotate(-60)"/>
  <rect class="cls-1" x="76.07" y="156.83" width="38.81" height="4"/>
  <rect class="cls-1" x="39.44" y="108.04" width="4" height="38.97" transform="translate(-58.21 37.8) rotate(-30)"/>
  <rect class="cls-1" x="21.97" y="63.05" width="38.96" height="4" transform="translate(-35.61 68.42) rotate(-60)"/>
  <g>
    <circle class="cls-2" cx="26.24" cy="96.28" r="15.37"/>
    <path class="cls-1" d="m26.24,113.65c-9.58,0-17.37-7.79-17.37-17.37s7.79-17.37,17.37-17.37,17.37,7.79,17.37,17.37-7.79,17.37-17.37,17.37Zm0-30.73c-7.37,0-13.37,6-13.37,13.37s6,13.37,13.37,13.37,13.37-6,13.37-13.37-6-13.37-13.37-13.37Z"/>
  </g>
  <g>
    <circle class="cls-2" cx="165.2" cy="96.3" r="15.37"/>
    <path class="cls-1" d="m165.2,113.66c-9.58,0-17.37-7.79-17.37-17.37s7.79-17.37,17.37-17.37,17.37,7.79,17.37,17.37-7.79,17.37-17.37,17.37Zm0-30.73c-7.37,0-13.37,6-13.37,13.37s6,13.37,13.37,13.37,13.37-6,13.37-13.37-6-13.37-13.37-13.37Z"/>
  </g>
  <g>
    <circle class="cls-2" cx="60.92" cy="156.28" r="15.37"/>
    <path class="cls-1" d="m60.92,173.65c-9.58,0-17.37-7.79-17.37-17.37s7.79-17.37,17.37-17.37,17.37,7.79,17.37,17.37-7.79,17.37-17.37,17.37Zm0-30.73c-7.37,0-13.37,6-13.37,13.37s6,13.37,13.37,13.37,13.37-6,13.37-13.37-6-13.37-13.37-13.37Z"/>
  </g>
  <g>
    <circle class="cls-2" cx="130.03" cy="156.28" r="15.37"/>
    <path class="cls-1" d="m130.03,173.65c-9.58,0-17.37-7.79-17.37-17.37s7.79-17.37,17.37-17.37,17.37,7.79,17.37,17.37-7.79,17.37-17.37,17.37Zm0-30.73c-7.37,0-13.37,6-13.37,13.37s6,13.37,13.37,13.37,13.37-6,13.37-13.37-6-13.37-13.37-13.37Z"/>
  </g>
  <g>
    <circle class="cls-2" cx="130.03" cy="36.28" r="15.37"/>
    <path class="cls-1" d="m130.03,53.65c-9.58,0-17.37-7.79-17.37-17.37s7.79-17.37,17.37-17.37,17.37,7.79,17.37,17.37-7.79,17.37-17.37,17.37Zm0-30.73c-7.37,0-13.37,6-13.37,13.37s6,13.37,13.37,13.37,13.37-6,13.37-13.37-6-13.37-13.37-13.37Z"/>
  </g>
  <g>
    <circle class="cls-2" cx="60.92" cy="36.28" r="15.37"/>
    <path class="cls-1" d="m60.92,53.65c-9.58,0-17.37-7.79-17.37-17.37s7.79-17.37,17.37-17.37,17.37,7.79,17.37,17.37-7.79,17.37-17.37,17.37Zm0-30.73c-7.37,0-13.37,6-13.37,13.37s6,13.37,13.37,13.37,13.37-6,13.37-13.37-6-13.37-13.37-13.37Z"/>
  </g>
  <path class="cls-1" d="m95.72,134.23c-20.95,0-38-17.05-38-38s17.05-38,38-38,38,17.05,38,38-17.05,38-38,38Zm0-72c-18.75,0-34,15.25-34,34s15.25,34,34,34,34-15.25,34-34-15.25-34-34-34Z"/>
  <rect class="cls-1" x="64.14" y="133.19" width="18.04" height="4" transform="translate(-80.5 130.95) rotate(-60)"/>
  <rect class="cls-1" x="109.25" y="55.35" width="17.7" height="4" transform="translate(9.38 130.95) rotate(-60)"/>
  <rect class="cls-1" x="71.13" y="48.36" width="4" height="17.96" transform="translate(-18.87 44.25) rotate(-30)"/>
  <rect class="cls-1" x="116.04" y="126.18" width="4" height="17.9" transform="translate(-51.75 77.12) rotate(-30)"/>
  <rect class="cls-1" x="138.78" y="87.21" width="4" height="18.12" transform="translate(44.01 236.7) rotate(-89.79)"/>
  <rect class="cls-1" x="41.61" y="94.26" width="18.12" height="4" transform="translate(-.27 .14) rotate(-.16)"/>
  <g>
    <path class="cls-2" d="m121.06,97.8c0,.27.1.46.1.73v1.74c-.1.73-.29,1.47-.48,2.11-1.15,3.01-3.63,5.13-6.73,5.85-.77.19-1.59.28-2.43.28h-31.55c-.81,0-1.58-.09-2.33-.26-3.14-.71-5.66-2.86-6.81-5.98-.63-1.65-.69-3.39-.28-5.02.77-3.1,3.2-5.81,6.57-6.71.95-.19,2-.27,2.95-.37.38,0,.38-.18.48-.36,1.34-2.94,3.53-4.77,6.68-5.5,1.15-.27,2.28-.37,3.43-.19.29.09.48,0,.57-.19,2.1-3.21,5.05-5.23,8.86-5.87,3.91-.55,7.34.37,10.29,2.85,2.1,1.65,3.53,3.86,4.1,6.51.19.92.28,1.93.28,2.94.1.27.1.37.39.46,3.06,1.31,5.01,3.42,5.78,6.44.04.17.08.35.12.53Z"/>
    <path class="cls-1" d="m111.53,110.53h-31.55c-.94,0-1.87-.1-2.77-.31-3.86-.87-6.87-3.51-8.25-7.23-.74-1.94-.87-4.09-.35-6.2.98-3.99,4.05-7.11,8-8.16.04-.01.09-.02.13-.03.78-.15,1.59-.24,2.34-.32,1.64-3.11,4.22-5.09,7.69-5.9,1.17-.28,2.27-.38,3.33-.31,2.4-3.27,5.65-5.28,9.65-5.95,4.56-.64,8.55.47,11.91,3.29,2.45,1.92,4.12,4.57,4.77,7.62.15.75.25,1.55.3,2.35,3.22,1.6,5.28,4.09,6.14,7.41.05.22.09.41.14.61.02.11.04.23.04.34.05.22.1.48.1.81v1.74c0,.09,0,.17-.02.26-.12.88-.34,1.71-.54,2.4-.02.05-.03.11-.05.16-1.38,3.62-4.34,6.2-8.14,7.09-.92.22-1.9.34-2.88.34Zm-33.95-18.02c-2.47.68-4.46,2.73-5.08,5.24-.32,1.31-.25,2.63.21,3.83.91,2.45,2.87,4.17,5.39,4.74.62.14,1.24.21,1.89.21h31.55c.67,0,1.33-.08,1.96-.23,2.46-.58,4.39-2.23,5.29-4.55.14-.5.29-1.07.37-1.62v-1.53c-.03-.15-.07-.33-.08-.53l-.08-.35c-.59-2.29-2.08-3.95-4.55-5.03-1.13-.4-1.43-1.27-1.54-1.61-.07-.21-.13-.51-.13-.72,0-.87-.08-1.75-.24-2.54-.46-2.13-1.6-3.93-3.38-5.33-2.54-2.13-5.4-2.91-8.78-2.44-3.15.53-5.6,2.15-7.43,4.93-.55.93-1.6,1.36-2.69,1.1-.77-.11-1.61-.06-2.55.17-2.54.59-4.23,1.99-5.32,4.39-.01.03-.03.06-.05.1-.51,1.16-1.5,1.41-2.12,1.43l-.34.03c-.78.08-1.58.16-2.29.29Zm45.49,5.29h0s0,0,0,0Z"/>
  </g>
</svg>
