<?xml version="1.0" encoding="UTF-8"?><svg id="Security_Networking" xmlns="http://www.w3.org/2000/svg" viewBox="0 0 192 192"><defs><style>.cls-1{fill:#fff;}.cls-2{fill:#9063cd;}.cls-3{fill:#464646;}</style></defs><path class="cls-3" d="m137.06,132.32h-33.4v-4h33.4c2.6,0,4.72-2.12,4.72-4.72V20.78c0-2.6-2.12-4.72-4.72-4.72h-51.25c-2.6,0-4.72,2.12-4.72,4.72v67.22h-4V20.78c0-4.81,3.91-8.72,8.72-8.72h51.25c4.81,0,8.72,3.91,8.72,8.72v102.82c0,4.81-3.91,8.72-8.72,8.72Z"/><path class="cls-3" d="m116.16,24.94h-16.4c-1.1,0-2-.9-2-2s.9-2,2-2h16.4c1.1,0,2,.9,2,2s-.9,2-2,2Z"/><path class="cls-3" d="m123.12,24.95c-.53,0-1.04-.22-1.42-.59-.09-.09-.17-.19-.24-.3-.08-.11-.14-.23-.19-.35s-.09-.25-.11-.37c-.03-.13-.04-.26-.04-.39,0-.53.21-1.05.58-1.42.47-.46,1.16-.68,1.81-.54.13.02.25.06.37.11.12.05.24.11.35.18.11.08.21.16.3.25.37.37.59.89.59,1.42,0,.13-.01.26-.04.39-.03.12-.06.25-.11.37-.05.12-.12.24-.19.35-.07.11-.15.21-.25.3-.09.09-.19.18-.3.25s-.23.13-.35.18c-.12.05-.24.09-.37.12-.13.02-.26.04-.39.04Z"/><circle class="cls-2" cx="111.46" cy="72.19" r="22.62" transform="translate(2.11 147.54) rotate(-67.5)"/><path class="cls-3" d="m111.46,96.8c-13.57,0-24.62-11.04-24.62-24.62s11.04-24.62,24.62-24.62,24.62,11.04,24.62,24.62-11.04,24.62-24.62,24.62Zm0-45.23c-11.37,0-20.62,9.25-20.62,20.62s9.25,20.62,20.62,20.62,20.62-9.25,20.62-20.62-9.25-20.62-20.62-20.62Z"/><path class="cls-1" d="m107.06,82.24c-.86,0-1.67-.33-2.28-.94l-7.2-7.16c-.72-.72-.73-1.9-.02-2.63.35-.36.82-.56,1.32-.56h0c.51,0,.98.2,1.33.54l6.86,6.75,15.61-15.56c.35-.35.83-.55,1.33-.55s.98.2,1.33.55c.36.36.55.83.55,1.33,0,.5-.2.98-.55,1.33l-15.99,15.94c-.61.61-1.42.94-2.28.94Z"/><path class="cls-3" d="m96.63,179.93c-2.93,0-5.92-.59-8.75-1.78l-14.44-6.07c-5.69-2.39-10.14-7.1-12.2-12.92l-12.7-35.82c-3.6-10.14-3.04-21.08,1.57-30.8l10.26-21.64c2.27-4.79,5.32-9.13,9.07-12.88l8.25-8.27c.78-.78,2.05-.78,2.83,0,.78.78.78,2.05,0,2.83l-8.25,8.27c-3.42,3.43-6.21,7.39-8.28,11.77l-10.26,21.64c-4.15,8.76-4.65,18.62-1.41,27.75l12.7,35.82c1.69,4.76,5.33,8.62,9.98,10.57l14.44,6.07c5.04,2.12,10.64,1.95,14.98-.47,6.2-3.46,8.69-9.95,7.4-19.29-.57-4.11-2.03-8.43-4.35-12.85l-19.25-36.68-5.14-10.7c-1.17-2.44-3.25-4.22-5.84-5.01-2.59-.78-5.3-.45-7.63.93-4.4,2.61-5.96,8.19-3.55,12.71l2.04,3.83,5.35,9.68c4.19,7.59,6.3,16.18,6.08,24.85-.03,1.1-.94,1.98-2.05,1.95-1.1-.03-1.98-.95-1.95-2.05.2-7.96-1.73-15.85-5.58-22.81l-5.36-9.7-2.05-3.85c-3.41-6.4-1.2-14.32,5.04-18.03,3.26-1.93,7.21-2.42,10.83-1.32,3.63,1.1,6.65,3.69,8.29,7.1l5.11,10.64,19.21,36.62c2.54,4.83,4.14,9.6,4.77,14.16,1.92,13.87-4.06,20.34-9.41,23.33-2.92,1.63-6.28,2.45-9.72,2.45Z"/></svg>
