<?xml version="1.0" encoding="utf-8"?>
<!-- Generator: Adobe Illustrator 27.7.0, SVG Export Plug-In . SVG Version: 6.00 Build 0)  -->
<svg version="1.1" id="Security_Networking" xmlns="http://www.w3.org/2000/svg" xmlns:xlink="http://www.w3.org/1999/xlink"
	 x="0px" y="0px" viewBox="0 0 192 192" style="enable-background:new 0 0 192 192;" xml:space="preserve">
<style type="text/css">
	.st0{fill:#FFFFFF;}
</style>
<path class="st0" d="M96,180c-0.3,0-0.6-0.1-0.9-0.2l-1.8-0.8c-25.4-12.2-37.7-19.2-48-30.9c-8.8-10.1-14.1-24.5-14.1-38.6V33.6
	c0-1,0.8-1.9,1.8-2l3.7-0.3c20-1.6,38.8-7.6,56.1-17.8l2.1-1.2c0.6-0.4,1.4-0.4,2,0l2.1,1.2c17,10,36.3,16.2,56.1,17.8l3.7,0.3
	c1,0.1,1.8,0.9,1.8,2v75.9c0,14.1-5.3,28.6-14.1,38.6c-10.3,11.7-22.5,18.6-47.9,30.9l-1.8,0.8C96.6,179.9,96.3,180,96,180L96,180z
	 M35.3,35.4v74c0,13.2,4.9,26.6,13.1,36c9.8,11.1,21.8,17.9,46.7,29.9l0.9,0.4l0.9-0.4c24.9-12,36.9-18.8,46.7-29.9
	c8.2-9.3,13.1-22.8,13.1-36v-74l-1.9-0.2C134.5,33.6,114.5,27.3,97,17l-1-0.6L95,17C77.2,27.5,57.8,33.6,37.2,35.3
	C37.2,35.3,35.3,35.4,35.3,35.4z"/>
<path class="st0" d="M49.5,80.9c0-1,0.8-1.9,1.9-1.9h10.9c7.8,0,12,4.8,12,11.3s-4.2,11.3-12.1,11.3h-6.5v8.4c0,1.7-1.4,3.1-3.1,3.1
	l0,0c-1.7,0-3.1-1.4-3.1-3.1L49.5,80.9L49.5,80.9z M61.3,96.4c4.6,0,6.6-2.6,6.6-6.2s-2-6.1-6.7-6.1h-5.7v12.3
	C55.6,96.4,61.3,96.4,61.3,96.4z"/>
<path class="st0" d="M74.1,108.9l9.3-26.3c0.8-2.2,2.8-3.6,5.1-3.6l0,0c2.3,0,4.3,1.4,5.1,3.6l9.3,26.3c0.7,2-0.8,4.1-2.9,4.1l0,0
	c-1.3,0-2.5-0.8-2.9-2.1l-2.1-6.3H82l-2.1,6.3c-0.4,1.3-1.6,2.1-2.9,2.1l0,0C74.9,113,73.4,110.9,74.1,108.9L74.1,108.9z M93.2,99.7
	L88.6,86h-0.3l-4.6,13.7C83.7,99.7,93.2,99.7,93.2,99.7z"/>
<path class="st0" d="M111.4,79c1.8,0,3.5,1.1,4.2,2.8l8.9,21.9h0.4l9-21.9c0.7-1.7,2.4-2.8,4.2-2.8l0,0c2.5,0,4.5,2,4.5,4.5v26.6
	c0,1.6-1.3,3-3,3l0,0c-1.6,0-3-1.3-3-3V89.6h-0.3l-8.6,21.2c-0.5,1.2-1.7,2.1-3,2.1l0,0c-1.3,0-2.5-0.8-3-2.1l-8.6-21.3h-0.3v20.5
	c0,1.6-1.3,3-3,3l0,0c-1.6,0-3-1.3-3-3V83.5C106.8,81,108.8,79,111.4,79L111.4,79L111.4,79z"/>
</svg>
