<?xml version="1.0" encoding="UTF-8"?>
<svg id="Layer_2" data-name="Layer 2" xmlns="http://www.w3.org/2000/svg" viewBox="0 0 192 192">
  <defs>
    <style>
      .cls-1 {
        fill: #464646;
      }

      .cls-1, .cls-2 {
        stroke-width: 0px;
      }

      .cls-2 {
        fill: #307fe2;
      }
    </style>
  </defs>
  <path class="cls-2" d="M181.1,84.82v5.83c-.32,2.45-.97,4.91-1.59,7.07-3.83,10.06-12.15,17.16-22.51,19.59-.13.03-.26.06-.4.09.02-.62.03-1.26.03-1.89v-.06c-.02-24.16-14.15-44.98-34.59-54.7-7.88-3.76-16.72-5.87-26.04-5.87-4.51,0-8.9.5-13.11,1.43-23,5.06-41.12,23.21-46.12,46.24-.91,4.15-1.4,8.47-1.4,12.9v.06c0,.62,0,1.23.03,1.85-10.45-2.39-18.85-9.59-22.69-19.97-2.11-5.5-2.3-11.33-.95-16.81,2.56-10.39,10.71-19.46,22-22.45,3.18-.62,6.69-.92,9.87-1.24,1.27,0,1.27-.6,1.59-1.22,4.48-9.82,11.82-15.95,22.35-18.4,3.83-.92,7.64-1.25,11.47-.62.97.29,1.59,0,1.92-.63,7.01-10.73,16.89-17.48,29.65-19.64,13.09-1.84,24.56,1.24,34.44,9.52,7.04,5.54,11.82,12.91,13.73,21.78.62,3.08.95,6.45.95,9.83.32.91.32,1.24,1.29,1.53,10.23,4.38,16.76,11.45,19.35,21.54.14.57.27,1.16.41,1.78,0,.92.32,1.54.32,2.46h0ZM107.18,105.29v-7.93h0c-6.48-3.74-14.46-3.74-20.95,0h0v7.93c0,6.16,3.28,11.85,8.62,14.92l1.86,1.07,1.86-1.07c5.33-3.08,8.62-8.77,8.62-14.92h-.01Z"/>
  <path class="cls-1" d="M182.91,83.17c-.07-.33-.12-.57-.12-.82,0-.15-.02-.3-.05-.44l-.07-.3c-.12-.53-.23-1.03-.36-1.54-2.7-10.51-9.6-18.21-20.5-22.88-.03-.01-.05-.02-.08-.03-.02-3.36-.36-6.77-.99-9.91-1.96-9.1-6.96-17.03-14.4-22.89-10.19-8.54-22.3-11.89-36.06-9.96-13.03,2.2-23.41,9.03-30.84,20.28-.03-.01-.05-.01-.08-.01-3.82-.62-7.83-.41-12.25.65-10.99,2.56-18.97,9.12-23.67,19.43-.03.05-.06.1-.08.15l-1.18.12c-2.93.28-5.95.58-8.81,1.14-.04.01-.09.02-.13.03-11.57,3.07-20.55,12.23-23.43,23.91-1.5,6.11-1.15,12.33,1.02,17.98,3.85,10.43,12.07,17.95,22.65,20.85.44,8.15,2.41,16.04,5.93,23.44,10.34,21.72,32.55,35.76,56.59,35.76h0c16.4-.01,31.9-6.29,43.65-17.71,11.36-11.04,18.01-25.71,18.87-41.45,10.65-2.84,18.96-10.27,22.87-20.55.02-.05.03-.11.05-.16.62-2.17,1.31-4.75,1.65-7.36.02-.09.02-.17.02-.26v-5.83c0-.67-.11-1.21-.2-1.64ZM136.86,157.57c-11,10.69-25.51,16.57-40.86,16.57-22.5,0-43.29-13.14-52.97-33.48-3.49-7.36-5.38-15.22-5.63-23.36,0,0,0,0,0,0,0,0,0,0,0,0-.03-.6-.03-1.19-.03-1.84,0-4.18.45-8.38,1.35-12.48,4.84-22.26,22.34-39.81,44.6-44.71,4.16-.91,8.42-1.38,12.68-1.38h0c8.81.01,17.28,1.92,25.18,5.69,14.08,6.69,24.71,18.73,29.91,32.98,2.3,6.3,3.54,13.04,3.54,19.95,0,.61-.01,1.23-.03,1.83,0,0,0,0,0,0,0,0,0,.01,0,.02-.46,15.27-6.77,29.56-17.74,40.22ZM179.1,90.52c-.31,2.27-.92,4.59-1.49,6.57-3.32,8.63-10.15,14.99-18.99,17.71,0-.08,0-.15,0-.23,0-.64-.03-1.28-.06-1.91,0-.1-.01-.2-.02-.3-.03-.64-.07-1.28-.12-1.91,0-.1-.02-.2-.03-.29-.06-.64-.12-1.27-.19-1.9-.01-.1-.03-.19-.04-.29-.08-.63-.16-1.26-.26-1.89-.02-.1-.03-.2-.05-.31-.1-.62-.2-1.24-.32-1.85-.02-.11-.04-.21-.06-.32-.12-.61-.25-1.22-.38-1.82-.03-.11-.05-.22-.08-.33-.14-.6-.28-1.19-.44-1.78-.03-.12-.07-.24-.1-.37-.16-.58-.32-1.15-.49-1.73-.04-.13-.08-.26-.12-.39-.17-.56-.35-1.12-.54-1.67-.05-.14-.1-.28-.15-.43-.19-.54-.38-1.08-.58-1.61-.06-.16-.12-.31-.18-.47-.2-.52-.4-1.03-.62-1.54-.07-.17-.15-.34-.22-.5-.21-.49-.43-.99-.65-1.47-.08-.18-.18-.37-.26-.55-.22-.47-.44-.93-.67-1.39-.1-.2-.21-.4-.31-.6-.23-.44-.46-.88-.69-1.32-.11-.21-.24-.42-.35-.63-.23-.42-.47-.84-.71-1.25-.13-.23-.27-.45-.41-.67-.24-.39-.47-.78-.72-1.17-.15-.24-.31-.47-.46-.71-.24-.37-.48-.74-.73-1.1-.17-.25-.35-.49-.52-.73-.24-.34-.49-.69-.74-1.03-.19-.25-.38-.5-.57-.75-.25-.32-.49-.65-.74-.97-.21-.26-.42-.52-.64-.78-.25-.3-.49-.6-.74-.9-.23-.27-.46-.53-.69-.79-.25-.28-.49-.57-.74-.84-.24-.27-.5-.53-.74-.79-.25-.26-.49-.53-.75-.79-.26-.27-.53-.53-.8-.8-.25-.25-.49-.49-.75-.74-.28-.27-.57-.53-.86-.8-.25-.23-.49-.46-.74-.68-.3-.27-.61-.52-.91-.78-.25-.21-.5-.43-.75-.64-.31-.26-.64-.51-.96-.77-.25-.2-.5-.41-.75-.6-.33-.26-.67-.5-1.01-.75-.25-.19-.5-.38-.75-.56-.35-.25-.7-.49-1.06-.73-.25-.17-.5-.35-.75-.52-.36-.24-.73-.47-1.1-.71-.25-.16-.5-.33-.76-.49-.37-.23-.75-.45-1.13-.67-.26-.15-.52-.31-.78-.46-.42-.24-.85-.47-1.28-.7-.23-.12-.45-.25-.67-.37-.66-.34-1.33-.68-2-1-8.43-4.03-17.48-6.07-26.9-6.07-4.55,0-9.11.5-13.54,1.48-23.77,5.23-42.48,23.98-47.64,47.76-.91,4.14-1.38,8.37-1.43,12.65-8.76-2.77-15.53-9.23-18.8-18.06-1.89-4.91-2.19-10.31-.88-15.62,2.53-10.24,10.38-18.27,20.51-20.98,2.66-.52,5.56-.8,8.37-1.08l1.16-.12c2.28-.05,2.92-1.55,3.17-2.12.03-.06.06-.12.13-.27,4.26-9.34,11.12-14.99,21-17.29,3.86-.93,7.32-1.13,10.57-.61,1.73.46,3.27-.13,4.07-1.56,6.8-10.39,16.31-16.68,28.21-18.69,12.7-1.79,23.46,1.18,32.92,9.11,6.85,5.38,11.23,12.33,13.01,20.6.6,2.95.91,6.22.91,9.43,0,.22.04.45.11.66l.09.26c.34,1.02.78,1.97,2.39,2.49,9.78,4.22,15.71,10.81,18.1,20.14.11.46.22.94.33,1.44l.02.11c.03.55.12,1.01.2,1.39.07.33.12.57.12.82v5.7ZM96.7,123.29c-.35,0-.69-.09-1-.27l-1.86-1.07c-5.93-3.42-9.62-9.81-9.62-16.66v-7.93c0-.71.38-1.37,1-1.73,7.08-4.09,15.87-4.09,22.95,0,.62.36,1,1.02,1,1.73v7.93c0,6.85-3.68,13.23-9.62,16.66l-1.86,1.07c-.31.18-.65.27-1,.27h.01ZM88.23,98.56v6.74c0,5.42,2.92,10.48,7.62,13.19l.86.49.86-.49c4.7-2.71,7.62-7.77,7.62-13.19v-6.74c-5.32-2.66-11.63-2.66-16.95,0h-.01ZM140.77,137.91l-9.21-11.17v-36.64c0-2.61-2.12-4.73-4.73-4.73h-61.52c-2.61,0-4.73,2.12-4.73,4.73v36.57l-9.27,11.24c-1.18,1.42-1.41,3.35-.63,5.02.78,1.67,2.42,2.71,4.27,2.71h82.18c1.84,0,3.48-1.04,4.27-2.71.79-1.67.55-3.59-.63-5.02ZM64.58,90.1c0-.4.33-.73.73-.73h61.52c.4,0,.73.33.73.73v35.31h-62.98v-35.31ZM137.78,141.22c-.08.16-.26.42-.66.42H54.95c-.4,0-.59-.26-.66-.42-.07-.15-.15-.46.1-.77l9.1-11.03h65.09l9.1,11.03c.26.31.17.61.1.77Z"/>
</svg>
