<?xml version="1.0" encoding="UTF-8"?><svg id="Security_Networking" xmlns="http://www.w3.org/2000/svg" viewBox="0 0 192 192"><defs><style>.cls-1{fill:#464646;}.cls-2{fill:#307fe2;}</style></defs><path class="cls-2" d="m181.02,79.06v5.83c-.32,2.45-.97,4.91-1.59,7.07-3.83,10.06-12.15,17.16-22.51,19.59-2.59.62-5.31.94-8.12.94h-.16c.36-2.23.58-4.51.65-6.83.02-.54.03-1.1.03-1.66v-.05c-.02-21.28-12.46-39.62-30.46-48.18-6.95-3.31-14.73-5.17-22.94-5.17-3.97,0-7.84.44-11.55,1.26-20.25,4.46-36.21,20.44-40.62,40.73-.8,3.65-1.23,7.46-1.23,11.36v.05c0,.55.01,1.08.03,1.63.07,2.33.29,4.62.65,6.86-2.69,0-5.27-.29-7.77-.86-10.5-2.37-18.95-9.58-22.8-20-2.11-5.5-2.3-11.33-.95-16.81,2.56-10.39,10.71-19.46,22-22.45,3.18-.62,6.69-.92,9.87-1.24,1.27,0,1.27-.6,1.59-1.22,4.48-9.82,11.82-15.95,22.35-18.4,3.83-.92,7.64-1.25,11.47-.62.97.29,1.59,0,1.92-.63,7.01-10.73,16.89-17.48,29.65-19.64,13.09-1.84,24.56,1.24,34.44,9.52,7.04,5.54,11.82,12.91,13.73,21.78.62,3.08.95,6.45.95,9.83.32.91.32,1.24,1.29,1.53,10.23,4.38,16.76,11.45,19.35,21.54.14.57.27,1.16.41,1.78,0,.92.32,1.54.32,2.46Z"/><path class="cls-1" d="m148.8,114.49h-.16c-.59,0-1.14-.26-1.52-.7-.38-.45-.55-1.04-.45-1.62.35-2.16.56-4.37.63-6.57.02-.53.03-1.06.03-1.6-.02-19.76-11.53-37.96-29.32-46.42-6.93-3.3-14.36-4.98-22.08-4.98-3.74,0-7.48.41-11.12,1.21-19.51,4.3-34.86,19.68-39.1,39.2-.79,3.59-1.18,7.27-1.18,10.94,0,.58,0,1.08.03,1.61.07,2.23.28,4.45.63,6.61.09.58-.07,1.17-.45,1.61-.38.45-.94.7-1.52.7-2.8,0-5.57-.31-8.21-.91-11.35-2.56-20.19-10.31-24.23-21.26-2.17-5.65-2.52-11.87-1.02-17.98,2.88-11.68,11.86-20.84,23.43-23.9.04-.01.09-.02.13-.03,2.86-.56,5.89-.86,8.81-1.14l1.18-.12c.02-.05.05-.1.08-.15,4.7-10.3,12.68-16.87,23.67-19.43,4.42-1.06,8.43-1.27,12.25-.65.03,0,.05,0,.08.01,7.43-11.25,17.81-18.08,30.84-20.28,13.76-1.93,25.87,1.42,36.06,9.96,7.44,5.86,12.44,13.79,14.4,22.89.63,3.14.97,6.55.99,9.91.03.01.05.02.08.03,10.9,4.67,17.8,12.37,20.5,22.88.12.49.23.98.34,1.49l.08.35c.03.14.05.29.05.44,0,.25.05.49.12.82.09.43.2.97.2,1.64v5.83c0,.09,0,.17-.02.26-.34,2.6-1.02,5.18-1.65,7.36-.02.05-.03.11-.05.16-4.04,10.62-12.76,18.21-23.92,20.83-2.75.66-5.64.99-8.58.99Zm-52.88-65.89c8.32,0,16.33,1.8,23.8,5.36,19.18,9.12,31.58,28.74,31.6,49.98,0,.64-.01,1.22-.03,1.79-.05,1.56-.16,3.13-.34,4.69,1.88-.12,3.73-.39,5.51-.82,9.83-2.3,17.5-8.96,21.08-18.28.57-1.98,1.18-4.3,1.49-6.57v-5.7c0-.25-.05-.49-.12-.82-.08-.38-.17-.84-.2-1.39l-.04-.16c-.11-.48-.21-.94-.32-1.39-2.39-9.33-8.32-15.92-18.1-20.14-1.61-.52-2.05-1.47-2.39-2.48l-.09-.26c-.08-.21-.11-.44-.11-.66,0-3.21-.31-6.47-.91-9.44-1.78-8.27-6.16-15.21-13.01-20.6-9.46-7.93-20.22-10.9-32.92-9.11-11.9,2.01-21.41,8.3-28.21,18.69-.8,1.43-2.34,2.02-4.07,1.56-3.25-.52-6.71-.32-10.57.61-9.88,2.3-16.74,7.95-21,17.29-.08.15-.1.21-.13.27-.25.57-.89,2.07-3.17,2.12l-1.16.11c-2.81.28-5.71.56-8.37,1.08-10.13,2.71-17.98,10.74-20.51,20.98-1.31,5.31-1.01,10.71.88,15.62,3.57,9.67,11.36,16.51,21.37,18.77,1.63.37,3.31.62,5.02.73-.18-1.56-.3-3.14-.34-4.72-.02-.56-.03-1.12-.03-1.69,0-4.01.43-7.97,1.28-11.84,4.57-21.04,21.11-37.62,42.14-42.26,3.92-.87,7.95-1.31,11.98-1.31Zm85.1,36.29h.01-.01Z"/><path class="cls-1" d="m101.61,147.99h-11.39c-.84,0-1.6-.53-1.88-1.32-.17-.47-.32-.92-.47-1.37l-.32-.96c-1.53-4.67-2.27-6.61-5.09-7.77-2.92-1.22-4.95-.34-9.26,1.78-.71.35-1.45.71-2.24,1.08-.76.36-1.67.2-2.27-.4l-7.98-7.99c-.6-.6-.75-1.51-.39-2.28.39-.82.78-1.59,1.15-2.32.49-.97.95-1.89,1.32-2.73.5-1.12.8-2.02.94-2.83.19-1.15.05-2.22-.46-3.43-1.13-2.74-3.12-3.53-7.51-5.05l-1.25-.44c-.44-.14-.92-.31-1.42-.51-.77-.3-1.27-1.04-1.27-1.86v-11.26c0-.84.52-1.59,1.31-1.88l.17-.07c.13-.05.26-.1.4-.15.68-.24,1.34-.46,1.96-.67,1.72-.58,3.2-1.08,4.38-1.67.18-.09.33-.18.49-.28,1.38-.8,2.18-1.72,2.73-3.11,1.19-2.82.34-4.75-1.53-8.51-.45-.87-.93-1.84-1.41-2.87-.35-.75-.2-1.64.37-2.24.48-.5.96-.98,1.41-1.43.08-.08.14-.13.19-.18.02-.03.05-.05.08-.08l.15-.15c.12-.12.19-.2.27-.27l.34-.34c.38-.38.73-.73,1.07-1.06l.47-.48c.08-.08.15-.15.23-.23.03-.04.07-.07.1-.1.04-.05.1-.1.14-.14l.23-.22c.11-.1.2-.19.27-.27.05-.05.1-.11.15-.15.09-.08.15-.13.21-.2.06-.06.11-.13.18-.18.16-.14.29-.28.42-.4l.1-.1c.09-.1.17-.18.22-.22l.08-.08s.07-.08.11-.11l.12-.11,1.37-1.37c.57-.67,1.63-.9,2.44-.5.13.06.26.12.38.18l1.48.72c1.32.65,2.46,1.21,3.52,1.66,1.28.53,2.27.8,3.18.85.25.02.43.02.63,0,.15,0,.27,0,.39-.03.66-.07,1.24-.23,1.84-.48,1.91-.82,2.95-2.02,3.97-4.59.1-.26.2-.5.29-.76l.32-.86c.13-.41.29-.87.45-1.34l.06-.18c.03-.11.07-.22.1-.32.04-.14.11-.35.19-.57l.18-.53c.11-.34.23-.68.36-1.01.3-.76,1.04-1.26,1.86-1.26h11.39c.84,0,1.59.52,1.88,1.31.11.29.21.59.31.89l.23.67c.05.16.11.33.17.49l.37,1.09c.1.29.19.57.28.85.08.23.17.49.27.74.1.27.19.5.29.74,1.04,2.62,2.09,3.83,4.01,4.65.75.31,1.47.47,2.15.49.27.02.49,0,.7,0,1.83-.12,3.85-1.11,6.41-2.38.45-.22.93-.46,1.41-.69l.35-.16c.13-.06.25-.12.38-.18.75-.37,1.71-.22,2.31.37l1.27,1.28c.05.05.11.1.17.16.01.01.02.02.03.03.09.08.17.15.24.23l.11.11s.02.02.04.04c.06.06.12.11.17.18l.08.09c.18.18.36.35.53.53l.33.32c.12.11.27.26.4.41.06.06.12.11.17.17l.27.27s.09.08.14.12c.06.05.13.12.18.18.03.03.06.06.09.09.03.02.05.05.08.07.12.12.22.22.31.33l.09.09c.5.49.92.9,1.27,1.26l.36.36c.11.1.2.19.28.27l1.39,1.39c.6.6.76,1.51.39,2.28-.31.65-.62,1.27-.92,1.87l-.48.98c-1.89,3.77-2.74,5.7-1.56,8.48.57,1.43,1.36,2.35,2.67,3.1.03.02.06.04.09.05.15.1.31.19.48.27,1.2.6,2.71,1.11,4.46,1.7.6.2,1.23.41,1.88.64.01,0,.02,0,.03.01l.12.04c.15.06.31.11.47.18.76.3,1.26,1.04,1.26,1.86v11.26c0,.82-.5,1.56-1.27,1.86-.5.2-.98.36-1.46.52l-1.19.42c-4.4,1.53-6.4,2.31-7.52,5.04-1.21,2.87-.32,4.84,1.81,9.04.36.72.75,1.47,1.14,2.28.37.77.22,1.68-.39,2.29l-8,7.99c-.6.6-1.5.75-2.27.39-.78-.37-1.51-.73-2.21-1.07-4.33-2.12-6.36-3.01-9.27-1.8-2.83,1.16-3.57,3.09-5.1,7.73l-.33,1.01c-.11.4-.28.88-.46,1.37-.29.79-1.04,1.32-1.88,1.32Zm-9.96-4h8.52l.32-.96c1.53-4.62,2.73-8.27,7.37-10.17,4.69-1.96,8.17-.26,12.56,1.9.29.14.58.29.88.43l5.98-5.97c-.16-.32-.32-.64-.48-.94-2.1-4.14-3.91-7.71-1.94-12.39,1.85-4.49,5.4-5.72,9.9-7.28l1.21-.42s.01,0,.02,0v-8.44c-.35-.12-.7-.24-1.04-.35-1.9-.64-3.53-1.19-4.98-1.92-.28-.14-.56-.3-.82-.46-2.06-1.21-3.44-2.8-4.32-5.02-1.94-4.56-.18-8.06,1.68-11.78l.49-.98c.09-.18.18-.36.27-.54l-.41-.41s-.05-.05-.07-.07l-.57-.55c-.35-.36-.75-.75-1.23-1.22l-.17-.16c-.06-.06-.12-.12-.17-.19-.01-.01-.03-.03-.05-.05-.1-.09-.19-.18-.27-.27-.09-.08-.16-.15-.25-.23l-.33-.33c-.05-.05-.12-.12-.17-.17-.09-.1-.19-.21-.3-.31l-.42-.41c-.17-.18-.31-.32-.45-.45-.03-.03-.05-.05-.08-.08l-.14-.15c-.05-.05-.1-.09-.14-.14l-.1-.1s-.05-.05-.07-.07c-.05-.04-.12-.1-.18-.17-.07-.05-.1-.09-.16-.15l-.26-.27c-.29.14-.58.29-.86.43-2.96,1.46-5.3,2.62-7.94,2.79-.44.03-.79.03-1.13,0-1.1-.03-2.27-.29-3.51-.8-3.67-1.58-5.13-4.2-6.17-6.81-.11-.25-.22-.55-.34-.86-.11-.28-.22-.59-.33-.92-.09-.28-.18-.54-.26-.8l-.34-1.02c-.07-.18-.13-.38-.2-.58l-.04-.12h-8.54l-.03.08c-.06.18-.12.36-.18.53l-.08.24c-.03.11-.07.22-.1.32-.15.44-.3.89-.44,1.31l-.34.92c-.11.31-.22.59-.34.88-1.03,2.6-2.49,5.22-6.13,6.79-.98.41-1.92.65-2.89.76-.17.03-.43.04-.69.06-.41.02-.78.02-1.16-.02-1.31-.08-2.69-.44-4.41-1.15-1.18-.5-2.43-1.12-3.75-1.77l-.59-.29-.39.39c-.09.1-.18.18-.29.28l-.07.08s-.07.07-.12.12c-.02.03-.05.05-.08.08l-.15.15c-.16.16-.32.32-.5.48-.11.12-.23.23-.35.35-.14.16-.3.32-.47.47l-.16.16s-.08.08-.12.13c-.05.06-.14.15-.2.2-.05.04-.09.09-.14.13l-.48.49c-.37.36-.7.69-1.06,1.05l-.38.38s-.06.06-.09.08l-.27.27c-.07.08-.15.15-.23.23-.15.15-.3.3-.45.45.26.53.51,1.03.76,1.52,1.86,3.73,3.61,7.23,1.66,11.83-.87,2.19-2.26,3.79-4.35,5-.28.17-.52.31-.78.44-1.42.72-3.03,1.26-4.89,1.89-.36.12-.73.25-1.12.38v8.44l1.25.44c4.49,1.56,8.04,2.79,9.9,7.29.81,1.91,1.04,3.72.71,5.65-.21,1.16-.59,2.35-1.23,3.77-.41.93-.9,1.9-1.41,2.92-.16.32-.32.64-.49.98l5.97,5.97c.31-.15.62-.3.92-.45,4.38-2.15,7.85-3.84,12.55-1.88,4.63,1.9,5.84,5.57,7.37,10.21l.3.91Z"/><polygon class="cls-2" points="96.94 99.81 101.78 80.11 78.62 108.21 94.88 108.21 94.88 108.21 90.05 127.91 113.21 99.81 96.94 99.81 96.94 99.81"/><path class="cls-1" d="m90.05,129.91c-.3,0-.61-.07-.9-.21-.83-.42-1.27-1.36-1.05-2.26l4.23-17.23h-13.71c-.77,0-1.48-.45-1.81-1.15s-.23-1.53.27-2.13l23.15-28.1c.59-.72,1.61-.93,2.44-.52.83.42,1.27,1.36,1.05,2.26l-4.23,17.23h13.71c.77,0,1.48.45,1.81,1.15s.23,1.53-.27,2.13l-23.16,28.1c-.39.47-.96.73-1.54.73Zm-7.18-23.7h12.02c.18,0,.35.02.52.07,1.05.28,1.68,1.35,1.42,2.41l-2.75,11.19,14.89-18.06h-12.02c-.15,0-.3-.02-.45-.05-.52-.12-.97-.45-1.26-.9s-.37-1.01-.24-1.53l2.75-11.19-14.88,18.06Z"/><rect class="cls-2" x="21.99" y="168" width="148.08" height="14.16"/><path class="cls-1" d="m170.07,184.16H21.99c-1.1,0-2-.9-2-2v-14.16c0-1.1.9-2,2-2h148.08c1.1,0,2,.9,2,2v14.16c0,1.1-.9,2-2,2Zm-146.08-4h144.08v-10.16H23.99v10.16Z"/><path class="cls-1" d="m32,184.16c-1.1,0-2-.9-2-2v-14.16c0-1.1.9-2,2-2s2,.9,2,2v14.16c0,1.1-.9,2-2,2Z"/><path class="cls-1" d="m42.65,184.16c-1.1,0-2-.9-2-2v-14.16c0-1.1.9-2,2-2s2,.9,2,2v14.16c0,1.1-.9,2-2,2Z"/><path class="cls-1" d="m53.31,184.16c-1.1,0-2-.9-2-2v-14.16c0-1.1.9-2,2-2s2,.9,2,2v14.16c0,1.1-.9,2-2,2Z"/><path class="cls-1" d="m63.96,184.16c-1.1,0-2-.9-2-2v-14.16c0-1.1.9-2,2-2s2,.9,2,2v14.16c0,1.1-.9,2-2,2Z"/><path class="cls-1" d="m74.61,184.16c-1.1,0-2-.9-2-2v-14.16c0-1.1.9-2,2-2s2,.9,2,2v14.16c0,1.1-.9,2-2,2Z"/><path class="cls-1" d="m85.27,184.16c-1.1,0-2-.9-2-2v-14.16c0-1.1.9-2,2-2s2,.9,2,2v14.16c0,1.1-.9,2-2,2Z"/><path class="cls-1" d="m95.92,184.16c-1.1,0-2-.9-2-2v-14.16c0-1.1.9-2,2-2s2,.9,2,2v14.16c0,1.1-.9,2-2,2Z"/><path class="cls-1" d="m106.57,184.16c-1.1,0-2-.9-2-2v-14.16c0-1.1.9-2,2-2s2,.9,2,2v14.16c0,1.1-.9,2-2,2Z"/><path class="cls-1" d="m117.22,184.16c-1.1,0-2-.9-2-2v-14.16c0-1.1.9-2,2-2s2,.9,2,2v14.16c0,1.1-.9,2-2,2Z"/><path class="cls-1" d="m127.88,184.16c-1.1,0-2-.9-2-2v-14.16c0-1.1.9-2,2-2s2,.9,2,2v14.16c0,1.1-.9,2-2,2Z"/><path class="cls-1" d="m138.53,184.16c-1.1,0-2-.9-2-2v-14.16c0-1.1.9-2,2-2s2,.9,2,2v14.16c0,1.1-.9,2-2,2Z"/><path class="cls-1" d="m149.18,184.16c-1.1,0-2-.9-2-2v-14.16c0-1.1.9-2,2-2s2,.9,2,2v14.16c0,1.1-.9,2-2,2Z"/><path class="cls-1" d="m159.84,184.16c-1.1,0-2-.9-2-2v-14.16c0-1.1.9-2,2-2s2,.9,2,2v14.16c0,1.1-.9,2-2,2Z"/><path class="cls-1" d="m95.92,159.39c-21.26,0-40.91-12.42-50.06-31.63-2.26-4.77-3.82-9.8-4.64-14.95-.38-2.33-.6-4.73-.67-7.11-.02-.56-.03-1.12-.03-1.69,0-4.01.43-7.97,1.28-11.84,4.57-21.04,21.11-37.62,42.14-42.26,3.92-.87,7.95-1.31,11.98-1.31,8.32,0,16.33,1.8,23.8,5.36,19.18,9.12,31.58,28.74,31.6,49.98h0v.05c0,.59-.01,1.17-.03,1.73-.07,2.36-.3,4.74-.67,7.07-4.3,26.99-27.31,46.58-54.69,46.58Zm0-106.79c-3.74,0-7.48.41-11.12,1.21-19.51,4.3-34.86,19.68-39.1,39.2-.79,3.59-1.18,7.27-1.18,10.94,0,.58,0,1.08.03,1.61.07,2.23.28,4.45.63,6.61.76,4.78,2.21,9.45,4.3,13.87,8.48,17.83,26.71,29.35,46.44,29.35,25.41,0,46.75-18.17,50.75-43.22.35-2.16.56-4.37.63-6.57.02-.53.03-1.06.03-1.6l2-.05h-2c-.02-19.71-11.53-37.91-29.32-46.37-6.93-3.3-14.36-4.98-22.08-4.98Z"/></svg>
