<?xml version="1.0" encoding="UTF-8"?><svg id="Security_Networking" xmlns="http://www.w3.org/2000/svg" viewBox="0 0 192 192"><defs><style>.cls-1{fill:#da291c;}.cls-1,.cls-2,.cls-3{stroke:#464646;stroke-width:4px;}.cls-1,.cls-3{stroke-linecap:round;stroke-linejoin:round;}.cls-2{stroke-miterlimit:10;}.cls-2,.cls-3{fill:none;}.cls-4{fill:#fff;stroke-width:0px;}</style></defs><path class="cls-4" d="M115.59,148.77s11.66-9.35-2.2-22.11c0,0,2.42,5.83-2.64,11.88,0,0,0-3.3-2.75-5.28-.33,3.63-2.97,5.17-3.08,8.47-.11,4.4,3.3,6.82,3.3,6.82,0,0-9.46-2.31-8.03-12.21,1.32-7.7,9.57-11.99,9.35-21.78,0,0,11.33,8.47,14.3,20.02,2.42,11.77-8.25,14.19-8.25,14.19Z"/><g id="FortiLink"><path class="cls-3" d="M145.26,106.37c0,9.8-3.79,18.99-10.68,25.88l-35,34.99c-7.13,7.13-16.5,10.7-25.87,10.7s-18.74-3.57-25.87-10.7c-7.13-7.13-10.71-16.49-10.71-25.87s3.58-18.74,10.71-25.88l6.45-6.45c.69.83,1.44,1.64,2.2,2.41,2.03,2.03,4.22,3.75,6.53,5.19l-7.02,7.03c-9.77,9.75-9.77,25.64,0,35.4,4.88,4.88,11.29,7.32,17.69,7.32s12.83-2.44,17.71-7.32l34.99-34.99c4.7-4.7,7.3-11,7.3-17.71,0-5.6-1.8-10.91-5.14-15.24-.66-.86-1.37-1.67-2.16-2.45-2.03-2.03-4.35-3.66-6.88-4.87-3.32-1.59-7-2.43-10.82-2.43-6.71,0-13,2.58-17.7,7.3l-19.46,19.46c-2.49-1.19-4.82-2.8-6.88-4.87-.79-.78-1.51-1.59-2.15-2.45l20.32-20.32c6.89-6.89,16.07-10.68,25.87-10.68,6.96,0,13.6,1.91,19.32,5.49,2.36,1.46,4.55,3.19,6.55,5.19.76.77,1.51,1.58,2.2,2.41,5.49,6.54,8.48,14.76,8.48,23.46Z"/><path class="cls-2" d="M153.92,50.58c0,9.8-3.79,18.99-10.68,25.88l-6.45,6.45c-.69-.83-1.44-1.64-2.2-2.41-2.01-2-4.2-3.73-6.55-5.19l7.03-7.03c4.71-4.69,7.3-10.98,7.3-17.7s-2.58-13-7.3-17.7c-4.69-4.7-10.98-7.29-17.69-7.29s-13.01,2.58-17.71,7.29l-34.99,34.99c-8.97,8.98-9.7,23.15-2.15,32.95.64.86,1.37,1.67,2.15,2.45,2.06,2.07,4.38,3.68,6.88,4.87,9.3,4.47,20.82,2.83,28.52-4.87l19.46-19.46c2.52,1.21,4.85,2.84,6.88,4.87.79.78,1.5,1.59,2.16,2.45l-20.32,20.32c-7.13,7.13-16.5,10.7-25.88,10.7-6.72,0-13.44-1.83-19.33-5.51-2.32-1.44-4.51-3.16-6.53-5.19-.77-.76-1.51-1.58-2.2-2.41-2.39-2.85-4.31-6.04-5.72-9.43-1.82-4.38-2.76-9.14-2.76-14.03,0-9.8,3.79-18.99,10.68-25.88l34.99-34.99c6.89-6.89,16.08-10.68,25.88-10.68s18.97,3.79,25.87,10.68c6.89,6.89,10.68,16.07,10.68,25.87Z"/></g><circle class="cls-1" cx="138.76" cy="38.09" r="8.27"/><circle class="cls-1" cx="113.95" cy="153.88" r="8.27"/><circle class="cls-1" cx="46.39" cy="75.92" r="8.27"/></svg>
