<?xml version="1.0" encoding="utf-8"?>
<!-- Generator: Adobe Illustrator 27.7.0, SVG Export Plug-In . SVG Version: 6.00 Build 0)  -->
<svg version="1.1" id="Security_Networking" xmlns="http://www.w3.org/2000/svg" xmlns:xlink="http://www.w3.org/1999/xlink"
	 x="0px" y="0px" viewBox="0 0 192 192" style="enable-background:new 0 0 192 192;" xml:space="preserve">
<style type="text/css">
	.st0{fill:#FFFFFF;}
</style>
<g id="FortiWLM">
	<path class="st0" d="M148.1,180.1H43.9c-6.4,0-11.6-5.2-11.6-11.6V35.6c0-6.4,5.2-11.6,11.6-11.6h104.2c6.4,0,11.6,5.2,11.6,11.6
		v132.8C159.7,174.9,154.5,180.1,148.1,180.1L148.1,180.1z M43.9,28c-4.2,0-7.6,3.4-7.6,7.6v132.8c0,4.2,3.4,7.6,7.6,7.6h104.2
		c4.2,0,7.6-3.4,7.6-7.6V35.6c0-4.2-3.4-7.6-7.6-7.6C148.1,28,43.9,28,43.9,28z"/>
	<path class="st0" d="M107.9,27.9H84.1c-1.1,0-2-0.9-2-2C82.1,18.2,88.3,12,96,12s13.9,6.2,13.9,13.9C109.9,27,109,27.9,107.9,27.9z
		 M86.3,23.9h19.5c-0.9-4.5-4.9-7.9-9.7-7.9S87.2,19.4,86.3,23.9L86.3,23.9z"/>
	<path class="st0" d="M124.9,48.9H67.1c-0.8,0-1.5-0.5-1.8-1.2l-9.7-21c-0.3-0.6-0.2-1.3,0.1-1.9s1-0.9,1.7-0.9h77.1
		c0.7,0,1.3,0.4,1.7,0.9s0.4,1.3,0.1,1.9l-9.7,21C126.4,48.4,125.7,48.9,124.9,48.9L124.9,48.9z M68.4,44.9h55.3l7.8-17H60.5
		L68.4,44.9z"/>
</g>
<path class="st0" d="M142.3,69.5H49.7c-1.1,0-2-0.9-2-2s0.9-2,2-2h92.6c1.1,0,2,0.9,2,2S143.4,69.5,142.3,69.5L142.3,69.5z"/>
<path class="st0" d="M142.3,85.1H49.7c-1.1,0-2-0.9-2-2s0.9-2,2-2h92.6c1.1,0,2,0.9,2,2S143.4,85.1,142.3,85.1L142.3,85.1z"/>
<path class="st0" d="M142.3,100.6H49.7c-1.1,0-2-0.9-2-2s0.9-2,2-2h92.6c1.1,0,2,0.9,2,2S143.4,100.6,142.3,100.6L142.3,100.6z"/>
<path class="st0" d="M142.3,116.1H49.7c-1.1,0-2-0.9-2-2s0.9-2,2-2h92.6c1.1,0,2,0.9,2,2S143.4,116.1,142.3,116.1L142.3,116.1z"/>
<path class="st0" d="M142.3,131.7H49.7c-1.1,0-2-0.9-2-2s0.9-2,2-2h92.6c1.1,0,2,0.9,2,2S143.4,131.7,142.3,131.7L142.3,131.7z"/>
<path class="st0" d="M94,147.2H49.7c-1.1,0-2-0.9-2-2s0.9-2,2-2H94c1.1,0,2,0.9,2,2S95.1,147.2,94,147.2z"/>
</svg>
