<?xml version="1.0" encoding="UTF-8"?>
<svg id="Security_Networking" data-name="Security Networking" xmlns="http://www.w3.org/2000/svg" viewBox="0 0 192 192">
  <defs>
    <style>
      .cls-1 {
        fill: #464646;
      }

      .cls-1, .cls-2 {
        stroke-width: 0px;
      }

      .cls-2 {
        fill: #2cccd3;
      }
    </style>
  </defs>
  <g>
    <path class="cls-2" d="M179.87,84.8v5.83c-.32,2.45-.97,4.91-1.59,7.07-3.83,10.06-12.15,17.16-22.51,19.59-.13.03-.26.06-.4.09.02-.62.03-1.26.03-1.89v-.06c-.02-24.16-14.15-44.98-34.59-54.7-7.88-3.76-16.72-5.87-26.04-5.87-4.51,0-8.9.5-13.11,1.43-23,5.06-41.12,23.21-46.12,46.24-.91,4.15-1.4,8.47-1.4,12.9v.06c0,.62,0,1.23.03,1.85-10.45-2.39-18.85-9.59-22.69-19.97-2.11-5.5-2.3-11.33-.95-16.81,2.56-10.39,10.71-19.46,22-22.45,3.18-.62,6.69-.92,9.87-1.24,1.27,0,1.27-.6,1.59-1.22,4.48-9.82,11.82-15.95,22.35-18.4,3.83-.92,7.64-1.25,11.47-.62.97.29,1.59,0,1.92-.63,7.01-10.73,16.89-17.48,29.65-19.64,13.09-1.84,24.56,1.24,34.44,9.52,7.04,5.54,11.82,12.91,13.73,21.78.62,3.08.95,6.45.95,9.83.32.91.32,1.24,1.29,1.53,10.23,4.38,16.76,11.45,19.35,21.54.14.57.27,1.16.41,1.78,0,.92.32,1.54.32,2.46Z"/>
    <path class="cls-1" d="M155.37,119.38c-.46,0-.92-.16-1.28-.47-.47-.39-.74-.98-.72-1.6.02-.6.03-1.22.03-1.83-.02-22.54-13.15-43.3-33.45-52.95-7.9-3.77-16.37-5.68-25.18-5.68-4.26,0-8.52.47-12.68,1.38-22.26,4.9-39.76,22.45-44.6,44.71-.9,4.1-1.35,8.3-1.35,12.48,0,.66,0,1.25.03,1.85.02.62-.25,1.21-.73,1.61-.48.39-1.11.54-1.72.41-11.29-2.58-20.09-10.32-24.12-21.23-2.17-5.65-2.52-11.87-1.02-17.98,2.88-11.68,11.86-20.84,23.43-23.91.04-.01.09-.02.13-.03,2.86-.56,5.88-.86,8.81-1.14l1.18-.12c.02-.05.05-.1.08-.15,4.7-10.31,12.68-16.87,23.67-19.43,4.42-1.06,8.43-1.27,12.25-.65.03,0,.05,0,.08.01,7.43-11.25,17.81-18.08,30.84-20.28,13.76-1.93,25.87,1.42,36.06,9.96,7.44,5.86,12.44,13.79,14.4,22.89.63,3.14.97,6.55.99,9.91.03.01.05.02.08.03,10.9,4.67,17.8,12.37,20.5,22.88.13.51.24,1.01.36,1.54l.07.3c.03.14.05.29.05.44,0,.25.05.49.12.82.09.43.2.97.2,1.64v5.83c0,.09,0,.17-.02.26-.34,2.61-1.03,5.19-1.65,7.36-.02.05-.03.11-.05.16-4.04,10.62-12.76,18.21-23.92,20.83l-.44.1c-.14.03-.28.04-.42.04ZM94.77,52.86c9.42,0,18.47,2.04,26.9,6.07,21.49,10.22,35.45,32.09,35.72,55.85,8.84-2.72,15.67-9.08,18.99-17.71.57-1.98,1.18-4.3,1.49-6.57v-5.7c0-.25-.05-.49-.12-.82-.08-.38-.17-.84-.2-1.39l-.02-.11c-.11-.5-.22-.98-.33-1.44-2.39-9.33-8.32-15.92-18.1-20.14-1.61-.52-2.05-1.47-2.39-2.49l-.09-.26c-.07-.21-.11-.44-.11-.66,0-3.21-.31-6.48-.91-9.43-1.78-8.27-6.16-15.22-13.01-20.6-9.46-7.93-20.22-10.9-32.92-9.11-11.9,2.01-21.41,8.3-28.21,18.69-.8,1.43-2.34,2.02-4.07,1.56-3.25-.52-6.71-.32-10.57.61-9.88,2.3-16.74,7.95-21,17.29-.07.15-.1.21-.13.27-.25.57-.89,2.07-3.17,2.12l-1.16.12c-2.81.28-5.71.56-8.37,1.08-10.13,2.71-17.98,10.74-20.51,20.98-1.31,5.31-1.01,10.71.88,15.62,3.27,8.83,10.04,15.29,18.8,18.06.05-4.27.54-8.49,1.44-12.62,5.16-23.78,23.87-42.53,47.64-47.76,4.43-.98,8.99-1.48,13.54-1.48ZM179.87,90.63h.01-.01Z"/>
  </g>
  <path class="cls-1" d="M94.77,178.11c-24.04,0-46.25-14.04-56.59-35.76-3.73-7.86-5.75-16.26-6.01-24.95-.02-.64-.03-1.27-.03-1.91,0-4.53.49-9.01,1.45-13.39,5.16-23.78,23.87-42.53,47.64-47.76,4.43-.98,8.99-1.48,13.54-1.48,9.42,0,18.47,2.04,26.9,6.07,21.68,10.31,35.71,32.49,35.73,56.5h0v.06c0,.65-.01,1.31-.03,1.95-.5,16.31-7.23,31.57-18.95,42.96-11.75,11.42-27.25,17.7-43.65,17.7ZM94.77,56.86c-4.26,0-8.52.47-12.68,1.38-22.26,4.9-39.76,22.45-44.6,44.71-.9,4.1-1.35,8.3-1.35,12.48,0,.66,0,1.25.03,1.85.25,8.14,2.14,16,5.63,23.36,9.68,20.34,30.47,33.48,52.97,33.48,15.35,0,29.86-5.88,40.86-16.57,10.97-10.66,17.28-24.95,17.74-40.22.02-.6.03-1.22.03-1.83l2-.06h-2c-.02-22.48-13.15-43.24-33.45-52.89-7.9-3.77-16.37-5.68-25.18-5.68Z"/>
  <g>
    <g>
      <g>
        <path class="cls-2" d="M87.56,83.33v64.32c0,4.55-3.58,8.24-8,8.24-2.99,0-5.6-1.69-6.96-4.19-1.18.71-2.55,1.11-4.01,1.11-4.42,0-8-3.69-8-8.24,0-.73.09-1.43.26-2.1-3.93-.53-6.95-3.98-6.95-8.16,0-1.56.43-3.03,1.17-4.27-1.85-1.51-3.05-3.85-3.05-6.47,0-2.78,1.34-5.24,3.39-6.73-2.05-1.49-3.39-3.95-3.39-6.73,0-3.35,1.95-6.23,4.73-7.52-1.21-1.44-1.93-3.32-1.93-5.36,0-4.14,2.96-7.56,6.81-8.15-.04-.36-.07-.72-.07-1.09,0-4.55,3.58-8.24,8-8.24.91,0,1.79.15,2.6.45,1.2-3,4.06-5.1,7.4-5.1,4.42,0,8,3.69,8,8.24Z"/>
        <path class="cls-1" d="M79.56,157.88c-2.99,0-5.78-1.37-7.66-3.66-1.06.38-2.18.58-3.32.58-5.51,0-10-4.59-10-10.24,0-.2,0-.4.02-.6-3.93-1.41-6.7-5.25-6.7-9.67,0-1.32.25-2.63.73-3.84-1.68-1.87-2.62-4.32-2.62-6.9s.9-4.88,2.47-6.73c-1.57-1.84-2.47-4.23-2.47-6.73,0-3.23,1.49-6.23,3.94-8.14-.74-1.45-1.14-3.08-1.14-4.74,0-4.4,2.8-8.28,6.75-9.68.23-5.44,4.62-9.79,9.99-9.79.52,0,1.03.04,1.54.12,1.81-2.95,4.97-4.77,8.46-4.77,5.51,0,10,4.59,10,10.24v64.32c0,5.64-4.49,10.24-10,10.24ZM72.6,149.69c.18,0,.35.02.52.07.53.14.97.49,1.23.97,1.06,1.94,3.06,3.15,5.21,3.15,3.31,0,6-2.8,6-6.24v-64.32c0-3.44-2.69-6.24-6-6.24-2.44,0-4.61,1.51-5.54,3.84-.4,1-1.52,1.51-2.54,1.14-.61-.22-1.25-.33-1.92-.33-3.31,0-6,2.8-6,6.24,0,.27.02.56.05.84.14,1.08-.61,2.06-1.68,2.23-2.92.45-5.12,3.1-5.12,6.17,0,1.5.52,2.95,1.46,4.08.4.48.55,1.11.42,1.72-.14.61-.55,1.12-1.11,1.38-2.17,1-3.57,3.23-3.57,5.7,0,2.03.96,3.94,2.56,5.11.52.38.82.98.83,1.62,0,.64-.31,1.24-.82,1.62-1.61,1.17-2.57,3.08-2.57,5.12s.84,3.72,2.31,4.92c.77.63.96,1.72.46,2.57-.58.97-.88,2.1-.88,3.25,0,3.13,2.24,5.78,5.22,6.18.57.08,1.08.39,1.4.87.32.48.42,1.07.27,1.62-.13.51-.2,1.04-.2,1.59,0,3.44,2.69,6.24,6,6.24,1.05,0,2.08-.29,2.98-.83.31-.19.67-.29,1.03-.29Z"/>
      </g>
      <path class="cls-1" d="M64.15,117.11c-.52,0-1.04-.2-1.43-.61-4.85-4.99-4.85-13.11,0-18.1.77-.79,2.04-.81,2.83-.04.79.77.81,2.04.04,2.83-3.35,3.45-3.35,9.07,0,12.53.77.79.75,2.06-.04,2.83-.39.38-.89.57-1.39.57Z"/>
      <path class="cls-1" d="M78.82,149.69c-1.1,0-2-.9-2-2,0-4.87-3.82-8.83-8.52-8.83-1.1,0-2-.9-2-2s.9-2,2-2c6.9,0,12.52,5.75,12.52,12.83,0,1.1-.9,2-2,2Z"/>
      <path class="cls-1" d="M76.08,105.92c-1.1,0-2-.9-2-2,0-4.87-3.82-8.83-8.52-8.83-1.1,0-2-.9-2-2s.9-2,2-2c6.9,0,12.52,5.75,12.52,12.83,0,1.1-.9,2-2,2Z"/>
      <path class="cls-1" d="M71.56,96.92c-1.1,0-2-.9-2-2,0-7.07,5.62-12.83,12.52-12.83,1.1,0,2,.9,2,2s-.9,2-2,2c-4.7,0-8.52,3.96-8.52,8.83,0,1.1-.9,2-2,2Z"/>
      <path class="cls-1" d="M77.04,114.29c-1.1,0-2-.9-2-2s.9-2,2-2c4.7,0,8.52-3.96,8.52-8.83,0-1.1.9-2,2-2s2,.9,2,2c0,7.07-5.62,12.83-12.52,12.83Z"/>
      <path class="cls-1" d="M81.19,130.17c-6.9,0-12.52-5.75-12.52-12.83,0-1.1.9-2,2-2s2,.9,2,2c0,4.87,3.82,8.83,8.52,8.83,1.1,0,2,.9,2,2s-.9,2-2,2Z"/>
      <path class="cls-1" d="M61.93,136.35c-1.1,0-2-.9-2-2,0-7.07,5.62-12.83,12.52-12.83,1.1,0,2,.9,2,2s-.9,2-2,2c-4.7,0-8.52,3.96-8.52,8.83,0,1.1-.9,2-2,2Z"/>
    </g>
    <path class="cls-1" d="M87.56,117.49c-1.1,0-2-.9-2-2s.9-2,2-2h38.23c1.1,0,2,.9,2,2s-.9,2-2,2h-38.23Z"/>
    <g>
      <ellipse class="cls-2" cx="128.65" cy="115.49" rx="8.88" ry="9.14"/>
      <path class="cls-1" d="M128.65,126.63c-6,0-10.88-5-10.88-11.14s4.88-11.14,10.88-11.14,10.88,5,10.88,11.14-4.88,11.14-10.88,11.14ZM128.65,108.35c-3.79,0-6.88,3.2-6.88,7.14s3.08,7.14,6.88,7.14,6.88-3.2,6.88-7.14-3.08-7.14-6.88-7.14Z"/>
    </g>
    <g>
      <path class="cls-1" d="M100.46,92.78h-12.9c-1.1,0-2-.9-2-2s.9-2,2-2h11.99l1.51-1.75c.72-.83,1.99-.92,2.82-.2s.92,1.99.2,2.82l-2.11,2.44c-.38.44-.93.69-1.51.69Z"/>
      <path class="cls-1" d="M106.6,92.2c2.01-2.32,1.76-5.84-.56-7.85-2.32-2.01-5.84-1.76-7.85.56-2.01,2.32-1.76,5.84.56,7.85,2.32,2.01,5.84,1.76,7.85-.56Z"/>
    </g>
    <g>
      <path class="cls-1" d="M102.57,144.36c-.52,0-1.04-.2-1.43-.61l-1.51-1.56h-12.06c-1.1,0-2-.9-2-2s.9-2,2-2h12.9c.54,0,1.06.22,1.43.61l2.1,2.17c.77.79.75,2.06-.04,2.83-.39.38-.89.57-1.39.57Z"/>
      <path class="cls-1" d="M98.38,146.04c2.14,2.2,5.66,2.26,7.87.11,2.2-2.14,2.26-5.66.11-7.87-2.14-2.2-5.66-2.26-7.87-.11-2.2,2.14-2.26,5.66-.11,7.87Z"/>
    </g>
    <g>
      <path class="cls-1" d="M102.46,105.5h-14.9c-1.1,0-2-.9-2-2s.9-2,2-2h14.06l12.84-13.22c.38-.39.89-.61,1.43-.61h12.28c1.1,0,2,.9,2,2s-.9,2-2,2h-11.44l-12.84,13.22c-.38.39-.89.61-1.43.61Z"/>
      <circle class="cls-1" cx="127.9" cy="89.67" r="5.56"/>
    </g>
    <g>
      <path class="cls-1" d="M128.17,143.3h-12.28c-.54,0-1.06-.22-1.43-.61l-12.84-13.22h-14.06c-1.1,0-2-.9-2-2s.9-2,2-2h14.9c.54,0,1.06.22,1.43.61l12.84,13.22h11.44c1.1,0,2,.9,2,2s-.9,2-2,2Z"/>
      <circle class="cls-1" cx="127.9" cy="141.3" r="5.56"/>
    </g>
  </g>
</svg>
