<?xml version="1.0" encoding="UTF-8"?>
<svg id="Layer_2" data-name="Layer 2" xmlns="http://www.w3.org/2000/svg" viewBox="0 0 192 192">
  <defs>
    <style>
      .cls-1 {
        fill: #464646;
      }

      .cls-1, .cls-2 {
        stroke-width: 0px;
      }

      .cls-2 {
        fill: #2cccd3;
      }
    </style>
  </defs>
  <path class="cls-2" d="M167.35,83.7h-64.7v-9.32h-16v.04l-9.13-15.81h-43.04l-21.52,37.27,21.52,37.28h43.04l9.13-15.82v.29h16v-9.32h13.35l8-7,8,4,8-4,8,4,8-4,7.35,4,14-10.68-10-10.93ZM40,106.54c-5.88,0-10.65-4.77-10.65-10.66s4.77-10.65,10.65-10.65,10.65,4.77,10.65,10.65-4.77,10.66-10.65,10.66Z"/>
  <path class="cls-1" d="M178.83,93.27l-10-10.93c-.38-.41-.91-.65-1.48-.65h-62.7v-7.32c0-1.1-.9-2-2-2h-14.87l-8.53-14.77c-.36-.62-1.02-1-1.73-1h-43.04c-.71,0-1.38.38-1.73,1l-21.52,37.27c-.36.62-.36,1.38,0,2l21.52,37.28c.36.62,1.02,1,1.73,1h43.04c.71,0,1.38-.38,1.73-1l8.38-14.53h15.01c1.1,0,2-.9,2-2v-7.32h11.35c.48,0,.95-.18,1.32-.5l6.99-6.12,6.8,3.4c.56.28,1.23.28,1.79,0l7.11-3.55,7.11,3.55c.56.28,1.23.28,1.79,0l7.07-3.53,6.43,3.5c.69.38,1.54.31,2.17-.17l14-10.68c.45-.34.73-.85.78-1.41.05-.56-.14-1.11-.52-1.53ZM163.17,102.93l-6.21-3.38c-.58-.31-1.27-.32-1.85-.03l-7.11,3.55-7.11-3.55c-.56-.28-1.23-.28-1.79,0l-7.11,3.55-7.11-3.55c-.73-.36-1.6-.25-2.21.28l-7.43,6.5h-12.6c-1.1,0-2,.9-2,2v7.32h-12.96c-.16-.1-.33-.17-.52-.22-.87-.23-1.8.15-2.25.93l-8.55,14.82h-40.73l-20.37-35.28,20.37-35.27h40.73l8.55,14.81c.41.71,1.21,1.08,2.02.96h13.71v7.32c0,1.1.9,2,2,2h63.82l6.34,6.93h-70.16v4h68.78l-8.26,6.3ZM40,83.23c-6.97,0-12.65,5.67-12.65,12.65s5.67,12.66,12.65,12.66,12.65-5.68,12.65-12.66-5.67-12.65-12.65-12.65ZM40,104.54c-4.77,0-8.65-3.88-8.65-8.66s3.88-8.65,8.65-8.65,8.65,3.88,8.65,8.65-3.88,8.66-8.65,8.66Z"/>
</svg>
