<?xml version="1.0" encoding="UTF-8"?>
<svg id="Security_Networking" data-name="Security Networking" xmlns="http://www.w3.org/2000/svg" viewBox="0 0 192 192">
  <defs>
    <style>
      .cls-1 {
        fill: #fff;
        stroke-width: 0px;
      }
    </style>
  </defs>
  <path class="cls-1" d="M71.99,100.97c.78.78.78,2.05,0,2.83-3.12,3.12-4.84,7.28-4.84,11.7s1.72,8.57,4.84,11.7c.78.78.78,2.05,0,2.83-.39.39-.9.59-1.41.59s-1.02-.2-1.41-.59c-3.88-3.88-6.02-9.04-6.02-14.52s2.14-10.65,6.02-14.52c.78-.78,2.05-.78,2.83,0ZM78.81,106.61c-.78-.78-2.05-.78-2.83,0-2.37,2.37-3.68,5.53-3.68,8.89s1.31,6.51,3.68,8.88c.39.39.9.59,1.41.59s1.02-.2,1.41-.59c.78-.78.78-2.05,0-2.83-1.62-1.62-2.51-3.77-2.51-6.06s.89-4.44,2.51-6.06c.78-.78.78-2.05,0-2.83ZM112.71,124.35c.39.39.9.59,1.41.59s1.02-.2,1.41-.59c2.37-2.37,3.68-5.53,3.68-8.88s-1.31-6.51-3.68-8.88c-.78-.78-2.05-.78-2.83,0-.78.78-.78,2.05,0,2.83,1.62,1.62,2.51,3.77,2.51,6.06s-.89,4.44-2.51,6.06c-.78.78-.78,2.05,0,2.83ZM120.93,130.6c.51,0,1.02-.2,1.41-.59,3.88-3.88,6.02-9.04,6.02-14.52s-2.14-10.65-6.02-14.52c-.78-.78-2.05-.78-2.83,0-.78.78-.78,2.05,0,2.83,3.12,3.12,4.84,7.28,4.84,11.7s-1.72,8.57-4.84,11.7c-.78.78-.78,2.05,0,2.83.39.39.9.59,1.41.59ZM183.1,84.82v5.83c0,.09,0,.17-.02.26-.34,2.61-1.03,5.19-1.65,7.36-.02.05-.03.11-.05.16-3.91,10.28-12.21,17.7-22.86,20.54-.86,15.74-7.51,30.42-18.87,41.45-11.75,11.42-27.25,17.7-43.65,17.7-24.04,0-46.25-14.04-56.59-35.76-3.51-7.41-5.49-15.29-5.93-23.44-10.58-2.9-18.79-10.42-22.65-20.84-2.17-5.65-2.52-11.87-1.02-17.98,2.88-11.68,11.86-20.84,23.43-23.91.04-.01.09-.02.13-.03,2.86-.56,5.88-.86,8.81-1.14l1.18-.12c.02-.05.05-.1.08-.15,4.7-10.31,12.68-16.87,23.67-19.43,4.42-1.06,8.43-1.27,12.25-.65.03,0,.05,0,.08.01,7.43-11.25,17.81-18.08,30.84-20.28,13.76-1.93,25.87,1.42,36.06,9.96,7.44,5.86,12.44,13.79,14.4,22.89.63,3.14.97,6.55.99,9.91.03.01.05.02.08.03,10.9,4.67,17.8,12.37,20.5,22.88.13.51.24,1.01.36,1.54l.07.3c.03.14.05.29.05.44,0,.25.05.49.12.82.09.43.2.97.2,1.64ZM154.6,117.34c.02-.6.03-1.22.03-1.83-.02-20.71-11.11-39.92-28.67-50.39-1.55-.92-3.14-1.78-4.78-2.57-.99-.47-1.98-.91-2.99-1.33-7.03-2.89-14.48-4.35-22.19-4.35-1.06,0-2.13.03-3.19.09-3.19.17-6.37.61-9.48,1.3-5.56,1.22-10.83,3.24-15.68,5.92-14.54,8.05-25.29,22.09-28.92,38.79-.9,4.1-1.35,8.3-1.35,12.48,0,.66,0,1.25.03,1.85.24,8.14,2.14,16,5.63,23.36,9.68,20.34,30.47,33.48,52.97,33.48,15.35,0,29.86-5.88,40.86-16.57,10.97-10.66,17.27-24.95,17.74-40.22ZM179.1,84.82c0-.25-.05-.49-.12-.82-.08-.38-.17-.84-.2-1.39l-.02-.11c-.11-.5-.22-.98-.33-1.44-2.39-9.33-8.32-15.92-18.1-20.14-1.61-.52-2.05-1.47-2.39-2.49l-.09-.26c-.08-.21-.11-.44-.11-.66,0-3.21-.31-6.48-.91-9.43-1.78-8.27-6.16-15.22-13.01-20.6-9.46-7.93-20.22-10.9-32.92-9.11-11.9,2.02-21.41,8.31-28.21,18.69-.8,1.43-2.34,2.02-4.07,1.56-3.25-.52-6.71-.32-10.57.61-9.88,2.3-16.74,7.95-21,17.29-.07.15-.1.21-.13.27-.25.57-.89,2.07-3.17,2.12l-1.17.12c-2.81.28-5.71.56-8.37,1.08-10.13,2.71-17.98,10.74-20.51,20.98-1.31,5.31-1.01,10.71.88,15.62,3.27,8.83,10.04,15.29,18.8,18.06,0-.5.04-1,.06-1.5.02-.47.03-.93.05-1.4.04-.66.1-1.32.16-1.97.04-.43.07-.87.12-1.3.08-.73.19-1.45.29-2.17.05-.36.09-.71.15-1.07.18-1.08.38-2.15.61-3.21.42-1.95.95-3.87,1.55-5.75.19-.59.38-1.17.59-1.75,1.38-3.92,3.14-7.67,5.24-11.18,1.14-1.9,2.37-3.74,3.69-5.5,2.21-2.94,4.67-5.68,7.35-8.19,1.61-1.5,3.3-2.92,5.06-4.25,1.17-.89,2.38-1.73,3.62-2.54.88-.57,1.78-1.11,2.69-1.64,3.56-2.07,7.35-3.8,11.31-5.14,2.13-.72,4.32-1.33,6.55-1.82,1.11-.25,2.22-.46,3.35-.64,2.24-.37,4.51-.62,6.78-.74,1.14-.06,2.27-.09,3.41-.09,9.42,0,18.47,2.04,26.9,6.06.67.32,1.34.65,2,1,.21.11.41.23.62.34.45.24.9.48,1.34.73.24.14.48.28.72.42.4.23.8.46,1.19.7.27.16.53.34.79.5.36.23.72.45,1.07.69.26.17.52.36.78.54.35.24.69.47,1.04.72.26.18.5.38.76.56.34.25.67.5,1.01.75.25.19.5.4.74.59.32.26.65.51.97.78.25.2.48.42.73.62.31.27.63.53.93.8.24.21.47.43.7.65.3.28.61.55.9.84.23.22.45.45.68.67.29.29.59.57.87.87.22.23.44.47.66.7.28.29.56.59.83.89.22.24.43.48.64.73.27.3.54.6.8.91.21.25.41.5.61.75.26.31.51.62.76.94.2.25.39.51.59.77.24.32.49.63.73.96.19.26.38.53.57.79.23.33.47.65.69.98.18.27.36.54.54.81.22.33.44.67.66,1,.17.27.34.55.51.83.21.34.42.68.62,1.03.17.28.32.57.48.85.2.35.39.69.58,1.04.16.29.31.58.46.87.18.35.37.7.55,1.06.15.29.29.59.43.89.17.36.35.71.51,1.08.14.3.27.61.4.91.16.36.32.72.47,1.08.13.31.25.62.37.93.14.36.29.73.43,1.09.12.31.23.63.34.95.13.37.26.73.39,1.1.11.32.21.65.31.97.12.37.24.74.35,1.11.1.33.19.66.28.99.1.37.21.75.31,1.12.09.33.17.67.25,1,.09.37.18.75.27,1.12.08.34.14.68.21,1.02.08.38.16.75.23,1.13.06.34.12.69.18,1.04.06.38.13.75.19,1.13.05.35.1.7.15,1.06.05.38.1.75.15,1.13.04.36.07.71.11,1.07.04.38.07.76.1,1.14.03.36.05.72.07,1.08.02.38.05.76.06,1.14.02.36.02.73.03,1.1,0,.27.02.54.02.81,8.84-2.72,15.67-9.08,18.99-17.71.57-1.98,1.18-4.3,1.49-6.57v-5.7ZM128,96.53v-3.52h-6.56l-17.21,17.21c.98,1.56,1.55,3.43,1.55,5.45,0,1.9-.57,3.67-1.53,5.17l17.19,17.15h6.57v-3.52c0-.71.38-1.38,1-1.73.62-.36,1.38-.36,2,0l9.56,5.52c.62.36,1,1.02,1,1.73s-.38,1.37-1,1.73l-9.56,5.52c-.31.18-.65.27-1,.27s-.69-.09-1-.27c-.62-.36-1-1.02-1-1.73v-3.52h-7.39c-.53,0-1.04-.21-1.41-.58l-17.75-17.7c-1.59,1.07-3.5,1.69-5.56,1.69-1.95,0-3.77-.57-5.31-1.54l-17.54,17.54c-.38.38-.88.59-1.41.59h-7.62v3.52c0,.71-.38,1.38-1,1.73-.31.18-.65.27-1,.27s-.69-.09-1-.27l-9.56-5.52c-.62-.36-1-1.02-1-1.73s.38-1.37,1-1.73l9.56-5.52c.62-.36,1.38-.36,2,0s1,1.02,1,1.73v3.52h6.8l16.9-16.9c-1.06-1.55-1.69-3.42-1.69-5.43,0-2.15.64-4.12,1.72-5.73l-16.93-16.93h-6.8v3.52c0,.71-.38,1.38-1,1.73-.31.18-.65.27-1,.27s-.69-.09-1-.27l-9.56-5.52c-.62-.36-1-1.02-1-1.73s.38-1.38,1-1.73l9.56-5.52c.62-.36,1.38-.36,2,0,.62.36,1,1.02,1,1.73v3.52h7.62c.53,0,1.04.21,1.41.59l17.56,17.56c1.52-.96,3.33-1.52,5.29-1.52,2.08,0,4,.62,5.57,1.7l17.74-17.74c.38-.38.88-.59,1.41-.59h7.39v-3.52c0-.71.38-1.38,1-1.73.62-.36,1.38-.36,2,0l9.56,5.52c.62.36,1,1.02,1,1.73s-.38,1.38-1,1.73l-9.56,5.52c-.31.18-.65.27-1,.27s-.69-.09-1-.27c-.62-.36-1-1.02-1-1.73ZM132,93.07l3.56-2.06-3.56-2.06v4.11ZM60,88.96l-3.56,2.06,3.56,2.06v-4.11ZM60,137.95l-3.56,2.06,3.56,2.06v-4.11ZM132,142.06l3.56-2.06-3.56-2.06v4.11ZM101.77,115.68c0-3.39-2.59-6.04-5.89-6.04s-5.88,2.65-5.88,6.04c0,3.16,2.64,5.73,5.88,5.73s5.89-2.57,5.89-5.73Z"/>
</svg>
