<?xml version="1.0" encoding="UTF-8"?>
<svg id="Security_Networking" data-name="Security Networking" xmlns="http://www.w3.org/2000/svg" viewBox="0 0 192 192">
  <defs>
    <style>
      .cls-1 {
        fill: #464646;
      }

      .cls-1, .cls-2 {
        stroke-width: 0px;
      }

      .cls-2 {
        fill: #3cb17e;
      }
    </style>
  </defs>
  <path class="cls-2" d="m165.03,140.42s0-.07,0-.1c-1.07-14.61-3.27-22.98-4.75-31.43-3.46-19.7-14.24-29.56-27.84-34.27.03-.1.07-.19.1-.28,2.93-8.01,3.06-16.82.11-24.82-7.19-19.53-25.73-35.61-36.78-35.61s-29.83,16.14-36.87,35.71c-2.87,7.96-2.73,16.69.17,24.63l.07.16c-13.29,4.56-23.65,14.39-27.76,34.48-1.72,8.4-3.99,20.55-4.43,31.43,0,.21-.02.44-.02.68-.2,7.23,5.17,13.42,12.36,14.29l13.29,1.61v-37.35c0-1.66,1.35-3.02,3.02-3.02h80.79c1.67,0,3.03,1.36,3.03,3.02l.08,37.35,13.08-1.54c7.45-.88,12.9-7.45,12.37-14.93Zm-74.8-49.79l-5.38-7.91c-7.02-3.41-12.27-9.89-13.96-17.71,0,0,0-.03,0-.04,3.43-2.44,7.19-4.39,11.25-5.74.34-.12.68-.22,1.02-.33.33-.11.68-.2,1.02-.31.23-.07.47-.12.7-.19.56-.14,1.1-.29,1.67-.4.5-.11,1.01-.22,1.52-.32.23-.05.46-.09.69-.12.24-.05.47-.09.71-.11.35-.06.72-.11,1.08-.15.35-.05.7-.09,1.05-.12.38-.04.77-.08,1.14-.1.53-.04,1.06-.07,1.6-.09.58-.03,1.17-.04,1.75-.04s1.17,0,1.75.04c.53.02,1.05.05,1.58.09.17.02.35.03.53.05.37.03.74.07,1.1.1.59.07,1.18.15,1.76.24.32.05.63.11.95.16.35.06.71.12,1.06.2.54.1,1.06.23,1.6.36.34.08.68.16,1.02.26.46.12.92.26,1.37.39.08.03.14.05.22.07.66.2,1.3.41,1.95.66.32.12.64.24.96.36,0,0,.03.02.05.02.41.16.82.33,1.23.51,2.86,1.21,5.57,2.74,8.08,4.53,0,0,0,.03,0,.04-1.69,7.82-6.94,14.3-13.96,17.71l-5.38,7.91-5.85,8.61-5.85-8.61Z"/>
  <g>
    <path class="cls-1" d="m167.02,140.28s0-.11,0-.11c-.83-11.26-2.32-18.87-3.63-25.58-.41-2.07-.8-4.06-1.15-6.05-3.11-17.71-12.06-29.2-27.28-35.1,2.59-8.13,2.45-16.8-.43-24.6-6.98-18.98-25.77-36.92-38.65-36.92s-31.78,17.65-38.75,37.03c-2.79,7.73-2.92,16.28-.4,24.28-14.59,5.68-23.51,17.22-27.2,35.26-1.7,8.31-4.02,20.64-4.47,31.75l-.02.71c-.23,8.31,5.84,15.33,14.11,16.33l11.49,1.39v.05h-4.29c-.65,0-1.26.32-1.64.85-.37.53-.46,1.22-.24,1.83l6.29,17.33s.01.02.02.03c.07.17.15.33.26.48.02.03.05.06.08.09.11.13.23.25.37.35.01,0,.02.02.03.02.15.1.31.17.48.23.04.01.08.02.12.04.17.05.34.08.52.08,0,0,0,0,.01,0,0,0,0,0,0,0h86.95s0,0,0,0c0,0,0,0,0,0,.19,0,.36-.03.53-.08.04-.01.08-.02.12-.04.17-.06.33-.13.48-.23.01,0,.02-.02.04-.03.14-.1.25-.21.36-.34.02-.03.05-.06.07-.09.11-.15.19-.3.26-.47,0-.01.01-.02.02-.03l6.25-17.38c.22-.62.13-1.3-.25-1.83-.38-.53-.99-.85-1.65-.84l-4.24.03v-.03l11.32-1.34c8.53-1,14.73-8.5,14.13-17.06Zm-116.4,26.4l-1.44-3.96h1.44v3.96Zm10.26-116.38c3.16-8.78,9.08-17.67,16.26-24.41,6.65-6.25,13.65-9.97,18.73-9.97,10.09,0,27.91,15.3,34.9,34.3,2.7,7.32,2.69,15.51,0,23.11l-.14.1-27.02,18.3,5.06-7.45c7.37-3.76,12.79-10.75,14.55-18.81.04-.16.06-.33.06-.5,0-.65-.31-1.25-.84-1.63-2.64-1.88-5.48-3.48-8.43-4.73-.43-.19-.86-.36-1.31-.54,0,0-.02,0-.02,0,0,0-.02,0-.03-.01l-.97-.37c-.62-.24-1.28-.46-2.18-.73-.05-.02-.09-.03-.14-.05-.47-.14-.94-.28-1.4-.4-.38-.11-.75-.2-1.07-.27-.57-.14-1.13-.27-1.66-.38-.39-.08-.78-.16-1.13-.22-.33-.06-.67-.12-1.01-.17-.6-.09-1.21-.18-1.88-.25-.37-.04-.73-.08-1.04-.1l-.6-.05c-.55-.04-1.1-.07-1.63-.09-1.23-.06-2.49-.06-3.67,0-.56.02-1.12.05-1.68.09-.39.03-.79.07-1.2.11-.37.04-.73.08-1.15.14-.37.05-.74.1-1.01.14-.29.04-.57.08-.8.13-.26.04-.52.09-.74.13-.53.1-1.08.21-1.55.32-.56.11-1.09.25-1.64.39l-1.35.38c-.2.06-.41.12-.64.19l-1.02.33c-4.16,1.38-8.12,3.41-11.78,6.01-.53.38-.84.98-.84,1.63,0,.16.02.33.06.5,1.76,8.06,7.17,15.05,14.55,18.81l5.07,7.46-2.7-1.83s-.09-.07-.14-.1l-24.89-16.84c-2.56-7.44-2.55-15.46.04-22.66Zm35.2,45.38l-6.18-9.08c4.01.91,8.34.91,12.35,0l-6.18,9.08Zm0-12.4c-3.64,0-7.12-.8-10.36-2.36-6.15-2.98-10.77-8.56-12.57-15.08,3.02-2.01,6.24-3.59,9.61-4.71l.99-.32c.17-.05.35-.11.53-.16l1.22-.34c.48-.12.94-.25,1.48-.35.47-.11.96-.21,1.48-.31.2-.04.4-.08.67-.12.19-.04.36-.07.63-.1.32-.05.65-.1,1.03-.15.34-.05.66-.08.99-.12.37-.04.73-.07,1.08-.1.5-.04,1.01-.06,1.55-.08,1.1-.05,2.18-.05,3.33,0,.5.02,1,.05,1.43.08l.59.05c.34.03.67.06,1.03.1.57.06,1.13.15,1.68.23.29.04.59.1.93.16.32.05.64.11.99.19.5.1.99.22,1.55.35.31.07.61.15.94.24.42.11.85.24,1.26.36.1.04.2.07.31.09.7.21,1.25.4,1.76.59l.96.36h0s.04.02.06.02h0c.38.15.76.3,1.17.48,2.29.97,4.5,2.17,6.58,3.55-1.8,6.52-6.42,12.1-12.57,15.08-3.24,1.57-6.72,2.36-10.36,2.36Zm-45.42,36.27v.16c-.03.22-.04.44-.04.67v34.26l-11.01-1.33c-6.21-.75-10.77-6.02-10.6-12.25l.02-.66c.44-10.82,2.72-22.94,4.39-31.11,3.47-16.97,11.86-27.67,25.63-32.7l23.53,15.93v14.6c0,1.1.9,2,2,2s2-.9,2-2v-11.89l7.44,5.04v14.25h-30.4v-13.44c0-1.1-.9-2-2-2s-2,.9-2,2v13.44h-3.95c-2.77,0-5.02,2.25-5.02,5.02Zm86.92,41.17v15.33H54.62v-18.77c.02-.13.04-.25.04-.38v-36.91c.18-.84.92-1.47,1.81-1.47h79.26c.85,0,1.56.58,1.78,1.36l.07,36.1v4.73Zm5.4,1.98l-1.4,3.89v-3.88h1.4Zm9.45-9.33h0l-10.85,1.28v-34.27c0-.34-.04-.67-.09-.99-.09-2.69-2.3-4.86-5.02-4.86h-3.95v-13.44c0-1.1-.9-2-2-2s-2,.9-2,2v13.44h-30.48v-14.2l7.52-5.09v12.26c0,1.1.9,2,2,2s2-.9,2-2v-14.97l23.15-15.68c14.31,5.27,22.69,15.88,25.59,32.39.35,2.02.75,4.03,1.16,6.13,1.29,6.6,2.76,14.08,3.58,25.2.45,6.42-4.21,12.05-10.61,12.8Z"/>
    <path class="cls-1" d="m66.67,61.16c8.54-6.4,18.71-9.79,29.41-9.79s20.87,3.38,29.41,9.79c.36.27.78.4,1.2.4.61,0,1.21-.28,1.6-.8.66-.88.48-2.14-.4-2.8-9.23-6.93-20.23-10.59-31.81-10.59s-22.57,3.66-31.81,10.59c-.88.66-1.06,1.92-.4,2.8.66.88,1.92,1.06,2.8.4Z"/>
  </g>
</svg>
