<?xml version="1.0" encoding="UTF-8"?><svg id="Security_Networking" xmlns="http://www.w3.org/2000/svg" viewBox="0 0 192 192"><defs><style>.cls-1{fill:#9063cd;}.cls-2{fill:#464646;}</style></defs><path class="cls-2" d="m111.28,39.13h-30.57c-1.1,0-2-.9-2-2s.9-2,2-2h30.57c1.1,0,2,.9,2,2s-.9,2-2,2Z"/><path class="cls-2" d="m122.75,121.12h-53.49c-1.1,0-2-.9-2-2V48.57c0-1.1.9-2,2-2h53.49c1.1,0,2,.9,2,2v70.55c0,1.1-.9,2-2,2Zm-51.49-4h49.49V50.57h-49.49v66.55Z"/><rect class="cls-1" x="39.95" y="151.61" width="112.09" height="15.28"/><path class="cls-2" d="m152.05,168.89H39.95c-1.1,0-2-.9-2-2v-15.28c0-1.1.9-2,2-2h112.09c1.1,0,2,.9,2,2v15.28c0,1.1-.9,2-2,2Zm-110.09-4h108.09v-11.28H41.95v11.28Z"/><path class="cls-2" d="m142.84,180.09H49.15c-6.18,0-11.2-5.02-11.2-11.2V34.91c0-6.18,5.02-11.2,11.2-11.2h38.56c1.1,0,2,.9,2,2v9.41h12.56v-9.41c0-1.1.9-2,2-2h38.56c6.18,0,11.2,5.02,11.2,11.2v133.98c0,6.18-5.02,11.2-11.2,11.2ZM49.15,27.71c-3.97,0-7.2,3.23-7.2,7.2v133.98c0,3.97,3.23,7.2,7.2,7.2h93.69c3.97,0,7.2-3.23,7.2-7.2V34.91c0-3.97-3.23-7.2-7.2-7.2h-36.56v9.41c0,1.1-.9,2-2,2h-16.56c-1.1,0-2-.9-2-2v-9.41h-36.56Z"/><path class="cls-2" d="m112.22,130.62h-32.43c-1.1,0-2-.9-2-2s.9-2,2-2h32.43c1.1,0,2,.9,2,2s-.9,2-2,2Z"/><path class="cls-2" d="m122.73,142.12h-53.46c-1.1,0-2-.9-2-2s.9-2,2-2h53.46c1.1,0,2,.9,2,2s-.9,2-2,2Z"/><circle class="cls-1" cx="96" cy="74.11" r="16.75"/><path class="cls-2" d="m96,92.86c-10.34,0-18.75-8.41-18.75-18.75s8.41-18.75,18.75-18.75,18.75,8.41,18.75,18.75-8.41,18.75-18.75,18.75Zm0-33.5c-8.13,0-14.75,6.62-14.75,14.75s6.62,14.75,14.75,14.75,14.75-6.62,14.75-14.75-6.62-14.75-14.75-14.75Z"/><path class="cls-1" d="m122.75,109.99v9.13h-53.49v-9.13c3.78-11.13,14.34-19.13,26.75-19.13s22.96,8.01,26.75,19.13Z"/><path class="cls-2" d="m122.75,121.12h-53.49c-1.1,0-2-.9-2-2v-9.13c0-.22.04-.44.11-.64,4.17-12.26,15.68-20.49,28.64-20.49s24.47,8.23,28.64,20.49c.07.21.11.42.11.64v9.13c0,1.1-.9,2-2,2Zm-51.49-4h49.49v-6.8c-3.7-10.46-13.6-17.47-24.75-17.47s-21.05,7.01-24.75,17.47v6.8Z"/><path class="cls-2" d="m81.34,121.13c-1.1,0-2-.9-2-2v-11.52c0-1.1.9-2,2-2s2,.9,2,2v11.52c0,1.1-.9,2-2,2Z"/><path class="cls-2" d="m110.66,121.13c-1.1,0-2-.9-2-2v-11.52c0-1.1.9-2,2-2s2,.9,2,2v11.52c0,1.1-.9,2-2,2Z"/><path class="cls-2" d="m104.28,39.13h-16.56c-1.1,0-2-.9-2-2V13.95c0-1.1.9-2,2-2h16.56c1.1,0,2,.9,2,2v23.17c0,1.1-.9,2-2,2Zm-14.56-4h12.56V15.95h-12.56v19.17Z"/></svg>
