<?xml version="1.0" encoding="UTF-8"?><svg id="Security_Networking" xmlns="http://www.w3.org/2000/svg" viewBox="0 0 192 192"><defs><style>.cls-1{fill:#eda6a1;}.cls-2{fill:#9063cd;}.cls-3{fill:#464646;}</style></defs><path class="cls-3" d="m47.86,179.9h0c-1.47,0-2.66-1.19-2.66-2.66v-24c0-1.47,1.19-2.66,2.66-2.66h0c1.47,0,2.66,1.19,2.66,2.66v24c0,1.47-1.19,2.66-2.66,2.66Z"/><path class="cls-3" d="m56.29,153.24c0-1.47,1.19-2.66,2.66-2.66h8.34c6.74,0,10.33,4.11,10.33,9.7s-3.64,9.7-10.41,9.7h-5.61v7.25c0,1.47-1.19,2.66-2.66,2.66h0c-1.47,0-2.66-1.19-2.66-2.66v-24Zm10.21,12.39c3.95,0,5.71-2.22,5.71-5.34s-1.76-5.27-5.74-5.27h-4.87v10.61h4.9Z"/><path class="cls-3" d="m96.25,164.07c-.86.09-1.65-.33-2.17-1.03-.66-.89-1.78-1.55-3.47-1.55-2.16,0-3.81,1.03-3.79,2.52-.01,1.27.87,2.05,3.11,2.55l3.75.8c4.15.9,6.17,2.82,6.18,5.95-.01,4.17-3.89,7.01-9.39,7.01-3.65,0-6.39-1.09-7.97-3.05-1.13-1.39-.18-3.5,1.61-3.67l.33-.03c.89-.09,1.7.39,2.19,1.14.73,1.12,2.05,1.7,3.83,1.7,2.46,0,4.09-1.13,4.09-2.63,0-1.25-.94-2.06-2.96-2.5l-3.75-.79c-4.22-.87-6.2-2.99-6.18-6.2-.01-4.07,3.59-6.67,8.89-6.67,3.32,0,5.73.98,7.22,2.68,1.21,1.38.32,3.56-1.51,3.76h0Z"/><path class="cls-3" d="m103.21,169.04c0-6.78,4.11-11.41,10.41-11.41,5.41,0,10.05,3.39,10.05,11.11h0c0,.88-.71,1.59-1.59,1.59h-13.73c.04,3.76,2.26,5.97,5.61,5.97,1.74,0,3.17-.59,4.05-1.74.5-.65,1.29-1.02,2.11-.92h0c1.88.21,2.75,2.5,1.44,3.87-1.7,1.78-4.35,2.83-7.67,2.83-6.63,0-10.68-4.39-10.68-11.29Zm15.49-2.2c-.03-2.99-2.03-5.17-5.01-5.17s-5.17,2.36-5.32,5.17h10.33Z"/><path class="cls-3" d="m127.11,169c0-6.71,4.06-11.37,10.51-11.37,3.89,0,6.91,1.64,8.42,4.36.88,1.59-.37,3.54-2.19,3.54h0c-.95,0-1.78-.57-2.21-1.42-.71-1.38-2.05-2.31-3.94-2.31-3.19,0-5.32,2.66-5.32,7.1s2.09,7.2,5.32,7.2c1.79,0,3.22-.84,3.97-2.34.42-.84,1.26-1.38,2.19-1.38h0c1.81,0,3.06,1.93,2.2,3.52-1.47,2.71-4.41,4.43-8.41,4.43-6.57,0-10.53-4.68-10.53-11.34Z"/><path class="cls-3" d="m74.58,54.46h-4v-16.65c0-14.26,11.6-25.86,25.86-25.86s25.86,11.6,25.86,25.86v16.41h-4v-16.41c0-12.05-9.8-21.86-21.86-21.86s-21.86,9.8-21.86,21.86v16.65Z"/><path class="cls-3" d="m172.29,97.56h-33.66c-1.1,0-2-.9-2-2s.9-2,2-2h33.66c1.1,0,2,.9,2,2s-.9,2-2,2Z"/><polygon class="cls-3" points="170.66 101.14 180.33 95.56 170.66 89.97 170.66 101.14"/><line class="cls-1" x1="53.64" y1="95.56" x2="11.94" y2="95.56"/><path class="cls-3" d="m53.64,97.56H19.98c-1.1,0-2-.9-2-2s.9-2,2-2h33.66c1.1,0,2,.9,2,2s-.9,2-2,2Z"/><polygon class="cls-3" points="21.61 89.97 11.94 95.56 21.61 101.14 21.61 89.97"/><path class="cls-2" d="m127.91,54.23h-62.94c-5.92,0-10.72,4.8-10.72,10.72v62.94c0,5.92,4.8,10.72,10.72,10.72h62.94c5.92,0,10.72-4.8,10.72-10.72v-62.94c0-5.92-4.8-10.72-10.72-10.72Zm-27,42.18l2.52,10.38c1.15,4.73-2.43,9.3-7.31,9.3s-8.46-4.56-7.31-9.3l2.52-10.38.76-3.14c-3.27-1.52-5.55-4.83-5.55-8.67,0-5.64,4.89-10.15,10.66-9.51,4.26.47,7.77,3.85,8.37,8.09.64,4.44-1.78,8.39-5.45,10.09l.76,3.14Z"/><path class="cls-3" d="m127.91,140.6h-62.94c-7.01,0-12.72-5.7-12.72-12.72v-62.94c0-7.01,5.7-12.72,12.72-12.72h62.94c7.01,0,12.72,5.7,12.72,12.72v62.94c0,7.01-5.7,12.72-12.72,12.72Zm-62.94-84.38c-4.81,0-8.72,3.91-8.72,8.72v62.94c0,4.81,3.91,8.72,8.72,8.72h62.94c4.81,0,8.72-3.91,8.72-8.72v-62.94c0-4.81-3.91-8.72-8.72-8.72h-62.94Zm31.16,61.86c-2.94,0-5.67-1.33-7.48-3.64-1.82-2.31-2.46-5.28-1.77-8.13l2.93-12.05c-3.23-2.12-5.25-5.76-5.25-9.68,0-3.29,1.4-6.43,3.85-8.62,2.45-2.19,5.74-3.24,9.03-2.88,5.14.57,9.4,4.69,10.13,9.8.65,4.56-1.37,8.94-5.12,11.38l.4,1.66h0s2.52,10.38,2.52,10.38c.69,2.86.05,5.82-1.77,8.13-1.82,2.31-4.54,3.64-7.49,3.64Zm0-41.06c-1.87,0-3.63.67-5.04,1.93-1.6,1.43-2.52,3.49-2.52,5.64,0,2.93,1.72,5.62,4.39,6.86.87.4,1.33,1.36,1.1,2.29l-3.29,13.52c-.4,1.66-.03,3.38,1.02,4.72,1.05,1.34,2.64,2.11,4.34,2.11s3.29-.77,4.34-2.11c1.05-1.34,1.43-3.06,1.02-4.72l-3.29-13.52c-.23-.93.24-1.89,1.1-2.29,3.06-1.42,4.79-4.63,4.31-7.99-.48-3.33-3.26-6.02-6.61-6.39-.29-.03-.59-.05-.88-.05Z"/></svg>
