<?xml version="1.0" encoding="UTF-8"?><svg id="Security_Networking" xmlns="http://www.w3.org/2000/svg" viewBox="0 0 192 192"><defs><style>.cls-1{fill:#9063cd;}.cls-2{fill:#464646;}</style></defs><path class="cls-1" d="m168.97,44.49c0,7.04-11.72,13.29-29.77,17.17-12.1,2.59-27.04,4.13-43.2,4.13s-31.11-1.54-43.2-4.13c-18.06-3.88-29.77-10.13-29.77-17.17,0-11.77,32.67-21.3,72.97-21.3s72.97,9.53,72.97,21.3Z"/><path class="cls-2" d="m96,67.8c-15.79,0-30.88-1.44-43.62-4.18-27.28-5.86-31.35-14.5-31.35-19.13,0-6.76,7.89-12.63,22.81-16.99,13.96-4.07,32.48-6.32,52.16-6.32s38.2,2.24,52.16,6.32c14.93,4.36,22.81,10.23,22.81,16.99,0,4.63-4.07,13.26-31.35,19.12-12.76,2.73-27.84,4.18-43.62,4.18Zm0-42.61c-19.31,0-37.44,2.19-51.04,6.16-12.48,3.64-19.93,8.56-19.93,13.15,0,1.53,1.36,9.45,28.19,15.21,12.47,2.67,27.27,4.09,42.78,4.09s30.3-1.41,42.78-4.09c26.83-5.76,28.19-13.68,28.19-15.21,0-9.13-29.15-19.3-70.97-19.3Z"/><path class="cls-2" d="m128.36,99.92c-.69,0-1.33-.35-1.7-.95-6.61-10.73-18.07-17.13-30.66-17.13s-24.04,6.4-30.66,17.13c-.42.68-1.2,1.04-1.98.93-3.75-.53-7.44-1.18-10.99-1.94-27.28-5.86-31.35-14.5-31.35-19.13v-34.34c0-1.1.9-2,2-2s2,.9,2,2c0,1.53,1.36,9.45,28.19,15.21,12.5,2.68,27.3,4.1,42.79,4.1s30.26-1.42,42.78-4.1c26.83-5.77,28.19-13.69,28.19-15.21,0-1.1.9-2,2-2s2,.9,2,2v34.34c0,4.63-4.07,13.26-31.35,19.13-3.54.76-7.23,1.41-10.98,1.94-.09.01-.19.02-.28.02ZM25.02,52.35v26.48c0,1.53,1.36,9.45,28.19,15.22,3.05.65,6.22,1.23,9.44,1.71,7.44-11.24,19.81-17.92,33.35-17.92s25.91,6.67,33.35,17.91c3.22-.48,6.38-1.06,9.43-1.71,26.83-5.77,28.19-13.69,28.19-15.21v-26.48c-4.08,3.83-12.08,7.98-27.35,11.26-12.79,2.74-27.87,4.18-43.62,4.18s-30.85-1.45-43.63-4.18c-15.27-3.28-23.27-7.43-27.35-11.26Z"/><path class="cls-2" d="m60.65,133.81c-.11,0-.21,0-.32-.03-2.77-.45-5.44-.95-7.95-1.49-27.27-5.86-31.35-14.5-31.35-19.12v-34.34c0-1.1.9-2,2-2s2,.9,2,2c0,5.65,10.8,11.48,28.19,15.22,3.45.74,7.06,1.38,10.71,1.89.67.09,1.24.52,1.53,1.13s.25,1.33-.11,1.9c-3.49,5.65-5.34,12.18-5.34,18.87,0,4.57.84,9.02,2.5,13.24.26.67.15,1.43-.3,1.99-.38.48-.96.75-1.56.75Zm-35.62-47.12v26.48c0,5.65,10.8,11.48,28.19,15.21,1.43.31,2.91.6,4.44.88-1.1-3.69-1.65-7.52-1.65-11.43,0-6.43,1.54-12.73,4.47-18.38-2.75-.44-5.47-.95-8.1-1.51-15.27-3.28-23.27-7.43-27.35-11.26Z"/><path class="cls-2" d="m131.36,133.81c-.6,0-1.17-.27-1.56-.75-.45-.56-.57-1.32-.3-1.99,1.66-4.22,2.5-8.67,2.5-13.24,0-6.69-1.85-13.22-5.34-18.87-.35-.57-.4-1.29-.11-1.9s.86-1.04,1.53-1.13c3.65-.52,7.25-1.16,10.7-1.9,17.39-3.74,28.19-9.57,28.19-15.21,0-1.1.9-2,2-2s2,.9,2,2v34.34c0,4.63-4.07,13.26-31.35,19.13-2.5.54-5.17,1.04-7.94,1.49-.11.02-.21.03-.32.03Zm.17-34.35c2.93,5.65,4.47,11.94,4.47,18.38,0,3.9-.55,7.73-1.65,11.43,1.53-.28,3.01-.57,4.43-.88,17.39-3.74,28.19-9.57,28.19-15.21v-26.48c-4.08,3.83-12.08,7.98-27.35,11.26-2.62.56-5.33,1.07-8.09,1.51Z"/><path class="cls-2" d="m96,170.81c-15.79,0-30.88-1.44-43.63-4.17-27.28-5.86-31.35-14.5-31.35-19.13v-34.34c0-1.1.9-2,2-2s2,.9,2,2c0,1.53,1.36,9.45,28.19,15.21,2.44.53,5.05,1.02,7.75,1.45.7.11,1.28.58,1.54,1.24,5.47,13.83,18.62,22.77,33.5,22.77s28.02-8.94,33.5-22.77c.26-.65.84-1.12,1.54-1.24,2.7-.44,5.31-.93,7.74-1.45,26.83-5.77,28.19-13.69,28.19-15.21,0-1.1.9-2,2-2s2,.9,2,2v34.34c0,4.63-4.07,13.26-31.35,19.13-12.76,2.73-27.84,4.17-43.62,4.17ZM25.02,121.03v26.48c0,1.53,1.36,9.45,28.19,15.21,12.48,2.67,27.27,4.09,42.79,4.09s30.29-1.41,42.78-4.09c26.83-5.77,28.19-13.69,28.19-15.21v-26.48c-4.08,3.83-12.08,7.98-27.35,11.26-2.16.47-4.46.91-6.84,1.31-6.33,14.76-20.65,24.24-36.78,24.24s-30.46-9.48-36.78-24.24c-2.38-.4-4.67-.84-6.85-1.31-15.27-3.28-23.26-7.43-27.35-11.26Z"/><path class="cls-2" d="m96,157.84c-16.53,0-31.14-9.93-37.22-25.29-1.85-4.69-2.78-9.64-2.78-14.71,0-7.44,2.05-14.69,5.94-20.97,7.35-11.91,20.08-19.03,34.06-19.03s26.71,7.11,34.06,19.03c3.88,6.28,5.94,13.53,5.94,20.97,0,5.07-.93,10.02-2.78,14.7-6.1,15.37-20.7,25.3-37.22,25.3Zm0-76c-12.58,0-24.04,6.4-30.66,17.13-3.5,5.65-5.34,12.18-5.34,18.87,0,4.57.84,9.02,2.5,13.24,5.47,13.83,18.62,22.76,33.5,22.76s28.02-8.94,33.5-22.77c1.66-4.21,2.5-8.67,2.5-13.23,0-6.69-1.85-13.22-5.34-18.87-6.62-10.73-18.08-17.13-30.66-17.13Z"/><path class="cls-2" d="m68.15,129.75l8.56-24.31c.7-1.99,2.58-3.31,4.68-3.31h0c2.1,0,3.98,1.33,4.68,3.31l8.57,24.31c.65,1.85-.72,3.8-2.69,3.8h0c-1.22,0-2.31-.78-2.7-1.94l-1.95-5.81h-11.81l-1.94,5.8c-.39,1.16-1.48,1.95-2.7,1.95h0c-1.97,0-3.34-1.94-2.69-3.8Zm17.61-8.52l-4.25-12.66h-.25l-4.25,12.66h8.74Z"/><path class="cls-2" d="m98.13,130.55v-25.42c0-1.66,1.34-3,3-3h7.86c9.36,0,15.03,5.89,15.03,15.68s-5.68,15.74-15.25,15.74h-7.65c-1.66,0-3-1.34-3-3Zm10.37-1.92c6.55,0,9.88-3.59,9.88-10.82s-3.33-10.75-9.71-10.75h-4.85v21.57h4.68Z"/></svg>
