<?xml version="1.0" encoding="utf-8"?>
<!-- Generator: Adobe Illustrator 28.1.0, SVG Export Plug-In . SVG Version: 6.00 Build 0)  -->
<svg version="1.1" id="Security_Networking" xmlns="http://www.w3.org/2000/svg" xmlns:xlink="http://www.w3.org/1999/xlink"
	 x="0px" y="0px" viewBox="0 0 192 192" style="enable-background:new 0 0 192 192;" xml:space="preserve">
<style type="text/css">
	.st0{fill:#FFFFFF;}
</style>
<g>
	<path class="st0" d="M96.3,179.7c-0.3,0-0.6-0.1-0.9-0.2l-1.8-0.8c-25.4-12.2-37.7-19.2-48-30.9c-8.8-10.1-14.1-24.5-14.1-38.6
		V33.3c0-1,0.8-1.9,1.8-2l3.7-0.3c20-1.6,38.8-7.6,56.1-17.8l2.1-1.2c0.6-0.4,1.4-0.4,2,0l2.1,1.2c17,10,36.3,16.2,56.1,17.8
		l3.7,0.3c1,0.1,1.8,0.9,1.8,2v75.9c0,14.1-5.3,28.6-14.1,38.6c-10.3,11.7-22.5,18.6-47.9,30.9l-1.8,0.8
		C96.9,179.7,96.6,179.7,96.3,179.7L96.3,179.7z M35.6,35.2v74c0,13.2,4.9,26.6,13.1,36c9.8,11.1,21.8,17.9,46.7,29.9l0.9,0.4
		l0.9-0.4c24.9-12,36.9-18.8,46.7-29.9c8.2-9.3,13.1-22.8,13.1-36v-74l-1.9-0.2c-20.3-1.6-40.3-7.9-57.8-18.3l-1-0.6l-1,0.6
		C77.5,27.2,58.1,33.4,37.5,35C37.5,35,35.6,35.2,35.6,35.2z"/>
</g>
<path class="st0" d="M132.7,104.9c-1.6,0-2.9,0.6-4,1.6l-19.6-9.1c1.3-5-1-10.3-5.8-12.8c-1-0.5-2-0.9-3.1-1.1V66.2
	c2.2-0.8,3.7-2.9,3.7-5.3c0-3.1-2.5-5.7-5.7-5.7s-5.7,2.5-5.7,5.7c0,2.4,1.5,4.5,3.7,5.3v17.4c-0.5,0.1-1,0.2-1.5,0.4
	c-2.3,0.8-4.3,2.2-5.7,4.2l-16.3-7.6c0-0.1,0-0.3,0-0.4c0-3.1-2.5-5.7-5.7-5.7s-5.7,2.5-5.7,5.7s2.5,5.7,5.7,5.7
	c1.6,0,2.9-0.6,4-1.6l16.3,7.5c-0.6,2.1-0.5,4.3,0.2,6.4c0,0.1,0.1,0.2,0.1,0.3l-19.6,11c-1-0.9-2.3-1.5-3.8-1.5
	c-3.1,0-5.7,2.5-5.7,5.7s2.5,5.7,5.7,5.7s5.7-2.5,5.7-5.7c0-0.2,0-0.4,0-0.6l19.8-11.1c1,1.2,2.1,2.1,3.5,2.8c1,0.5,2,0.8,3.1,1
	v21.8c-2.1,0.8-3.7,2.9-3.7,5.3c0,3.1,2.5,5.7,5.7,5.7s5.7-2.5,5.7-5.7c0-2.4-1.5-4.5-3.7-5.3v-21.8c0.5-0.1,1-0.2,1.5-0.4
	c2.4-0.8,4.4-2.3,5.8-4.3l19.6,9.1c0,0.1,0,0.3,0,0.4c0,3.1,2.5,5.7,5.7,5.7s5.7-2.5,5.7-5.7S135.8,104.9,132.7,104.9L132.7,104.9z
	 M104.6,97.9c-1.8,3.5-6.1,4.9-9.7,3.1c-3.5-1.8-4.9-6.1-3.1-9.7s6.1-4.9,9.7-3.1C105,90.1,106.4,94.4,104.6,97.9z"/>
</svg>
