<?xml version="1.0" encoding="UTF-8"?>
<svg id="Security_Networking" data-name="Security Networking" xmlns="http://www.w3.org/2000/svg" viewBox="0 0 192 192">
  <defs>
    <style>
      .cls-1 {
        fill: #464646;
      }

      .cls-1, .cls-2, .cls-3 {
        stroke-width: 0px;
      }

      .cls-2 {
        fill: #3cb17e;
      }

      .cls-3 {
        fill: #fff;
      }
    </style>
  </defs>
  <g>
    <path class="cls-2" d="m96.31,177.73l-1.75-.84c-25.15-12.09-37.28-18.97-47.33-30.39-8.54-9.7-13.63-23.65-13.63-37.3V33.33l3.72-.29c20.31-1.62,39.46-7.69,56.92-18.02l2.06-1.22,2.06,1.22c17.21,10.19,36.89,16.43,56.92,18.02l3.72.29v75.88c0,13.65-5.1,27.61-13.63,37.3-10.05,11.42-22.18,18.3-47.32,30.39l-1.75.84Z"/>
    <path class="cls-1" d="m96.31,179.73c-.3,0-.59-.07-.87-.2l-1.75-.84c-25.41-12.21-37.69-19.2-47.96-30.87-8.85-10.05-14.13-24.49-14.13-38.62V33.33c0-1.04.8-1.91,1.84-1.99l3.72-.29c19.99-1.59,38.85-7.57,56.06-17.75l2.06-1.22c.63-.37,1.41-.37,2.04,0l2.06,1.22c16.96,10.04,36.35,16.18,56.06,17.75l3.72.29c1.04.08,1.84.95,1.84,1.99v75.88c0,14.14-5.28,28.58-14.13,38.62-10.26,11.66-22.54,18.65-47.95,30.87l-1.75.84c-.27.13-.57.2-.87.2ZM35.6,35.18v74.03c0,13.19,4.91,26.64,13.13,35.98,9.8,11.14,21.79,17.94,46.69,29.91l.88.43.88-.43c24.9-11.97,36.88-18.77,46.69-29.91,8.23-9.34,13.14-22.78,13.14-35.98V35.18l-1.87-.15c-20.32-1.62-40.3-7.94-57.79-18.3l-1.04-.62-1.04.62c-17.74,10.5-37.18,16.66-57.79,18.3l-1.88.15Z"/>
  </g>
  <path class="cls-3" d="m132.72,104.91c-1.55,0-2.95.62-3.97,1.63l-19.64-9.11c1.26-4.97-1.02-10.34-5.77-12.76-.99-.51-2.04-.86-3.1-1.05v-17.42c2.15-.81,3.67-2.88,3.67-5.3,0-3.13-2.54-5.67-5.67-5.67s-5.67,2.54-5.67,5.67c0,2.43,1.53,4.49,3.67,5.3v17.43c-.49.09-.98.2-1.46.36-2.32.75-4.28,2.21-5.67,4.17l-16.3-7.56c.01-.14.02-.27.02-.42,0-3.13-2.54-5.67-5.67-5.67s-5.67,2.54-5.67,5.67,2.54,5.67,5.67,5.67c1.55,0,2.95-.62,3.97-1.63l16.27,7.54c-.56,2.08-.52,4.27.16,6.37.03.09.07.17.1.26l-19.63,10.97c-1.01-.92-2.35-1.49-3.83-1.49-3.13,0-5.67,2.54-5.67,5.67s2.54,5.67,5.67,5.67,5.67-2.54,5.67-5.67c0-.21-.01-.41-.03-.61l19.78-11.05c.96,1.15,2.14,2.1,3.51,2.8.99.51,2.04.84,3.1,1.03v21.82c-2.14.81-3.67,2.88-3.67,5.3,0,3.13,2.54,5.67,5.67,5.67s5.67-2.54,5.67-5.67c0-2.43-1.53-4.49-3.67-5.3v-21.81c.49-.09.98-.21,1.46-.36,2.37-.77,4.36-2.27,5.75-4.29l19.62,9.1c-.01.14-.02.28-.02.42,0,3.13,2.54,5.67,5.67,5.67s5.67-2.54,5.67-5.67-2.54-5.67-5.67-5.67Zm-28.09-6.98c-1.8,3.53-6.13,4.94-9.66,3.13-3.53-1.8-4.94-6.13-3.13-9.66s6.13-4.94,9.66-3.13c3.53,1.8,4.94,6.13,3.13,9.66Z"/>
</svg>
