<?xml version="1.0" encoding="UTF-8"?>
<svg id="Security_Networking" data-name="Security Networking" xmlns="http://www.w3.org/2000/svg" viewBox="0 0 192 192">
  <defs>
    <style>
      .cls-1 {
        fill: #464646;
      }

      .cls-1, .cls-2, .cls-3 {
        stroke-width: 0px;
      }

      .cls-2 {
        fill: #3cb17e;
      }

      .cls-3 {
        fill: #fff;
      }
    </style>
  </defs>
  <g>
    <path class="cls-2" d="m96.04,177.97l-1.75-.84c-25.15-12.09-37.28-18.97-47.33-30.39-8.54-9.7-13.63-23.65-13.63-37.3V33.57l3.72-.29c20.31-1.62,39.46-7.69,56.92-18.02l2.06-1.22,2.06,1.22c17.21,10.19,36.89,16.43,56.92,18.02l3.72.29v75.88c0,13.65-5.1,27.61-13.63,37.3-10.05,11.42-22.18,18.3-47.32,30.39l-1.75.84Z"/>
    <path class="cls-1" d="m96.04,179.97c-.3,0-.59-.07-.87-.2l-1.75-.84c-25.41-12.21-37.69-19.2-47.96-30.87-8.85-10.05-14.13-24.49-14.13-38.62V33.57c0-1.04.8-1.91,1.84-1.99l3.72-.29c19.99-1.59,38.85-7.57,56.06-17.75l2.06-1.22c.63-.37,1.41-.37,2.04,0l2.06,1.22c16.96,10.04,36.35,16.18,56.06,17.75l3.72.29c1.04.08,1.84.95,1.84,1.99v75.88c0,14.14-5.28,28.58-14.13,38.62-10.26,11.66-22.54,18.65-47.95,30.87l-1.75.84c-.27.13-.57.2-.87.2ZM35.33,35.42v74.03c0,13.19,4.91,26.64,13.13,35.98,9.8,11.14,21.79,17.94,46.69,29.91l.88.43.88-.43c24.9-11.97,36.88-18.77,46.69-29.91,8.23-9.33,13.14-22.78,13.14-35.98V35.42l-1.87-.15c-20.32-1.62-40.3-7.94-57.79-18.3l-1.04-.62-1.04.62c-17.74,10.5-37.18,16.66-57.79,18.3l-1.88.15Z"/>
  </g>
  <g>
    <path class="cls-3" d="m68.99,81.74h0c-.9,0-1.75-.44-2.27-1.19l-11.46-16.56h-.22v15.4c0,1.3-1.05,2.35-2.35,2.35h-.03c-1.3,0-2.35-1.05-2.35-2.35v-20.96c0-1.52,1.23-2.76,2.76-2.76h.02c.91,0,1.75.44,2.27,1.19l11.45,16.57h.23v-15.42c0-1.3,1.05-2.35,2.35-2.35h0c1.3,0,2.35,1.05,2.35,2.35v20.96c0,1.52-1.23,2.76-2.76,2.76Z"/>
    <path class="cls-3" d="m87.19,82.1c-6.85,0-11.97-4.98-11.97-13.39s5.13-13.39,11.97-13.39,11.97,4.96,11.97,13.39-5.14,13.39-11.97,13.39Zm0-22.54c-4.24,0-7.23,3.22-7.23,9.15s2.99,9.15,7.23,9.15,7.23-3.22,7.23-9.15-2.98-9.15-7.23-9.15Z"/>
    <path class="cls-3" d="m121.91,64.48c-.91,0-1.75-.52-2.1-1.36-.94-2.28-3.13-3.56-5.81-3.56-4.26,0-7.27,3.27-7.27,9.15s3.03,9.15,7.25,9.15c2.64,0,4.83-1.23,5.81-3.46.35-.81,1.19-1.3,2.07-1.3h0c1.73,0,2.81,1.85,2,3.38-1.73,3.3-5.23,5.62-9.95,5.62-6.87,0-11.94-4.98-11.94-13.39s5.13-13.39,11.94-13.39c4.55,0,8.28,2.09,10.05,5.8.74,1.55-.35,3.35-2.07,3.35h0Z"/>
    <path class="cls-3" d="m131.85,85.66h0c-1.28,0-2.21-1.22-1.88-2.45l7.35-27.31c.23-.85,1-1.44,1.88-1.44h0c1.28,0,2.21,1.22,1.88,2.45l-7.35,27.31c-.23.85-1,1.44-1.88,1.44Z"/>
    <path class="cls-3" d="m68.01,91.57c-2.95,0-4.71,1.44-4.72,3.4-.03,2.18,2.29,3.08,4.43,3.59l2.44.61c3.92.93,7.65,2.99,7.66,7.51-.01,4.59-3.64,7.71-9.89,7.71-4.66,0-8.01-1.72-9.41-4.86-.68-1.52.47-3.24,2.14-3.24h0c.95,0,1.76.59,2.15,1.46.78,1.75,2.72,2.6,5.08,2.6,3.08,0,5.19-1.49,5.2-3.72-.01-2.02-1.87-2.9-4.68-3.61l-2.96-.76c-4.29-1.11-6.95-3.26-6.95-7-.01-4.61,4.1-7.69,9.57-7.69,4.14,0,7.28,1.73,8.64,4.44.71,1.41-.34,3.08-1.92,3.08h-.29c-.85,0-1.58-.53-1.96-1.29-.71-1.42-2.33-2.23-4.54-2.23Z"/>
    <path class="cls-3" d="m92.34,114.34c-6.85,0-11.97-4.98-11.97-13.39s5.13-13.39,11.97-13.39,11.97,4.96,11.97,13.39-5.14,13.39-11.97,13.39Zm0-22.54c-4.24,0-7.23,3.22-7.23,9.15s2.99,9.15,7.23,9.15,7.23-3.22,7.23-9.15-2.98-9.15-7.23-9.15Z"/>
    <path class="cls-3" d="m127.05,96.72c-.91,0-1.75-.52-2.1-1.36-.94-2.28-3.13-3.56-5.81-3.56-4.26,0-7.27,3.27-7.27,9.15s3.03,9.15,7.25,9.15c2.64,0,4.83-1.23,5.81-3.46.35-.81,1.19-1.3,2.07-1.3h0c1.73,0,2.81,1.85,2,3.38-1.73,3.3-5.23,5.62-9.95,5.62-6.87,0-11.94-4.98-11.94-13.39s5.13-13.39,11.94-13.39c4.55,0,8.28,2.09,10.05,5.8.74,1.55-.35,3.35-2.07,3.35h0Z"/>
  </g>
  <g>
    <path class="cls-3" d="m64.74,120.14h9.19c.6,0,1.08.48,1.08,1.08h0c0,.6-.48,1.08-1.08,1.08h-3.32v10.79c0,.71-.57,1.28-1.28,1.28h0c-.71,0-1.28-.57-1.28-1.28v-10.79h-3.32c-.6,0-1.08-.48-1.08-1.08h0c0-.6.48-1.08,1.08-1.08Z"/>
    <path class="cls-3" d="m81.76,134.56c-3.74,0-6.54-2.72-6.54-7.31s2.8-7.31,6.54-7.31,6.54,2.71,6.54,7.31-2.81,7.31-6.54,7.31Zm0-12.31c-2.31,0-3.95,1.76-3.95,5s1.63,5,3.95,5,3.95-1.76,3.95-5-1.63-5-3.95-5Z"/>
    <path class="cls-3" d="m96.93,134.56c-3.74,0-6.54-2.72-6.54-7.31s2.8-7.31,6.54-7.31,6.54,2.71,6.54,7.31-2.81,7.31-6.54,7.31Zm0-12.31c-2.31,0-3.95,1.76-3.95,5s1.63,5,3.95,5,3.95-1.76,3.95-5-1.63-5-3.95-5Z"/>
    <path class="cls-3" d="m107.21,120.14h0c.71,0,1.29.58,1.29,1.29v10.78h5.19c.6,0,1.08.48,1.08,1.08h0c0,.6-.48,1.08-1.08,1.08h-6.76c-.55,0-1-.45-1-1v-11.94c0-.71.58-1.29,1.29-1.29Z"/>
    <path class="cls-3" d="m122.06,122.12c-1.61,0-2.57.79-2.58,1.86-.01,1.19,1.25,1.68,2.42,1.96l1.33.33c2.14.51,4.18,1.63,4.18,4.1,0,2.51-1.99,4.21-5.4,4.21-2.52,0-4.34-.92-5.11-2.6-.39-.85.21-1.82,1.15-1.82h0c.49,0,.96.28,1.14.73.4,1,1.48,1.48,2.8,1.48,1.68,0,2.84-.81,2.84-2.03,0-1.1-1.02-1.58-2.56-1.97l-1.62-.42c-2.34-.6-3.79-1.78-3.79-3.82,0-2.52,2.24-4.2,5.23-4.2,2.24,0,3.94.93,4.7,2.38.41.79-.19,1.73-1.08,1.73h0c-.48,0-.95-.23-1.15-.66-.38-.8-1.27-1.26-2.5-1.26Z"/>
  </g>
</svg>
