<?xml version="1.0" encoding="utf-8"?>
<!-- Generator: Adobe Illustrator 27.7.0, SVG Export Plug-In . SVG Version: 6.00 Build 0)  -->
<svg version="1.1" id="Security_Networking" xmlns="http://www.w3.org/2000/svg" xmlns:xlink="http://www.w3.org/1999/xlink"
	 x="0px" y="0px" viewBox="0 0 192 192" style="enable-background:new 0 0 192 192;" xml:space="preserve">
<style type="text/css">
	.st0{fill:#FFFFFF;}
</style>
<path class="st0" d="M96,180c-0.3,0-0.6-0.1-0.9-0.2l-1.8-0.8c-25.4-12.2-37.7-19.2-48-30.9c-8.8-10.1-14.1-24.5-14.1-38.6V33.6
	c0-1,0.8-1.9,1.8-2l3.7-0.3c20-1.6,38.8-7.6,56.1-17.8l2.1-1.2c0.6-0.4,1.4-0.4,2,0l2.1,1.2c17,10,36.3,16.2,56.1,17.8l3.7,0.3
	c1,0.1,1.8,0.9,1.8,2v75.9c0,14.1-5.3,28.6-14.1,38.6c-10.3,11.7-22.5,18.6-47.9,30.9l-1.8,0.8C96.6,179.9,96.3,180,96,180L96,180z
	 M35.3,35.4v74c0,13.2,4.9,26.6,13.1,36c9.8,11.1,21.8,17.9,46.7,29.9l0.9,0.4l0.9-0.4c24.9-12,36.9-18.8,46.7-29.9
	c8.2-9.3,13.1-22.8,13.1-36v-74l-1.9-0.2C134.5,33.6,114.5,27.3,97,17l-1-0.6L95,17C77.2,27.5,57.8,33.6,37.2,35.3
	C37.2,35.3,35.3,35.4,35.3,35.4z"/>
<path class="st0" d="M69,81.7L69,81.7c-0.9,0-1.8-0.4-2.3-1.2L55.2,64H55v15.4c0,1.3-1,2.3-2.3,2.3h0c-1.3,0-2.3-1.1-2.3-2.3v-21
	c0-1.5,1.2-2.8,2.8-2.8h0c0.9,0,1.8,0.4,2.3,1.2l11.5,16.6H67V58c0-1.3,1.1-2.3,2.3-2.3l0,0c1.3,0,2.3,1,2.3,2.3v21
	C71.7,80.5,70.5,81.7,69,81.7L69,81.7z"/>
<path class="st0" d="M87.2,82.1c-6.8,0-12-5-12-13.4s5.1-13.4,12-13.4s12,5,12,13.4S94,82.1,87.2,82.1z M87.2,59.6
	c-4.2,0-7.2,3.2-7.2,9.2s3,9.2,7.2,9.2s7.2-3.2,7.2-9.2S91.4,59.6,87.2,59.6z"/>
<path class="st0" d="M121.9,64.5c-0.9,0-1.8-0.5-2.1-1.4c-0.9-2.3-3.1-3.6-5.8-3.6c-4.3,0-7.3,3.3-7.3,9.1s3,9.2,7.2,9.2
	c2.6,0,4.8-1.2,5.8-3.5c0.3-0.8,1.2-1.3,2.1-1.3l0,0c1.7,0,2.8,1.8,2,3.4c-1.7,3.3-5.2,5.6-9.9,5.6c-6.9,0-11.9-5-11.9-13.4
	s5.1-13.4,11.9-13.4c4.6,0,8.3,2.1,10.1,5.8C124.7,62.7,123.6,64.5,121.9,64.5L121.9,64.5L121.9,64.5z"/>
<path class="st0" d="M131.8,85.7L131.8,85.7c-1.3,0-2.2-1.2-1.9-2.4l7.4-27.3c0.2-0.8,1-1.4,1.9-1.4l0,0c1.3,0,2.2,1.2,1.9,2.5
	l-7.4,27.3C133.5,85.1,132.7,85.7,131.8,85.7z"/>
<path class="st0" d="M68,91.6c-2.9,0-4.7,1.4-4.7,3.4c0,2.2,2.3,3.1,4.4,3.6l2.4,0.6c3.9,0.9,7.7,3,7.7,7.5c0,4.6-3.6,7.7-9.9,7.7
	c-4.7,0-8-1.7-9.4-4.9c-0.7-1.5,0.5-3.2,2.1-3.2l0,0c1,0,1.8,0.6,2.2,1.5c0.8,1.8,2.7,2.6,5.1,2.6c3.1,0,5.2-1.5,5.2-3.7
	c0-2-1.9-2.9-4.7-3.6l-3-0.8c-4.3-1.1-7-3.3-7-7c0-4.6,4.1-7.7,9.6-7.7c4.1,0,7.3,1.7,8.6,4.4c0.7,1.4-0.3,3.1-1.9,3.1h-0.3
	c-0.8,0-1.6-0.5-2-1.3C71.8,92.4,70.2,91.6,68,91.6L68,91.6z"/>
<path class="st0" d="M92.3,114.3c-6.8,0-12-5-12-13.4s5.1-13.4,12-13.4s12,5,12,13.4S99.1,114.3,92.3,114.3z M92.3,91.8
	c-4.2,0-7.2,3.2-7.2,9.2s3,9.2,7.2,9.2s7.2-3.2,7.2-9.2S96.6,91.8,92.3,91.8z"/>
<path class="st0" d="M127,96.7c-0.9,0-1.8-0.5-2.1-1.4c-0.9-2.3-3.1-3.6-5.8-3.6c-4.3,0-7.3,3.3-7.3,9.2s3,9.2,7.2,9.2
	c2.6,0,4.8-1.2,5.8-3.5c0.3-0.8,1.2-1.3,2.1-1.3l0,0c1.7,0,2.8,1.8,2,3.4c-1.7,3.3-5.2,5.6-9.9,5.6c-6.9,0-11.9-5-11.9-13.4
	s5.1-13.4,11.9-13.4c4.6,0,8.3,2.1,10.1,5.8C129.8,94.9,128.7,96.7,127,96.7L127,96.7L127,96.7z"/>
<path class="st0" d="M64.7,120.1h9.2c0.6,0,1.1,0.5,1.1,1.1l0,0c0,0.6-0.5,1.1-1.1,1.1h-3.3v10.8c0,0.7-0.6,1.3-1.3,1.3l0,0
	c-0.7,0-1.3-0.6-1.3-1.3v-10.8h-3.3c-0.6,0-1.1-0.5-1.1-1.1l0,0C63.6,120.6,64.1,120.1,64.7,120.1L64.7,120.1z"/>
<path class="st0" d="M81.7,134.6c-3.7,0-6.5-2.7-6.5-7.3s2.8-7.3,6.5-7.3s6.5,2.7,6.5,7.3C88.3,131.9,85.5,134.6,81.7,134.6z
	 M81.7,122.2c-2.3,0-3.9,1.8-3.9,5c0,3.2,1.6,5,3.9,5s3.9-1.8,3.9-5S84,122.2,81.7,122.2z"/>
<path class="st0" d="M96.9,134.6c-3.7,0-6.5-2.7-6.5-7.3s2.8-7.3,6.5-7.3s6.5,2.7,6.5,7.3C103.4,131.9,100.6,134.6,96.9,134.6z
	 M96.9,122.2c-2.3,0-3.9,1.8-3.9,5c0,3.2,1.6,5,3.9,5s3.9-1.8,3.9-5S99.2,122.2,96.9,122.2z"/>
<path class="st0" d="M107.2,120.1L107.2,120.1c0.7,0,1.3,0.6,1.3,1.3v10.8h5.2c0.6,0,1.1,0.5,1.1,1.1l0,0c0,0.6-0.5,1.1-1.1,1.1
	h-6.8c-0.6,0-1-0.4-1-1v-11.9C105.9,120.7,106.5,120.1,107.2,120.1L107.2,120.1z"/>
<path class="st0" d="M122,122.1c-1.6,0-2.6,0.8-2.6,1.9c0,1.2,1.2,1.7,2.4,2l1.3,0.3c2.1,0.5,4.2,1.6,4.2,4.1c0,2.5-2,4.2-5.4,4.2
	c-2.5,0-4.3-0.9-5.1-2.6c-0.4-0.9,0.2-1.8,1.2-1.8l0,0c0.5,0,1,0.3,1.1,0.7c0.4,1,1.5,1.5,2.8,1.5c1.7,0,2.8-0.8,2.8-2
	c0-1.1-1-1.6-2.6-2l-1.6-0.4c-2.3-0.6-3.8-1.8-3.8-3.8c0-2.5,2.2-4.2,5.2-4.2c2.2,0,3.9,0.9,4.7,2.4c0.4,0.8-0.2,1.7-1.1,1.7l0,0
	c-0.5,0-0.9-0.2-1.2-0.7C124.1,122.6,123.2,122.1,122,122.1z"/>
</svg>
