<?xml version="1.0" encoding="utf-8"?>
<!-- Generator: Adobe Illustrator 27.7.0, SVG Export Plug-In . SVG Version: 6.00 Build 0)  -->
<svg version="1.1" id="Security_Networking" xmlns="http://www.w3.org/2000/svg" xmlns:xlink="http://www.w3.org/1999/xlink"
	 x="0px" y="0px" viewBox="0 0 192 192" style="enable-background:new 0 0 192 192;" xml:space="preserve">
<style type="text/css">
	.st0{fill:#FFFFFF;}
</style>
<path class="st0" d="M96,179.7c-0.3,0-0.6-0.1-0.9-0.2l-1.8-0.8c-25.4-12.2-37.7-19.2-48-30.9c-8.8-10.1-14.1-24.5-14.1-38.6V33.3
	c0-1,0.8-1.9,1.8-2l3.7-0.3c20-1.6,38.8-7.6,56.1-17.8l2.1-1.2c0.6-0.4,1.4-0.4,2,0l2.1,1.2c17,10,36.3,16.2,56.1,17.8l3.7,0.3
	c1,0.1,1.8,0.9,1.8,2v75.9c0,14.1-5.3,28.6-14.1,38.6c-10.3,11.7-22.5,18.6-47.9,30.9l-1.8,0.8C96.6,179.6,96.3,179.7,96,179.7
	L96,179.7z M35.3,35.2v74c0,13.2,4.9,26.6,13.1,36c9.8,11.1,21.8,17.9,46.7,29.9l0.9,0.4l0.9-0.4c24.9-12,36.9-18.8,46.7-29.9
	c8.2-9.3,13.1-22.8,13.1-36v-74l-1.9-0.2c-20.3-1.6-40.3-7.9-57.8-18.3l-1-0.6l-1,0.6C77.2,27.2,57.8,33.4,37.2,35
	C37.2,35,35.3,35.2,35.3,35.2z"/>
<path class="st0" d="M79.3,100.7c-9.5,0-16.7-6.9-16.7-18.7s7.1-18.7,16.7-18.7S96,70.3,96,82S88.9,100.7,79.3,100.7z M79.3,69.2
	c-5.9,0-10.1,4.5-10.1,12.8s4.2,12.8,10.1,12.8S89.4,90.3,89.4,82S85.2,69.2,79.3,69.2z"/>
<path class="st0" d="M102.3,65.8c0-1.1,0.9-2,2-2h11.9c7.9,0,11.8,4,11.8,9.4c0,4.4-2.8,6.9-6.3,7.7v0.3c3.9,0.2,7.8,3.4,7.8,8.9
	s-4.1,9.9-12.4,9.9h-12.7c-1.1,0-2-0.9-2-2L102.3,65.8L102.3,65.8z M115.3,79.3c3.4,0,6-2,6-5.2c0-2.8-2-4.8-5.9-4.8h-6.7v10H115.3z
	 M115.9,94.7c4.8,0,6.8-2,6.8-4.9c0-3.2-2.5-5.7-6.6-5.7h-7.2v10.6H115.9L115.9,94.7z"/>
<path class="st0" d="M66.2,109c0-0.7,0.6-1.3,1.3-1.3h5.2c4,0,6.2,2.4,6.2,5.8s-2.2,5.8-6.2,5.8h-3.3v4.3c0,0.9-0.7,1.6-1.6,1.6l0,0
	c-0.9,0-1.6-0.7-1.6-1.6L66.2,109L66.2,109z M72.3,116.6c2.4,0,3.4-1.3,3.4-3.2s-1.1-3.1-3.4-3.1h-2.9v6.3H72.3z"/>
<path class="st0" d="M81.7,109c0-0.7,0.6-1.3,1.3-1.3h5.2c4,0,6.2,2.2,6.2,5.6c0,2.4-1.1,4.1-3.1,5l2.5,4.7c0.6,1-0.2,2.3-1.4,2.3
	l0,0c-0.6,0-1.1-0.3-1.4-0.8l-3-5.6h-3.2v4.8c0,0.9-0.7,1.6-1.6,1.6l0,0c-0.9,0-1.6-0.7-1.6-1.6L81.7,109L81.7,109z M87.8,116.1
	c2.3,0,3.4-1,3.4-2.9s-1.1-2.9-3.4-2.9h-2.9v5.8H87.8z"/>
<path class="st0" d="M105,125.4c-4.6,0-8-3.3-8-9s3.4-9,8-9s8,3.3,8,9S109.6,125.4,105,125.4z M105,110.2c-2.8,0-4.8,2.2-4.8,6.1
	s2,6.1,4.8,6.1s4.8-2.2,4.8-6.1S107.8,110.2,105,110.2z"/>
<path class="st0" d="M115.8,107.6h11.3c0.7,0,1.3,0.6,1.3,1.3l0,0c0,0.7-0.6,1.3-1.3,1.3h-4.1v13.3c0,0.9-0.7,1.6-1.6,1.6l0,0
	c-0.9,0-1.6-0.7-1.6-1.6v-13.3h-4.1c-0.7,0-1.3-0.6-1.3-1.3l0,0C114.5,108.2,115.1,107.6,115.8,107.6z"/>
</svg>
