<?xml version="1.0" encoding="UTF-8"?><svg id="Security_Networking" xmlns="http://www.w3.org/2000/svg" viewBox="0 0 192 192"><defs><style>.cls-1{fill:#fff;}.cls-1,.cls-2,.cls-3{stroke-width:0px;}.cls-2{fill:#507fbb;}.cls-3{fill:#464646;}</style></defs><circle class="cls-2" cx="101.67" cy="96" r="52.95"/><path class="cls-3" d="m97.03,158.21h0c-1.1-.08-1.93-.99-1.93-2.06h0c0-.06.01-.11.01-.16h0c.08-1.14,1.08-2,2.22-1.91h0c1.09.07,1.92.98,1.92,2.05h0v.17h0c-.08,1.09-.99,1.92-2.07,1.92h-.15Zm7.32-1.93c-.01-.05-.01-.1-.01-.17h0c0-1.07.82-1.98,1.91-2.06h0c1.14-.09,2.14.76,2.23,1.91h0c.01.05.01.1.01.16h0c0,1.08-.83,1.98-1.92,2.07h-.17c-1.07,0-1.98-.83-2.05-1.91Zm-16.75.5c-.96-.22-1.61-1.08-1.61-2.02h0c0-.15.01-.31.05-.47h0c.26-1.12,1.37-1.81,2.49-1.55h0c.95.22,1.61,1.08,1.61,2.02h0c0,.16-.02.31-.05.47h0c-.23.96-1.08,1.61-2.02,1.61h0c-.16,0-.31-.02-.47-.05Zm25.91-1.61c-.04-.16-.05-.31-.05-.47h0c-.01-.94.63-1.79,1.6-2.02h0c1.12-.26,2.23.42,2.5,1.54h0c.03.16.05.31.05.47h0c0,.94-.64,1.79-1.6,2.02h0c-.17.04-.32.06-.48.06h0c-.94,0-1.79-.64-2.02-1.61Zm-35.03-1.25c-.82-.33-1.31-1.11-1.31-1.94h0c.01-.26.05-.51.16-.76h0c.42-1.07,1.63-1.58,2.69-1.15h0c.81.32,1.31,1.11,1.3,1.93h0c0,.26-.04.52-.14.77h0c-.32.81-1.1,1.3-1.93,1.3h0c-.25,0-.52-.04-.77-.14Zm43.92-1.23c-.1-.25-.14-.51-.16-.77h0c0-.82.49-1.61,1.3-1.94h0c1.07-.42,2.27.08,2.7,1.14h0c.09.25.14.51.14.77h0c.01.82-.48,1.61-1.3,1.94h0c-.25.1-.52.15-.78.15h0c-.82,0-1.59-.5-1.92-1.3Zm-52.49-2.99c-.64-.38-1.01-1.06-1.02-1.76h0c0-.36.09-.74.29-1.08h0c.59-.98,1.85-1.32,2.84-.73h0c.65.38,1.02,1.06,1.02,1.76h0c.01.36-.08.74-.29,1.08h0c-.38.65-1.08,1.02-1.78,1.02h0c-.36,0-.73-.09-1.06-.29Zm60.88-.84c-.2-.33-.29-.7-.29-1.08h0c.01-.7.36-1.38,1.02-1.76h0c.97-.59,2.25-.27,2.84.71h0c.2.34.29.71.29,1.08h0c0,.69-.36,1.38-1.01,1.76h0c-.33.21-.7.3-1.07.3h0c-.7,0-1.39-.36-1.78-1.02Zm-68.7-4.64h0c-.5-.4-.76-1-.76-1.6h0c0-.47.16-.93.47-1.32h0c.74-.89,2.04-1.02,2.92-.29h0c.5.41.76,1,.76,1.6h0c0,.47-.16.93-.48,1.32h0c-.4.51-.99.77-1.6.77h0c-.47,0-.93-.16-1.32-.48Zm76.42-.42c-.32-.38-.48-.85-.48-1.32h0c0-.59.26-1.19.76-1.6h0c.88-.74,2.19-.61,2.91.27h0c.32.38.48.85.48,1.32h0c0,.6-.25,1.19-.75,1.61h0c-.39.32-.86.48-1.33.48h0c-.59,0-1.18-.26-1.6-.76Zm-83.31-6.18c-.36-.4-.54-.9-.53-1.4h0c0-.56.24-1.12.68-1.53h0c.86-.76,2.17-.68,2.93.17h0c.35.4.53.9.53,1.4h0c-.01.56-.24,1.12-.69,1.52h0c-.39.35-.89.53-1.38.53h0c-.57,0-1.14-.23-1.54-.68Zm90.17,0c-.46-.4-.68-.96-.69-1.53h0c-.01-.5.17-.99.53-1.4h0c.76-.85,2.06-.93,2.92-.17h0c.46.4.68.96.69,1.52h0c0,.5-.17.99-.53,1.4h0c-.4.47-.97.69-1.54.69h0c-.49,0-.98-.18-1.38-.52Zm-95.98-7.57c-.22-.34-.33-.73-.33-1.11h0c-.01-.68.32-1.36.94-1.76h0c.95-.62,2.24-.35,2.86.6h0c.23.35.34.74.34,1.12h0c0,.68-.33,1.36-.94,1.75h0c-.35.23-.74.34-1.13.34h0c-.67,0-1.34-.33-1.74-.94Zm101.82.41c-.62-.39-.95-1.07-.94-1.75h0c0-.38.1-.77.33-1.11h0c.62-.96,1.9-1.23,2.86-.62h0c.61.4.95,1.08.95,1.75h0c-.01.38-.11.78-.33,1.12h0c-.4.61-1.07.94-1.75.94h0c-.38,0-.78-.1-1.12-.33Zm-106.4-8.78h0c-.12-.28-.19-.57-.19-.86h0c0-.79.46-1.54,1.22-1.89h0c1.04-.47,2.27-.01,2.74,1.04h0c.12.27.19.57.19.85h0c0,.79-.46,1.54-1.22,1.89h0c-.27.12-.56.19-.85.19h0c-.79,0-1.54-.45-1.89-1.21Zm111.09.82c-.77-.34-1.22-1.1-1.22-1.89h0c0-.28.05-.57.18-.85h0c.48-1.05,1.7-1.51,2.74-1.05h0c.78.34,1.23,1.1,1.23,1.89h0c0,.29-.06.58-.19.85h0c-.34.78-1.1,1.23-1.9,1.23h0c-.28,0-.56-.06-.84-.19Zm-114.34-9.8c-.05-.19-.08-.37-.07-.56h0c0-.91.6-1.73,1.51-1.99h0c1.11-.3,2.25.34,2.55,1.45h0c.05.19.08.37.08.56h0c-.01.91-.61,1.73-1.52,1.99h0c-.19.05-.37.07-.55.07h0c-.91,0-1.74-.6-2-1.52Zm117.75,1.21c-.91-.25-1.51-1.07-1.52-1.97h0c0-.2.02-.38.07-.57h0c.3-1.11,1.44-1.76,2.55-1.46h0c.91.26,1.51,1.08,1.52,1.98h0c0,.19-.02.38-.07.57h0c-.25.92-1.09,1.52-2,1.52h0c-.18,0-.36-.02-.55-.07Zm-119.58-10.58c-.01-.08-.02-.18-.02-.26h0c.02-1.03.79-1.92,1.83-2.04h0c1.14-.12,2.17.68,2.3,1.82h0c.01.08.02.18.02.26h0c-.02,1.03-.79,1.92-1.83,2.04h0c-.08.01-.17.01-.25.01h0c-1.04,0-1.93-.78-2.05-1.83Zm121.64,1.59c-1.07-.12-1.84-1.04-1.83-2.08h0c0-.07,0-.14.01-.22h0c.12-1.13,1.15-1.95,2.29-1.82h0c1.07.12,1.85,1.04,1.84,2.08h0c0,.07-.01.13-.02.21h0c-.11,1.06-1.02,1.84-2.05,1.84h0c-.08,0-.16,0-.24-.01Zm-120.03-8.97c-1.12-.04-2.01-.96-2-2.09h0s0-.03.01-.05h0c.03-1.14.99-2.03,2.13-2h0c1.13.04,2.01.97,2,2.09h0v.05h0c-.04,1.12-.95,2-2.06,2h-.08Zm118.53-2.23v-.11h0c.02-1.09.89-2,2-2.04h0c1.14-.04,2.1.85,2.15,1.99h0v.05h0c.02,1.13-.86,2.05-1.99,2.1h-.08c-1.11,0-2.02-.88-2.07-1.99Zm-117.82-6.97c-1-.2-1.69-1.08-1.68-2.06h0c0-.11.01-.24.03-.36h0c.22-1.12,1.31-1.87,2.42-1.65h0c1,.19,1.7,1.07,1.69,2.05h0c0,.12-.01.24-.04.36h0c-.19.99-1.06,1.69-2.03,1.69h0c-.12,0-.26-.01-.39-.03Zm116.81-1.89c-.03-.13-.04-.28-.04-.41h0c.01-.96.69-1.82,1.68-2.01h0c1.13-.22,2.22.52,2.44,1.64h0c.02.14.03.28.03.42h0c-.01.96-.69,1.81-1.68,2.01h0c-.13.02-.26.03-.39.03h0c-.97,0-1.84-.68-2.03-1.68Zm-114.69-7.11c-.85-.3-1.38-1.09-1.38-1.93h0c-.01-.24.03-.49.11-.72h0c.38-1.08,1.56-1.65,2.65-1.26h0c.84.3,1.37,1.09,1.38,1.94h0c0,.24-.04.48-.12.71h0c-.3.85-1.1,1.38-1.95,1.38h0c-.24,0-.47-.04-.69-.12Zm112.33-1.48c-.08-.23-.12-.48-.12-.7h0c.01-.85.53-1.65,1.37-1.95h0c1.08-.38,2.27.18,2.65,1.25h0c.09.24.12.48.12.71h0c0,.84-.53,1.63-1.37,1.94h0c-.24.08-.48.12-.7.12h0c-.85,0-1.65-.53-1.95-1.38Zm-108.87-7.09c-.69-.37-1.09-1.08-1.09-1.81h0c0-.33.08-.67.25-.98h0c.55-1.01,1.8-1.39,2.81-.84h0c.69.37,1.09,1.08,1.09,1.81h0c0,.34-.08.67-.25.99h0c-.37.69-1.09,1.09-1.82,1.09h0c-.33,0-.67-.08-.98-.26Zm105.21-1.03c-.17-.31-.25-.65-.25-.98h0c0-.74.38-1.45,1.08-1.83h0c1.01-.54,2.27-.18,2.82.83h0c.17.32.25.65.25.98h0c0,.74-.38,1.45-1.08,1.83h0c-.31.17-.65.25-.99.25h0c-.73,0-1.44-.39-1.82-1.08Zm-100.48-6.9c-.55-.41-.83-1.04-.83-1.67h0c.01-.44.14-.87.42-1.23h0c.69-.91,1.99-1.09,2.9-.4h0c.54.41.83,1.04.82,1.67h0c0,.44-.13.87-.41,1.24h0c-.41.53-1.03.82-1.66.82h0c-.44,0-.87-.14-1.24-.42Zm95.63-.57h0c-.28-.37-.42-.81-.42-1.24h0c-.01-.62.27-1.25.82-1.66h0c.9-.7,2.21-.53,2.9.38h0c.28.37.42.8.42,1.23h0c.01.63-.27,1.25-.82,1.67h0c-.37.29-.82.42-1.25.42h0c-.62,0-1.24-.28-1.65-.81Zm-89.75-6.55c-.38-.39-.58-.91-.58-1.42h0c-.01-.55.21-1.1.63-1.51h0c.82-.79,2.13-.78,2.92.05h0c.39.39.58.91.59,1.42h0c0,.55-.21,1.1-.63,1.51h0c-.4.38-.92.58-1.44.58h0c-.54,0-1.09-.21-1.49-.63Zm83.82-.1h0c-.42-.4-.63-.95-.63-1.5h0c0-.52.2-1.03.58-1.43h0c.79-.82,2.1-.85,2.93-.05h0c.42.4.63.95.63,1.5h0c0,.51-.2,1.03-.58,1.42h0c-.4.42-.94.64-1.49.64h0c-.52,0-1.04-.2-1.44-.58Zm-76.91-6.04c-.26-.36-.38-.78-.38-1.19h0c0-.65.3-1.29.87-1.69h0c.93-.66,2.23-.45,2.89.49h0c.26.36.38.79.38,1.2h0c0,.64-.31,1.28-.88,1.69h0c-.36.26-.78.38-1.19.38h0c-.65,0-1.28-.31-1.69-.88Zm70.04.37h0c-.57-.4-.88-1.04-.88-1.69h0c0-.41.12-.84.37-1.2h0c.66-.93,1.96-1.16,2.89-.51h0c.57.4.88,1.05.88,1.69h0c0,.41-.12.84-.38,1.2h0c-.4.58-1.04.88-1.69.88h0c-.41,0-.83-.12-1.19-.37Zm-62.3-5.39c-.16-.3-.22-.63-.22-.94h0c.01-.76.42-1.48,1.14-1.83h0c1.03-.52,2.27-.1,2.79.92h0c.16.3.22.62.22.94h0c-.01.76-.42,1.47-1.15,1.83h0c-.29.15-.61.22-.92.22h0c-.76,0-1.49-.41-1.85-1.14Zm54.65.83c-.75-.37-1.16-1.12-1.16-1.89h0c.01-.3.07-.61.22-.89h0c.51-1.03,1.75-1.45,2.78-.94h0c.74.37,1.16,1.11,1.16,1.89h0c-.01.3-.08.6-.22.89h0c-.36.74-1.1,1.15-1.87,1.15h0c-.31,0-.62-.06-.91-.21Zm-46.22-4.61c-.06-.21-.09-.41-.09-.61h0c-.01-.88.55-1.71,1.44-1.99h0c1.09-.35,2.25.25,2.6,1.34h0c.07.21.1.41.1.62h0c0,.88-.56,1.7-1.44,1.99h0c-.21.06-.42.09-.63.09h0c-.88,0-1.7-.56-1.98-1.44Zm37.95,1.27c-.89-.28-1.45-1.1-1.45-1.99h0c0-.2.03-.4.09-.61h0c.34-1.09,1.51-1.7,2.6-1.35h0c.89.28,1.45,1.1,1.45,1.98h0c0,.21-.03.41-.09.61h0c-.28.89-1.1,1.45-1.98,1.45h0c-.21,0-.41-.03-.62-.09Zm-29.04-3.71c-.02-.1-.03-.22-.03-.32h0c0-1.01.73-1.89,1.75-2.05h0c1.13-.18,2.2.59,2.37,1.73h0c.01.1.02.21.02.31h0c.01,1.01-.73,1.9-1.75,2.05h0c-.1.02-.22.03-.32.03h0c-1,0-1.89-.74-2.04-1.75Zm20.36,1.69c-1.02-.16-1.75-1.05-1.75-2.05h0c0-.1,0-.21.02-.31h0c.18-1.13,1.23-1.91,2.36-1.74h0c1.03.16,1.76,1.05,1.76,2.05h0c0,.1-.01.21-.02.31h0c-.17,1.03-1.05,1.76-2.05,1.76h0c-.1,0-.21-.01-.32-.02Zm-9-.67h-.1c-1.15,0-2.08-.92-2.08-2.06h0c0-1.15.92-2.08,2.06-2.08h.25c1.14,0,2.07.92,2.07,2.07h0c0,1.14-.93,2.07-2.07,2.07h-.12Z"/><polygon class="cls-1" points="134.83 89.99 134.83 89.99 116.18 89.99 116.18 89.99 116.18 102.01 134.83 102.01 134.83 102.01 134.83 89.99"/><polygon class="cls-1" points="92.24 119.21 92.24 119.21 111 119.21 111 119.21 111 107.19 92.24 107.19 92.24 119.21"/><path class="cls-1" d="m134.83,82.94c0-5.6-4.56-10.05-10.05-10.05h-8.6v12.02h18.75l-.1-1.97h0Z"/><polygon class="cls-1" points="92.24 72.79 92.24 84.81 92.24 84.81 111 84.81 111 84.81 111 72.79 111 72.79 92.24 72.79"/><polygon class="cls-1" points="68.41 89.99 68.41 89.99 68.41 102.01 68.41 102.01 87.16 102.01 87.16 89.99 87.16 89.99 68.41 89.99"/><path class="cls-1" d="m116.18,119.21h8.6c5.6,0,10.05-4.56,10.05-10.05v-1.97h-18.75l.1,12.02h0Z"/><path class="cls-1" d="m68.41,109.06c0,5.6,4.56,10.05,10.05,10.05h8.6v-12.02h-18.65v1.97Z"/><path class="cls-1" d="m68.41,82.94v1.97h18.75v-12.12h-8.6c-5.6,0-10.15,4.56-10.15,10.15Z"/><path class="cls-3" d="m101.67,169.67c-40.62,0-73.67-33.05-73.67-73.67S61.05,22.33,101.67,22.33c19.73,0,38.25,7.65,52.13,21.54.81.81.81,2.12,0,2.93-.81.81-2.12.81-2.93,0-13.11-13.11-30.58-20.32-49.2-20.32-38.34,0-69.53,31.19-69.53,69.53s31.19,69.53,69.53,69.53c18.66,0,36.13-7.25,49.2-20.42.81-.81,2.12-.82,2.93-.01.81.81.82,2.12.01,2.93-13.85,13.96-32.37,21.65-52.14,21.65Z"/><path class="cls-3" d="m118.35,28.03c-1.14,0-2.07-.93-2.07-2.07v-15.13c0-1.14.93-2.07,2.07-2.07s2.07.93,2.07,2.07v15.13c0,1.14-.93,2.07-2.07,2.07Z"/><path class="cls-3" d="m86.34,28.03c-1.14,0-2.07-.93-2.07-2.07v-15.13c0-1.14.93-2.07,2.07-2.07s2.07.93,2.07,2.07v15.13c0,1.14-.93,2.07-2.07,2.07Z"/><path class="cls-3" d="m118.35,183.25c-1.14,0-2.07-.93-2.07-2.07v-15.13c0-1.14.93-2.07,2.07-2.07s2.07.93,2.07,2.07v15.13c0,1.14-.93,2.07-2.07,2.07Z"/><path class="cls-3" d="m86.34,183.25c-1.14,0-2.07-.93-2.07-2.07v-15.13c0-1.14.93-2.07,2.07-2.07s2.07.93,2.07,2.07v15.13c0,1.14-.93,2.07-2.07,2.07Z"/></svg>
