<?xml version="1.0" encoding="utf-8"?>
<!-- Generator: Adobe Illustrator 27.7.0, SVG Export Plug-In . SVG Version: 6.00 Build 0)  -->
<svg version="1.1" id="Security_Networking" xmlns="http://www.w3.org/2000/svg" xmlns:xlink="http://www.w3.org/1999/xlink"
	 x="0px" y="0px" viewBox="0 0 192 192" style="enable-background:new 0 0 192 192;" xml:space="preserve">
<style type="text/css">
	.st0{fill:#FFFFFF;}
</style>
<path class="st0" d="M96,180c-0.3,0-0.6-0.1-0.9-0.2l-1.8-0.8c-25.4-12.2-37.7-19.2-48-30.9c-8.8-10.1-14.1-24.5-14.1-38.6V33.6
	c0-1,0.8-1.9,1.8-2l3.7-0.3c20-1.6,38.8-7.6,56.1-17.8l2.1-1.2c0.6-0.4,1.4-0.4,2,0l2.1,1.2c17,10,36.3,16.2,56.1,17.8l3.7,0.3
	c1,0.1,1.8,0.9,1.8,2v75.9c0,14.1-5.3,28.6-14.1,38.6c-10.3,11.7-22.5,18.6-47.9,30.9l-1.8,0.8C96.6,179.9,96.3,180,96,180L96,180z
	 M35.3,35.4v74c0,13.2,4.9,26.6,13.1,36c9.8,11.1,21.8,17.9,46.7,29.9l0.9,0.4l0.9-0.4c24.9-12,36.9-18.8,46.7-29.9
	c8.2-9.3,13.1-22.8,13.1-36v-74l-1.9-0.2C134.5,33.6,114.5,27.3,97,17l-1-0.6L95,17C77.2,27.5,57.8,33.6,37.2,35.3
	C37.2,35.3,35.3,35.4,35.3,35.4z"/>
<path class="st0" d="M64.9,109.2c0-0.7,0.6-1.3,1.3-1.3h5.2c4,0,6.2,2.4,6.2,5.8s-2.2,5.8-6.2,5.8h-3.3v4.3c0,0.9-0.7,1.6-1.6,1.6
	l0,0c-0.9,0-1.6-0.7-1.6-1.6L64.9,109.2L64.9,109.2z M71,116.9c2.4,0,3.4-1.3,3.4-3.2s-1.1-3.1-3.4-3.1h-2.9v6.3H71z"/>
<path class="st0" d="M80.4,109.2c0-0.7,0.6-1.3,1.3-1.3h5.2c4,0,6.2,2.2,6.2,5.6c0,2.4-1.1,4.1-3.1,5l2.5,4.7c0.6,1-0.2,2.3-1.4,2.3
	l0,0c-0.6,0-1.1-0.3-1.4-0.8l-3-5.6h-3.2v4.8c0,0.9-0.7,1.6-1.6,1.6l0,0c-0.9,0-1.6-0.7-1.6-1.6L80.4,109.2L80.4,109.2z M86.5,116.3
	c2.3,0,3.4-1,3.4-2.9s-1.1-2.9-3.4-2.9h-2.9v5.8H86.5z"/>
<path class="st0" d="M103.6,125.6c-4.6,0-8-3.3-8-9s3.4-9,8-9s8,3.3,8,9S108.2,125.6,103.6,125.6z M103.6,110.5
	c-2.8,0-4.8,2.2-4.8,6.1s2,6.1,4.8,6.1s4.8-2.2,4.8-6.1S106.5,110.5,103.6,110.5z"/>
<path class="st0" d="M114.5,107.9h11.3c0.7,0,1.3,0.6,1.3,1.3l0,0c0,0.7-0.6,1.3-1.3,1.3h-4.1v13.3c0,0.9-0.7,1.6-1.6,1.6l0,0
	c-0.9,0-1.6-0.7-1.6-1.6v-13.3h-4.1c-0.7,0-1.3-0.6-1.3-1.3l0,0C113.2,108.5,113.7,107.9,114.5,107.9z"/>
<path class="st0" d="M63.2,67.9c-4.1,0-6.5,2-6.6,4.7c0,3,3.2,4.3,6.2,5l3.4,0.8c5.4,1.3,10.6,4.2,10.7,10.4
	c0,6.4-5.1,10.7-13.8,10.7c-6.8,0-11.6-2.6-13.3-7.4c-0.7-1.9,0.8-3.9,2.8-3.9h0.6c1.2,0,2.3,0.8,2.7,1.9c1,2.5,3.8,3.7,7.1,3.7
	c4.3,0,7.2-2.1,7.2-5.2c0-2.8-2.6-4-6.5-5l-4.1-1.1c-6-1.5-9.7-4.5-9.7-9.7c0-6.4,5.7-10.7,13.3-10.7c5.8,0,10.2,2.5,12.1,6.3
	c0.9,1.9-0.6,4.2-2.7,4.2h-0.4c-1.2,0-2.2-0.7-2.7-1.8C68.5,69.1,66.3,67.9,63.2,67.9L63.2,67.9z"/>
<path class="st0" d="M84.1,65.5c0-1.5,1.2-2.7,2.7-2.7h11.2c7.9,0,11.8,4,11.8,9.4c0,4.4-2.8,6.9-6.3,7.7v0.3
	c3.9,0.2,7.8,3.4,7.8,8.9s-4.1,9.9-12.4,9.9h-12c-1.5,0-2.7-1.2-2.7-2.7L84.1,65.5L84.1,65.5z M97.1,78.3c3.4,0,6-2,6-5.2
	c0-2.8-2-4.8-5.9-4.8h-6.6v10H97.1z M97.7,93.6c4.8,0,6.7-2,6.7-4.9c0-3.2-2.5-5.7-6.6-5.7h-7.2v10.6H97.7L97.7,93.6z"/>
<path class="st0" d="M129,76.2h0.3l7.1-11.7c0.6-1,1.6-1.5,2.7-1.5l0,0c2.5,0,4,2.7,2.7,4.8L133.6,81l8.3,13.3
	c1.3,2.1-0.2,4.9-2.7,4.9h-0.1c-1.1,0-2.1-0.6-2.7-1.5l-7.1-11.7h-0.3l-7.1,11.7c-0.6,0.9-1.6,1.5-2.7,1.5h0c-2.5,0-4-2.8-2.7-4.9
	l8.4-13.2l-8.3-13.3c-1.3-2.1,0.2-4.9,2.7-4.9l0,0c1.1,0,2.2,0.6,2.7,1.5L129,76.2L129,76.2z"/>
</svg>
