<?xml version="1.0" encoding="UTF-8"?>
<svg id="Security_Networking" data-name="Security Networking" xmlns="http://www.w3.org/2000/svg" viewBox="0 0 192 192">
  <defs>
    <style>
      .cls-1 {
        fill: #464646;
      }

      .cls-1, .cls-2, .cls-3 {
        stroke-width: 0px;
      }

      .cls-2 {
        fill: #3cb17e;
      }

      .cls-3 {
        fill: #fff;
      }
    </style>
  </defs>
  <g>
    <path class="cls-2" d="m96.04,177.97l-1.75-.84c-25.15-12.09-37.28-18.97-47.33-30.39-8.54-9.7-13.63-23.65-13.63-37.3V33.57l3.72-.29c20.31-1.62,39.46-7.69,56.92-18.02l2.06-1.22,2.06,1.22c17.21,10.19,36.89,16.43,56.92,18.02l3.72.29v75.88c0,13.65-5.1,27.61-13.63,37.3-10.05,11.42-22.18,18.3-47.32,30.39l-1.75.84Z"/>
    <path class="cls-1" d="m96.04,179.97c-.3,0-.59-.07-.87-.2l-1.75-.84c-25.41-12.21-37.69-19.2-47.96-30.87-8.85-10.05-14.13-24.49-14.13-38.62V33.57c0-1.04.8-1.91,1.84-1.99l3.72-.29c19.99-1.59,38.85-7.57,56.06-17.75l2.06-1.22c.63-.37,1.41-.37,2.04,0l2.06,1.22c16.96,10.04,36.35,16.18,56.06,17.75l3.72.29c1.04.08,1.84.95,1.84,1.99v75.88c0,14.14-5.28,28.58-14.13,38.62-10.26,11.66-22.54,18.65-47.95,30.87l-1.75.84c-.27.13-.57.2-.87.2ZM35.33,35.42v74.03c0,13.19,4.91,26.64,13.13,35.98,9.8,11.14,21.79,17.94,46.69,29.91l.88.43.88-.43c24.9-11.97,36.88-18.77,46.69-29.91,8.23-9.33,13.14-22.78,13.14-35.98V35.42l-1.87-.15c-20.32-1.62-40.3-7.94-57.79-18.3l-1.04-.62-1.04.62c-17.74,10.5-37.18,16.66-57.79,18.3l-1.88.15Z"/>
  </g>
  <g>
    <path class="cls-3" d="m77.09,68.65c-2.42,0-3.86,1.18-3.87,2.79-.02,1.79,1.88,2.53,3.63,2.94l2,.5c3.22.76,6.27,2.45,6.28,6.16-.01,3.77-2.99,6.33-8.11,6.33-3.78,0-6.52-1.38-7.68-3.91-.59-1.27.32-2.73,1.72-2.73h0c.78,0,1.45.49,1.76,1.2.64,1.43,2.23,2.13,4.17,2.13,2.53,0,4.26-1.22,4.27-3.05-.01-1.66-1.53-2.38-3.84-2.96l-2.43-.63c-3.52-.91-5.7-2.67-5.7-5.74-.01-3.78,3.36-6.31,7.85-6.31,3.31,0,5.85,1.36,7.01,3.49.66,1.21-.29,2.68-1.67,2.68h0c-.71,0-1.35-.41-1.66-1.05-.58-1.17-1.91-1.84-3.73-1.84Z"/>
    <path class="cls-3" d="m89.59,65.67h10.28c.9,0,1.62.73,1.62,1.62h0c0,.9-.73,1.62-1.62,1.62h-8.41v5.8h7.69c.9,0,1.62.73,1.62,1.62h0c0,.9-.73,1.62-1.62,1.62h-7.69v5.84h8.49c.9,0,1.62.73,1.62,1.62h0c0,.9-.73,1.62-1.62,1.62h-10.37c-1.1,0-2-.9-2-2v-17.38c0-1.1.9-2,2-2Z"/>
    <path class="cls-3" d="m120.24,72.88c-.74,0-1.43-.42-1.71-1.1-.77-1.87-2.57-2.93-4.77-2.93-3.5,0-5.96,2.68-5.96,7.51s2.48,7.51,5.95,7.51c2.17,0,3.97-1.01,4.76-2.84.29-.66.97-1.07,1.7-1.07h0c1.42,0,2.3,1.52,1.64,2.78-1.42,2.71-4.29,4.61-8.16,4.61-5.64,0-9.79-4.08-9.79-10.98s4.21-10.98,9.79-10.98c3.78,0,6.86,1.75,8.29,4.86.57,1.23-.36,2.64-1.72,2.64h-.04Z"/>
    <path class="cls-3" d="m44.27,96.95c0-1.1.9-2,2-2h6.02c4.91,0,7.54,2.76,7.54,6.84,0,2.9-1.33,5.05-3.84,6.07l3.1,5.68c.69,1.26-.22,2.8-1.66,2.8h0c-.7,0-1.34-.38-1.67-1l-3.66-6.83h-3.95v5.89c0,1.07-.87,1.94-1.94,1.94h0c-1.07,0-1.94-.87-1.94-1.94v-17.44Zm7.44,8.34c2.87,0,4.17-1.22,4.17-3.5s-1.29-3.6-4.19-3.6h-3.55v7.1h3.57Z"/>
    <path class="cls-3" d="m61.92,113.74l5.82-16.54c.48-1.35,1.75-2.26,3.19-2.26h0c1.43,0,2.71.9,3.18,2.25l5.83,16.54c.44,1.26-.49,2.58-1.83,2.58h0c-.83,0-1.57-.53-1.84-1.32l-1.33-3.95h-8.04l-1.32,3.95c-.26.79-1,1.32-1.84,1.32h0c-1.34,0-2.27-1.32-1.83-2.58Zm11.98-5.8l-2.89-8.61h-.17l-2.89,8.61h5.95Z"/>
    <path class="cls-3" d="m80.77,94.95h13.81c.9,0,1.62.73,1.62,1.62h0c0,.9-.73,1.62-1.62,1.62h-4.98s0,16.21,0,16.21c0,1.06-.86,1.92-1.92,1.92h0c-1.06,0-1.92-.86-1.92-1.92v-16.21h-4.98c-.9,0-1.62-.73-1.62-1.62h0c0-.9.73-1.62,1.62-1.62Z"/>
    <path class="cls-3" d="m101.43,116.33h0c-1.07,0-1.94-.87-1.94-1.94v-17.51c0-1.07.87-1.94,1.94-1.94h0c1.07,0,1.94.87,1.94,1.94v17.51c0,1.07-.87,1.94-1.94,1.94Z"/>
    <path class="cls-3" d="m122.88,116.33h0c-.74,0-1.44-.36-1.86-.97l-9.4-13.59h-.18v12.64c0,1.06-.86,1.93-1.93,1.93h-.02c-1.06,0-1.93-.86-1.93-1.93v-17.18c0-1.26,1.02-2.27,2.27-2.27h0c.75,0,1.45.37,1.87.98l9.39,13.59h.19v-12.65c0-1.06.86-1.93,1.93-1.93h0c1.06,0,1.93.86,1.93,1.93v17.19c0,1.25-1.01,2.26-2.26,2.26Z"/>
    <path class="cls-3" d="m138.66,98.13c-3.46,0-5.95,2.67-5.95,7.49s2.45,7.53,6.03,7.53c3.22,0,5.25-1.93,5.31-4.98h-3.41c-.84,0-1.51-.68-1.51-1.51h0c0-.84.68-1.51,1.51-1.51h5.16c1.1,0,2,.9,2,2v.57c0,5.51-3.79,8.92-9.08,8.92-5.9,0-9.91-4.2-9.91-10.96s4.2-11,9.79-11c3.6,0,6.57,1.7,8.07,4.36.7,1.23-.17,2.76-1.59,2.76h-.18c-.71,0-1.33-.43-1.66-1.06-.86-1.63-2.44-2.59-4.59-2.59Z"/>
  </g>
</svg>
