<?xml version="1.0" encoding="utf-8"?>
<!-- Generator: Adobe Illustrator 27.7.0, SVG Export Plug-In . SVG Version: 6.00 Build 0)  -->
<svg version="1.1" id="Security_Networking" xmlns="http://www.w3.org/2000/svg" xmlns:xlink="http://www.w3.org/1999/xlink"
	 x="0px" y="0px" viewBox="0 0 192 192" style="enable-background:new 0 0 192 192;" xml:space="preserve">
<style type="text/css">
	.st0{fill:#FFFFFF;}
</style>
<path class="st0" d="M96,180c-0.3,0-0.6-0.1-0.9-0.2l-1.8-0.8c-25.4-12.2-37.7-19.2-48-30.9c-8.8-10.1-14.1-24.5-14.1-38.6V33.6
	c0-1,0.8-1.9,1.8-2l3.7-0.3c20-1.6,38.8-7.6,56.1-17.8l2.1-1.2c0.6-0.4,1.4-0.4,2,0l2.1,1.2c17,10,36.3,16.2,56.1,17.8l3.7,0.3
	c1,0.1,1.8,0.9,1.8,2v75.9c0,14.1-5.3,28.6-14.1,38.6c-10.3,11.7-22.5,18.6-47.9,30.9l-1.8,0.8C96.6,179.9,96.3,180,96,180L96,180z
	 M35.3,35.4v74c0,13.2,4.9,26.6,13.1,36c9.8,11.1,21.8,17.9,46.7,29.9l0.9,0.4l0.9-0.4c24.9-12,36.9-18.8,46.7-29.9
	c8.2-9.3,13.1-22.8,13.1-36v-74l-1.9-0.2C134.5,33.6,114.5,27.3,97,17l-1-0.6L95,17C77.2,27.5,57.8,33.6,37.2,35.3
	C37.2,35.3,35.3,35.4,35.3,35.4z"/>
<path class="st0" d="M77.1,68.7c-2.4,0-3.9,1.2-3.9,2.8c0,1.8,1.9,2.5,3.6,2.9l2,0.5c3.2,0.8,6.3,2.4,6.3,6.2c0,3.8-3,6.3-8.1,6.3
	c-3.8,0-6.5-1.4-7.7-3.9c-0.6-1.3,0.3-2.7,1.7-2.7l0,0c0.8,0,1.4,0.5,1.8,1.2c0.6,1.4,2.2,2.1,4.2,2.1c2.5,0,4.3-1.2,4.3-3.1
	c0-1.7-1.5-2.4-3.8-3L75,77.4c-3.5-0.9-5.7-2.7-5.7-5.7c0-3.8,3.4-6.3,7.8-6.3c3.3,0,5.8,1.4,7,3.5c0.7,1.2-0.3,2.7-1.7,2.7l0,0
	c-0.7,0-1.3-0.4-1.7-1.1C80.2,69.3,78.9,68.7,77.1,68.7z"/>
<path class="st0" d="M89.6,65.7h10.3c0.9,0,1.6,0.7,1.6,1.6l0,0c0,0.9-0.7,1.6-1.6,1.6h-8.4v5.8h7.7c0.9,0,1.6,0.7,1.6,1.6l0,0
	c0,0.9-0.7,1.6-1.6,1.6h-7.7v5.8h8.5c0.9,0,1.6,0.7,1.6,1.6l0,0c0,0.9-0.7,1.6-1.6,1.6H89.5c-1.1,0-2-0.9-2-2V67.7
	C87.5,66.6,88.4,65.7,89.6,65.7L89.6,65.7z"/>
<path class="st0" d="M120.2,72.9c-0.7,0-1.4-0.4-1.7-1.1c-0.8-1.9-2.6-2.9-4.8-2.9c-3.5,0-6,2.7-6,7.5s2.5,7.5,5.9,7.5
	c2.2,0,4-1,4.8-2.8c0.3-0.7,1-1.1,1.7-1.1l0,0c1.4,0,2.3,1.5,1.6,2.8c-1.4,2.7-4.3,4.6-8.2,4.6c-5.6,0-9.8-4.1-9.8-11s4.2-11,9.8-11
	c3.8,0,6.9,1.8,8.3,4.9C122.5,71.5,121.6,72.9,120.2,72.9L120.2,72.9L120.2,72.9z"/>
<path class="st0" d="M44.2,96.9c0-1.1,0.9-2,2-2h6c4.9,0,7.5,2.8,7.5,6.8c0,2.9-1.3,5.1-3.8,6.1l3.1,5.7c0.7,1.3-0.2,2.8-1.7,2.8
	l0,0c-0.7,0-1.3-0.4-1.7-1l-3.7-6.8h-4v5.9c0,1.1-0.9,1.9-1.9,1.9l0,0c-1.1,0-1.9-0.9-1.9-1.9L44.2,96.9L44.2,96.9z M51.7,105.3
	c2.9,0,4.2-1.2,4.2-3.5s-1.3-3.6-4.2-3.6h-3.5v7.1H51.7z"/>
<path class="st0" d="M61.9,113.7l5.8-16.5c0.5-1.3,1.8-2.3,3.2-2.3l0,0c1.4,0,2.7,0.9,3.2,2.2l5.8,16.5c0.4,1.3-0.5,2.6-1.8,2.6l0,0
	c-0.8,0-1.6-0.5-1.8-1.3l-1.3-3.9h-8l-1.3,3.9c-0.3,0.8-1,1.3-1.8,1.3l0,0C62.4,116.3,61.4,115,61.9,113.7L61.9,113.7z M73.9,107.9
	L71,99.3h-0.2l-2.9,8.6H73.9z"/>
<path class="st0" d="M80.7,94.9h13.8c0.9,0,1.6,0.7,1.6,1.6l0,0c0,0.9-0.7,1.6-1.6,1.6h-5v16.2c0,1.1-0.9,1.9-1.9,1.9l0,0
	c-1.1,0-1.9-0.9-1.9-1.9V98.2h-5c-0.9,0-1.6-0.7-1.6-1.6l0,0C79.1,95.7,79.9,94.9,80.7,94.9L80.7,94.9z"/>
<path class="st0" d="M101.4,116.3L101.4,116.3c-1.1,0-1.9-0.9-1.9-1.9V96.9c0-1.1,0.9-1.9,1.9-1.9l0,0c1.1,0,1.9,0.9,1.9,1.9v17.5
	C103.3,115.5,102.5,116.3,101.4,116.3z"/>
<path class="st0" d="M122.8,116.3L122.8,116.3c-0.7,0-1.4-0.4-1.9-1l-9.4-13.6h-0.2v12.6c0,1.1-0.9,1.9-1.9,1.9h0
	c-1.1,0-1.9-0.9-1.9-1.9V97.2c0-1.3,1-2.3,2.3-2.3l0,0c0.8,0,1.4,0.4,1.9,1l9.4,13.6h0.2V96.9c0-1.1,0.9-1.9,1.9-1.9l0,0
	c1.1,0,1.9,0.9,1.9,1.9v17.2C125.1,115.3,124.1,116.3,122.8,116.3L122.8,116.3z"/>
<path class="st0" d="M138.6,98.1c-3.5,0-5.9,2.7-5.9,7.5s2.4,7.5,6,7.5c3.2,0,5.2-1.9,5.3-5h-3.4c-0.8,0-1.5-0.7-1.5-1.5l0,0
	c0-0.8,0.7-1.5,1.5-1.5h5.2c1.1,0,2,0.9,2,2v0.6c0,5.5-3.8,8.9-9.1,8.9c-5.9,0-9.9-4.2-9.9-11s4.2-11,9.8-11c3.6,0,6.6,1.7,8.1,4.4
	c0.7,1.2-0.2,2.8-1.6,2.8h-0.2c-0.7,0-1.3-0.4-1.7-1.1C142.3,99.1,140.8,98.1,138.6,98.1L138.6,98.1z"/>
</svg>
