<?xml version="1.0" encoding="UTF-8"?>
<svg id="Security_Networking" data-name="Security Networking" xmlns="http://www.w3.org/2000/svg" viewBox="0 0 192 192">
  <defs>
    <style>
      .cls-1 {
        fill: #464646;
      }

      .cls-1, .cls-2, .cls-3 {
        stroke-width: 0px;
      }

      .cls-2 {
        fill: #3cb17e;
      }

      .cls-3 {
        fill: #fff;
      }
    </style>
  </defs>
  <g>
    <path class="cls-2" d="m96.04,177.97l-1.75-.84c-25.15-12.09-37.28-18.97-47.33-30.39-8.54-9.7-13.63-23.65-13.63-37.3V33.57l3.72-.29c20.31-1.62,39.46-7.69,56.92-18.02l2.06-1.22,2.06,1.22c17.21,10.19,36.89,16.43,56.92,18.02l3.72.29v75.88c0,13.65-5.1,27.61-13.63,37.3-10.05,11.42-22.18,18.3-47.32,30.39l-1.75.84Z"/>
    <path class="cls-1" d="m96.04,179.97c-.3,0-.59-.07-.87-.2l-1.75-.84c-25.41-12.21-37.69-19.2-47.96-30.87-8.85-10.05-14.13-24.49-14.13-38.62V33.57c0-1.04.8-1.91,1.84-1.99l3.72-.29c19.99-1.59,38.85-7.57,56.06-17.75l2.06-1.22c.63-.37,1.41-.37,2.04,0l2.06,1.22c16.96,10.04,36.35,16.18,56.06,17.75l3.72.29c1.04.08,1.84.95,1.84,1.99v75.88c0,14.14-5.28,28.58-14.13,38.62-10.26,11.66-22.54,18.65-47.95,30.87l-1.75.84c-.27.13-.57.2-.87.2ZM35.34,35.42v74.03c0,13.19,4.91,26.64,13.13,35.98,9.8,11.14,21.79,17.94,46.69,29.91l.88.43.88-.43c24.89-11.97,36.88-18.77,46.69-29.91,8.23-9.33,13.14-22.78,13.14-35.98V35.42l-1.87-.15c-20.32-1.62-40.3-7.94-57.79-18.3l-1.04-.62-1.04.62c-17.74,10.5-37.18,16.66-57.79,18.3l-1.88.15Z"/>
  </g>
  <path class="cls-3" d="m121.78,40.44c-.78-.78-2.05-.78-2.83,0l-5.6,5.6v-.91c0-1.81-1.47-3.28-3.29-3.28h-27.04c-1.81,0-3.28,1.47-3.28,3.28v27.04c0,1.81,1.47,3.28,3.28,3.28h27.04c1.81,0,3.29-1.47,3.29-3.28v-20.48l8.43-8.43c.78-.78.78-2.05,0-2.83Zm-12.43,31.02h-25.61v-25.61h25.61v4.19l-13.17,13.17-6.62-6.62c-.78-.78-2.05-.78-2.83,0-.78.78-.78,2.05,0,2.83l8.03,8.03c.39.39.9.59,1.41.59s1.02-.2,1.41-.59l11.75-11.75v15.76Zm12.43,6.48c-.78-.78-2.05-.78-2.83,0l-5.6,5.6v-1.06c0-1.81-1.47-3.28-3.29-3.28h-27.04c-1.81,0-3.28,1.47-3.28,3.28v27.04c0,1.81,1.47,3.28,3.28,3.28h27.04c1.81,0,3.29-1.47,3.29-3.28v-20.33l8.43-8.43c.78-.78.78-2.05,0-2.83Zm-12.43,30.87h-25.61v-25.61h25.61v4.35l-13.17,13.17-6.62-6.62c-.78-.78-2.05-.78-2.83,0-.78.78-.78,2.05,0,2.83l8.03,8.03c.39.39.9.59,1.41.59s1.02-.2,1.41-.59l11.75-11.75v15.61Zm12.43,6.58c-.78-.78-2.05-.78-2.83,0l-5.6,5.6v-1.15c0-1.81-1.47-3.28-3.29-3.28h-27.04c-1.81,0-3.28,1.47-3.28,3.28v27.04c0,1.81,1.47,3.28,3.28,3.28h27.04c1.81,0,3.29-1.47,3.29-3.28v-20.23l8.43-8.43c.78-.78.78-2.05,0-2.83Zm-12.43,30.77h-25.61v-25.61h25.61v4.44l-13.17,13.17-6.62-6.62c-.78-.78-2.05-.78-2.83,0s-.78,2.05,0,2.83l8.03,8.03c.39.39.9.59,1.41.59s1.02-.2,1.41-.59l11.75-11.75v15.52Z"/>
</svg>
