<?xml version="1.0" encoding="utf-8"?>
<!-- Generator: Adobe Illustrator 27.7.0, SVG Export Plug-In . SVG Version: 6.00 Build 0)  -->
<svg version="1.1" id="Security_Networking" xmlns="http://www.w3.org/2000/svg" xmlns:xlink="http://www.w3.org/1999/xlink"
	 x="0px" y="0px" viewBox="0 0 192 192" style="enable-background:new 0 0 192 192;" xml:space="preserve">
<style type="text/css">
	.st0{fill:#FFFFFF;}
</style>
<path class="st0" d="M96,180c-0.3,0-0.6-0.1-0.9-0.2l-1.8-0.8c-25.4-12.2-37.7-19.2-48-30.9c-8.8-10.1-14.1-24.5-14.1-38.6V33.6
	c0-1,0.8-1.9,1.8-2l3.7-0.3c20-1.6,38.8-7.6,56.1-17.8l2.1-1.2c0.6-0.4,1.4-0.4,2,0l2.1,1.2c17,10,36.3,16.2,56.1,17.8l3.7,0.3
	c1,0.1,1.8,0.9,1.8,2v75.9c0,14.1-5.3,28.6-14.1,38.6c-10.3,11.7-22.5,18.6-47.9,30.9l-1.8,0.8C96.6,179.9,96.3,180,96,180L96,180z
	 M35.3,35.4v74c0,13.2,4.9,26.6,13.1,36c9.8,11.1,21.8,17.9,46.7,29.9l0.9,0.4l0.9-0.4c24.9-12,36.9-18.8,46.7-29.9
	c8.2-9.3,13.1-22.8,13.1-36v-74l-1.9-0.2C134.5,33.6,114.5,27.3,97,17l-1-0.6L95,17C77.2,27.5,57.8,33.6,37.2,35.3
	C37.2,35.3,35.3,35.4,35.3,35.4z"/>
<path class="st0" d="M110,75.5H83c-1.8,0-3.3-1.5-3.3-3.3v-27c0-1.8,1.5-3.3,3.3-3.3h27c1.8,0,3.3,1.5,3.3,3.3v27
	C113.3,74,111.8,75.5,110,75.5z M83.7,71.5h25.6V45.8H83.7V71.5z"/>
<path class="st0" d="M110,112.8H83c-1.8,0-3.3-1.5-3.3-3.3v-27c0-1.8,1.5-3.3,3.3-3.3h27c1.8,0,3.3,1.5,3.3,3.3v27
	C113.3,111.3,111.8,112.8,110,112.8z M83.7,108.8h25.6V83.2H83.7V108.8z"/>
<path class="st0" d="M110,150.2H83c-1.8,0-3.3-1.5-3.3-3.3v-27c0-1.8,1.5-3.3,3.3-3.3h27c1.8,0,3.3,1.5,3.3,3.3v27
	C113.3,148.7,111.8,150.2,110,150.2z M83.7,146.2h25.6v-25.6H83.7V146.2z"/>
<path class="st0" d="M96.1,68c-0.5,0-1-0.2-1.4-0.6l-8-8c-0.8-0.8-0.8-2,0-2.8c0.8-0.8,2.1-0.8,2.8,0l6.6,6.6l22.8-22.8
	c0.8-0.8,2.1-0.8,2.8,0s0.8,2,0,2.8L97.6,67.4C97.2,67.8,96.7,68,96.1,68L96.1,68z"/>
<path class="st0" d="M96.1,105.5c-0.5,0-1-0.2-1.4-0.6l-8-8c-0.8-0.8-0.8-2.1,0-2.8s2.1-0.8,2.8,0l6.6,6.6l22.8-22.8
	c0.8-0.8,2.1-0.8,2.8,0s0.8,2.1,0,2.8L97.6,105C97.2,105.3,96.7,105.5,96.1,105.5L96.1,105.5z"/>
<path class="st0" d="M96.1,143c-0.5,0-1-0.2-1.4-0.6l-8-8c-0.8-0.8-0.8-2.1,0-2.8s2.1-0.8,2.8,0l6.6,6.6l22.8-22.8
	c0.8-0.8,2.1-0.8,2.8,0s0.8,2.1,0,2.8l-24.2,24.2C97.2,142.8,96.7,143,96.1,143L96.1,143z"/>
</svg>
