<?xml version="1.0" encoding="UTF-8"?><svg id="Security_Networking" xmlns="http://www.w3.org/2000/svg" viewBox="0 0 192 192"><defs><style>.cls-1{fill:#6f706b;}.cls-1,.cls-2,.cls-3,.cls-4,.cls-5,.cls-6,.cls-7{stroke-width:0px;}.cls-2{fill:#507fbb;}.cls-3{fill:#c93d32;}.cls-4{fill:#72c3d3;}.cls-5{fill:#484744;}.cls-6{fill:#585854;}.cls-7{fill:#3e3d3a;}</style></defs><g id="Artwork_52"><path class="cls-6" d="m113.17,78.88c-.69,0-1.38,0-2.03-.16l-75.81,79.49c3.17,3.2,6.61,5.96,10.27,8.59l26.86-28.36c-.65-1.54-.98-3-.9-4.7-.21-7.46,5.63-13.59,13.05-13.63,1.74-.08,3.2.28,4.62.81l75.12-78.73c-2.76-3.44-5.72-6.77-9.09-9.85l-29.41,30.92c.16.73.2,1.26.2,1.95.25,7.3-5.59,13.43-12.88,13.67h0Z"/><path class="cls-5" d="m123.37,123.72c-.04-.53-.08-1.05-.08-1.74-.13-7.1,5.71-13.22,13.17-13.43h0c.53-.04,1.22-.04,1.7.08l39.92-42c-1.63-4.54-3.62-9-6.01-13.21l-73.99,77.63c.16.73.16,1.42.16,2.11.21,7.46-5.63,13.59-13.05,13.63-.69,0-1.38,0-2.03-.16l-25.85,27.06c4.3,2.11,8.68,3.89,13.51,5.26l52.54-55.22Z"/><path class="cls-1" d="m100.43,70.53c-.65-1.54-.94-3.16-1.06-4.74-.21-7.46,5.63-13.59,13.05-13.63,1.74-.08,3.37.32,4.79.85l27.55-28.97c-8.28-5.51-17.52-9.88-27.75-12.43C70.45,0,23.23,28.38,11.63,74.94c-6.55,26.28-.28,53,14.69,73.1l74.11-77.51h0Z"/><path class="cls-7" d="m86.16,182.42c42.7,4.95,83.47-22.45,94.19-65.44,2.95-11.84,3.31-23.64,1.51-35.12l-32.95,34.78h0c.65,1.54,1.1,3.2,1.14,5.11.21,7.46-5.63,13.59-13.05,13.63-1.74.08-3.53-.36-5.11-.93l-45.73,47.96Z"/><circle class="cls-2" cx="85.07" cy="133.48" r="6.69"/><circle class="cls-3" cx="112.71" cy="65.49" r="6.69"/><circle class="cls-4" cx="136.75" cy="121.88" r="6.69"/></g></svg>
