<?xml version="1.0" encoding="UTF-8"?>
<svg id="Security_Networking" data-name="Security Networking" xmlns="http://www.w3.org/2000/svg" viewBox="0 0 192 192">
  <defs>
    <style>
      .cls-1 {
        fill: #464646;
      }

      .cls-1, .cls-2, .cls-3 {
        stroke-width: 0px;
      }

      .cls-2 {
        fill: #3cb17e;
      }

      .cls-3 {
        fill: #fff;
      }
    </style>
  </defs>
  <g>
    <polygon class="cls-2" points="145.35 34.21 145.35 123.11 69.87 123.11 38.04 154.93 38.04 123.11 17.8 123.11 17.8 34.21 145.35 34.21"/>
    <path class="cls-3" d="m123.07,59.34H38.04c-1.1,0-2-.9-2-2s.9-2,2-2h85.03c1.1,0,2,.9,2,2s-.9,2-2,2Zm2,18.55c0-1.1-.9-2-2-2H38.04c-1.1,0-2,.9-2,2s.9,2,2,2h85.03c1.1,0,2-.9,2-2Zm0,20.55c0-1.1-.9-2-2-2H38.04c-1.1,0-2,.9-2,2s.9,2,2,2h85.03c1.1,0,2-.9,2-2Z"/>
  </g>
  <path class="cls-1" d="m181.91,47.67h-34.56v-13.46c0-1.1-.9-2-2-2H17.8c-1.1,0-2,.9-2,2v88.89c0,1.1.9,2,2,2h18.23v29.82c0,.81.49,1.54,1.23,1.85.25.1.51.15.77.15.52,0,1.03-.2,1.41-.59l15.78-15.77h73.79l31.24,31.23c.38.38.89.59,1.41.59.26,0,.52-.05.77-.15.75-.31,1.23-1.04,1.23-1.85v-29.82h18.23c1.1,0,2-.9,2-2V49.67c0-1.1-.9-2-2-2ZM38.04,121.11h-18.23V36.21h123.54v84.89h-73.48c-.53,0-1.04.21-1.41.59l-28.41,28.41v-26.99c0-1.1-.9-2-2-2Zm141.87,15.46h-18.23c-1.1,0-2,.9-2,2v26.99l-28.41-28.41c-.38-.38-.88-.59-1.41-.59H59.23l11.46-11.46h74.65c1.1,0,2-.9,2-2V51.67h32.56v84.89Z"/>
</svg>
