<?xml version="1.0" encoding="UTF-8"?><svg id="Security_Networking" xmlns="http://www.w3.org/2000/svg" viewBox="0 0 192 192"><defs><style>.cls-1{fill:#eda6a1;}.cls-2{fill:#9063cd;}.cls-3{fill:#464646;}</style></defs><path class="cls-3" d="m74.47,54.43h-4v-16.63c0-14.25,11.59-25.84,25.84-25.84s25.84,11.59,25.84,25.84v16.4h-4v-16.4c0-12.04-9.8-21.84-21.84-21.84s-21.84,9.8-21.84,21.84v16.63Z"/><path class="cls-3" d="m172.08,97.48h-33.62c-1.1,0-2-.9-2-2s.9-2,2-2h33.62c1.1,0,2,.9,2,2s-.9,2-2,2Z"/><polygon class="cls-3" points="170.45 101.07 180.12 95.48 170.45 89.9 170.45 101.07"/><line class="cls-1" x1="53.54" y1="95.48" x2="11.88" y2="95.48"/><path class="cls-3" d="m53.54,97.48H19.92c-1.1,0-2-.9-2-2s.9-2,2-2h33.62c1.1,0,2,.9,2,2s-.9,2-2,2Z"/><polygon class="cls-3" points="21.55 89.9 11.88 95.48 21.55 101.07 21.55 89.9"/><path class="cls-2" d="m127.75,54.19h-62.89c-5.91,0-10.71,4.79-10.71,10.71v62.89c0,5.91,4.79,10.71,10.71,10.71h62.89c5.91,0,10.71-4.79,10.71-10.71v-62.89c0-5.91-4.79-10.71-10.71-10.71Zm-26.97,42.15l2.52,10.37c1.15,4.73-2.43,9.29-7.3,9.29s-8.45-4.56-7.3-9.29l2.52-10.37.76-3.14c-3.27-1.52-5.54-4.82-5.54-8.67,0-5.64,4.88-10.14,10.65-9.5,4.25.47,7.76,3.85,8.37,8.09.64,4.43-1.78,8.38-5.44,10.08l.76,3.14Z"/><path class="cls-3" d="m127.75,140.49h-62.89c-7.01,0-12.71-5.7-12.71-12.71v-62.89c0-7.01,5.7-12.71,12.71-12.71h62.89c7.01,0,12.71,5.7,12.71,12.71v62.89c0,7.01-5.7,12.71-12.71,12.71Zm-62.89-84.3c-4.8,0-8.71,3.91-8.71,8.71v62.89c0,4.8,3.91,8.71,8.71,8.71h62.89c4.8,0,8.71-3.91,8.71-8.71v-62.89c0-4.8-3.91-8.71-8.71-8.71h-62.89Zm31.14,61.8c-2.94,0-5.66-1.32-7.48-3.63s-2.46-5.27-1.76-8.13l2.93-12.04c-3.23-2.11-5.24-5.75-5.24-9.67,0-3.28,1.4-6.42,3.85-8.61,2.45-2.19,5.73-3.24,9.02-2.87,5.14.57,9.39,4.69,10.13,9.79.65,4.56-1.37,8.93-5.12,11.37l.4,1.66h0s2.52,10.37,2.52,10.37c.69,2.85.05,5.82-1.76,8.13s-4.54,3.63-7.48,3.63Zm0-41.02c-1.87,0-3.63.67-5.03,1.93-1.6,1.43-2.52,3.49-2.52,5.63,0,2.93,1.72,5.61,4.39,6.85.87.4,1.33,1.36,1.1,2.29l-3.28,13.51c-.4,1.65-.03,3.37,1.02,4.71,1.05,1.34,2.63,2.11,4.33,2.11s3.28-.77,4.33-2.11c1.05-1.34,1.42-3.06,1.02-4.71l-3.28-13.51c-.23-.93.24-1.89,1.1-2.29,3.06-1.42,4.79-4.63,4.3-7.98-.48-3.33-3.26-6.01-6.61-6.38-.29-.03-.59-.05-.88-.05Z"/><path class="cls-3" d="m80.53,165.77c-.79-.65-1.69-1.19-2.69-1.61-1-.43-2.03-.77-3.11-1.02l-2.67-.67c-.58-.14-1.16-.31-1.74-.51-.58-.2-1.1-.46-1.57-.76-.47-.3-.85-.67-1.12-1.11-.27-.44-.41-.95-.41-1.54,0-.71.22-1.35.63-1.91.41-.56,1-1,1.77-1.32.77-.32,1.69-.49,2.77-.49,1.53,0,2.78.34,3.74,1.02.55.39.96.86,1.24,1.42.41.83,1.19,1.41,2.12,1.41h.39c1.73,0,2.83-1.83,2.04-3.37-.16-.31-.34-.61-.54-.9-.87-1.24-2.07-2.21-3.6-2.91-1.53-.7-3.3-1.05-5.32-1.05s-3.78.35-5.36,1.05c-1.58.7-2.82,1.68-3.74,2.94-.91,1.26-1.37,2.73-1.37,4.41,0,2.04.68,3.68,2.04,4.9,1.36,1.23,3.21,2.15,5.56,2.75l3.24.84c1.02.26,1.91.55,2.68.88.77.33,1.36.74,1.79,1.22.43.49.64,1.1.65,1.84,0,.82-.26,1.53-.74,2.14-.48.61-1.15,1.08-2,1.42-.85.34-1.83.51-2.96.51s-2.05-.16-2.92-.49c-.87-.32-1.57-.82-2.11-1.47-.22-.26-.39-.55-.53-.87-.42-.94-1.28-1.61-2.31-1.61h-.16c-1.74,0-2.96,1.78-2.29,3.39.21.51.47.98.78,1.43.91,1.32,2.18,2.32,3.81,3.01,1.63.69,3.55,1.03,5.77,1.03s4.23-.36,5.84-1.06c1.61-.71,2.84-1.7,3.69-2.96.85-1.27,1.28-2.73,1.28-4.4,0-1.23-.23-2.31-.7-3.23-.46-.92-1.09-1.7-1.89-2.35Z"/><path class="cls-3" d="m105.97,165.77c-.79-.65-1.69-1.19-2.69-1.61-1-.43-2.03-.77-3.11-1.02l-2.67-.67c-.58-.14-1.16-.31-1.74-.51s-1.1-.46-1.57-.76c-.47-.3-.85-.67-1.12-1.11-.27-.44-.41-.95-.41-1.54,0-.71.22-1.35.63-1.91.41-.56,1-1,1.77-1.32.77-.32,1.69-.49,2.77-.49,1.53,0,2.78.34,3.74,1.02.55.39.96.86,1.24,1.42.41.83,1.19,1.41,2.12,1.41h.39c1.73,0,2.83-1.83,2.04-3.37-.16-.31-.34-.61-.54-.9-.87-1.24-2.07-2.21-3.6-2.91-1.53-.7-3.3-1.05-5.32-1.05s-3.78.35-5.36,1.05c-1.58.7-2.82,1.68-3.74,2.94-.91,1.26-1.37,2.73-1.37,4.41,0,2.04.68,3.68,2.04,4.9,1.36,1.23,3.21,2.15,5.56,2.75l3.24.84c1.02.26,1.91.55,2.68.88.77.33,1.36.74,1.79,1.22.43.49.65,1.1.65,1.84,0,.82-.26,1.53-.74,2.14-.48.61-1.15,1.08-2,1.42-.85.34-1.83.51-2.96.51s-2.05-.16-2.92-.49c-.87-.32-1.57-.82-2.11-1.47-.22-.26-.39-.55-.53-.87-.42-.94-1.28-1.61-2.31-1.61h-.16c-1.75,0-2.96,1.78-2.29,3.39.21.51.47.98.78,1.43.91,1.32,2.18,2.32,3.81,3.01,1.63.69,3.55,1.03,5.77,1.03s4.23-.36,5.84-1.06c1.61-.71,2.84-1.7,3.69-2.96s1.28-2.73,1.28-4.4c0-1.23-.23-2.31-.7-3.23-.46-.92-1.09-1.7-1.89-2.35Z"/><path class="cls-3" d="m115.73,150.86h0c-1.43,0-2.58,1.16-2.58,2.58v23.75c0,1.2.97,2.16,2.16,2.16h13.39c1.2,0,2.16-.97,2.16-2.16h0c0-1.2-.97-2.16-2.16-2.16h-10.39v-21.59c0-1.43-1.16-2.58-2.58-2.58Z"/></svg>
