<?xml version="1.0" encoding="utf-8"?>
<!-- Generator: Adobe Illustrator 27.7.0, SVG Export Plug-In . SVG Version: 6.00 Build 0)  -->
<svg version="1.1" id="Security_Networking" xmlns="http://www.w3.org/2000/svg" xmlns:xlink="http://www.w3.org/1999/xlink"
	 x="0px" y="0px" viewBox="0 0 192 192" style="enable-background:new 0 0 192 192;" xml:space="preserve">
<style type="text/css">
	.st0{fill:#FFFFFF;}
</style>
<path class="st0" d="M73.1,52.8h-4V35.4C69.1,20.6,81.1,8.5,96,8.5s26.9,12.1,26.9,26.9v17.2h-4V35.4c0-12.6-10.3-22.9-22.9-22.9
	S73.1,22.8,73.1,35.4C73.1,35.4,73.1,52.8,73.1,52.8z"/>
<path class="st0" d="M175.6,97.8h-35.6c-1.1,0-2-0.9-2-2s0.9-2,2-2h35.6c1.1,0,2,0.9,2,2S176.7,97.8,175.6,97.8z"/>
<polygon class="st0" points="174,101.3 183.7,95.8 174,90.2 "/>
<path class="st0" d="M51.2,97.8H15.7c-1.1,0-2-0.9-2-2s0.9-2,2-2h35.5c1.1,0,2,0.9,2,2S52.3,97.8,51.2,97.8z"/>
<polygon class="st0" points="17.3,90.2 7.7,95.8 17.3,101.3 "/>
<path class="st0" d="M128.9,142.7H63.1c-7.3,0-13.2-5.9-13.2-13.2V63.8c0-7.3,5.9-13.2,13.2-13.2h65.8c7.3,0,13.2,5.9,13.2,13.2
	v65.8C142.1,136.8,136.2,142.7,128.9,142.7z M63.1,54.5c-5.1,0-9.2,4.1-9.2,9.2v65.8c0,5.1,4.1,9.2,9.2,9.2h65.8
	c5.1,0,9.2-4.1,9.2-9.2V63.8c0-5.1-4.1-9.2-9.2-9.2H63.1z M96,119.1c-3,0-5.9-1.4-7.8-3.8s-2.6-5.5-1.8-8.4l3.1-12.7
	c-3.4-2.2-5.5-6-5.5-10.1c0-3.4,1.5-6.7,4-8.9c2.5-2.3,5.9-3.4,9.4-3c5.3,0.6,9.8,4.9,10.5,10.2c0.7,4.8-1.4,9.3-5.4,11.8l0.4,1.8
	l0,0l2.6,10.8c0.7,3,0.1,6-1.8,8.4S99,119.1,96,119.1L96,119.1z M96,76.1c-2,0-3.8,0.7-5.3,2c-1.7,1.5-2.7,3.7-2.7,6
	c0,3.1,1.8,5.9,4.6,7.2c0.9,0.4,1.3,1.4,1.1,2.3l-3.4,14.1c-0.4,1.8,0,3.6,1.1,5s2.8,2.2,4.6,2.2s3.5-0.8,4.6-2.2s1.5-3.2,1.1-5
	l-3.4-14.1c-0.2-0.9,0.2-1.9,1.1-2.3c3.2-1.5,5.1-4.9,4.6-8.4c-0.5-3.5-3.4-6.4-7-6.8C96.6,76.2,96.3,76.1,96,76.1L96,76.1z"/>
<path class="st0" d="M38.7,169.3c-0.8-0.7-1.8-1.2-2.8-1.7s-2.1-0.8-3.2-1.1l-2.8-0.7c-0.6-0.1-1.2-0.3-1.8-0.5
	c-0.6-0.2-1.1-0.5-1.6-0.8c-0.5-0.3-0.9-0.7-1.2-1.2c-0.3-0.5-0.4-1-0.4-1.6c0-0.8,0.2-1.4,0.7-2s1-1,1.9-1.4
	c0.8-0.3,1.8-0.5,2.9-0.5c1.6,0,2.9,0.4,3.9,1.1c0.6,0.4,1,0.9,1.3,1.5c0.4,0.9,1.2,1.5,2.2,1.5H38c1.8,0,3-1.9,2.1-3.5
	c-0.2-0.3-0.3-0.6-0.6-0.9c-0.9-1.3-2.2-2.3-3.8-3c-1.6-0.7-3.5-1.1-5.6-1.1s-4,0.4-5.6,1.1c-1.6,0.7-3,1.8-3.9,3.1
	s-1.4,2.9-1.4,4.6c0,2.1,0.7,3.9,2.1,5.1c1.4,1.3,3.4,2.2,5.8,2.9l3.4,0.9c1.1,0.3,2,0.6,2.8,0.9s1.4,0.8,1.9,1.3s0.7,1.1,0.7,1.9
	c0,0.9-0.3,1.6-0.8,2.2c-0.5,0.6-1.2,1.1-2.1,1.5c-0.9,0.4-1.9,0.5-3.1,0.5s-2.1-0.2-3-0.5s-1.6-0.9-2.2-1.5
	c-0.2-0.3-0.4-0.6-0.6-0.9c-0.4-1-1.3-1.7-2.4-1.7h-0.2c-1.8,0-3.1,1.9-2.4,3.5c0.2,0.5,0.5,1,0.8,1.5c1,1.4,2.3,2.4,4,3.1
	c1.7,0.7,3.7,1.1,6,1.1s4.4-0.4,6.1-1.1s3-1.8,3.9-3.1s1.3-2.9,1.3-4.6c0-1.3-0.2-2.4-0.7-3.4C40.2,170.8,39.5,169.9,38.7,169.3
	L38.7,169.3z"/>
<path class="st0" d="M65.3,169.3c-0.8-0.7-1.8-1.2-2.8-1.7s-2.1-0.8-3.2-1.1l-2.8-0.7c-0.6-0.1-1.2-0.3-1.8-0.5s-1.2-0.5-1.6-0.8
	c-0.5-0.3-0.9-0.7-1.2-1.2c-0.3-0.5-0.4-1-0.4-1.6c0-0.8,0.2-1.4,0.7-2s1-1,1.8-1.4c0.8-0.3,1.8-0.5,2.9-0.5c1.6,0,2.9,0.4,3.9,1.1
	c0.6,0.4,1,0.9,1.3,1.5c0.4,0.9,1.2,1.5,2.2,1.5h0.4c1.8,0,3-1.9,2.1-3.5c-0.2-0.3-0.3-0.6-0.6-0.9c-0.9-1.3-2.2-2.3-3.8-3
	c-1.6-0.7-3.5-1.1-5.6-1.1s-4,0.4-5.6,1.1c-1.7,0.7-3,1.8-3.9,3.1s-1.4,2.9-1.4,4.6c0,2.1,0.7,3.9,2.1,5.1c1.4,1.3,3.4,2.2,5.8,2.9
	l3.4,0.9c1.1,0.3,2,0.6,2.8,0.9s1.4,0.8,1.9,1.3s0.7,1.1,0.7,1.9c0,0.9-0.3,1.6-0.8,2.2c-0.5,0.6-1.2,1.1-2.1,1.5
	c-0.9,0.4-1.9,0.5-3.1,0.5s-2.1-0.2-3-0.5s-1.6-0.9-2.2-1.5c-0.2-0.3-0.4-0.6-0.6-0.9c-0.4-1-1.3-1.7-2.4-1.7h-0.2
	c-1.8,0-3.1,1.9-2.4,3.5c0.2,0.5,0.5,1,0.8,1.5c1,1.4,2.3,2.4,4,3.1c1.7,0.7,3.7,1.1,6,1.1s4.4-0.4,6.1-1.1s3-1.8,3.9-3.1
	s1.3-2.9,1.3-4.6c0-1.3-0.2-2.4-0.7-3.4C66.8,170.8,66.1,169.9,65.3,169.3L65.3,169.3z"/>
<path class="st0" d="M75.5,153.7L75.5,153.7c-1.5,0-2.7,1.2-2.7,2.7v24.9c0,1.2,1,2.3,2.3,2.3h14c1.2,0,2.3-1,2.3-2.3l0,0
	c0-1.2-1-2.3-2.3-2.3H78.2v-22.6C78.2,154.9,77,153.7,75.5,153.7L75.5,153.7z"/>
<path class="st0" d="M105,177.1h-0.3l-7.1-21.6c-0.4-1.1-1.4-1.9-2.6-1.9l0,0c-1.9,0-3.2,1.9-2.6,3.7l8.5,24.3
	c0.4,1.1,1.4,1.9,2.6,1.9h2.7c1.2,0,2.2-0.7,2.6-1.9l8.6-24.2c0.6-1.8-0.7-3.7-2.6-3.7l0,0c-1.2,0-2.3,0.8-2.6,1.9L105,177.1
	L105,177.1z"/>
<path class="st0" d="M139.5,155c-1.6-0.9-3.5-1.3-5.8-1.3h-8.5c-1.5,0-2.7,1.2-2.7,2.7v24.4c0,1.5,1.2,2.7,2.7,2.7l0,0
	c1.5,0,2.7-1.2,2.7-2.7v-7.4h5.7c2.3,0,4.2-0.4,5.8-1.3s2.8-2,3.6-3.5c0.8-1.5,1.2-3.2,1.2-5.1s-0.4-3.6-1.2-5.1
	S141.1,155.8,139.5,155L139.5,155z M138.2,166.4c-0.4,0.8-1.1,1.5-1.9,1.9c-0.9,0.5-1.9,0.7-3.3,0.7h-5v-10.8h5
	c1.4,0,2.4,0.2,3.3,0.7s1.5,1.1,1.9,1.9c0.4,0.8,0.6,1.7,0.6,2.8S138.6,165.5,138.2,166.4L138.2,166.4z"/>
<path class="st0" d="M170.8,153.7c-1.5,0-2.7,1.2-2.7,2.7V174h-0.3l-13.2-19.2c-0.5-0.7-1.3-1.2-2.2-1.2h-0.7
	c-1.5,0-2.7,1.2-2.7,2.7v24.4c0,1.5,1.2,2.7,2.7,2.7h0c1.5,0,2.7-1.2,2.7-2.7v-17.6h0.2l13.2,19.1c0.5,0.7,1.3,1.2,2.2,1.2h0.7
	c1.5,0,2.7-1.2,2.7-2.7v-24.4C173.5,154.9,172.3,153.7,170.8,153.7L170.8,153.7L170.8,153.7z"/>
</svg>
