<?xml version="1.0" encoding="UTF-8"?><svg id="Security_Networking" xmlns="http://www.w3.org/2000/svg" viewBox="0 0 192 192"><defs><style>.cls-1{fill:#e4aca6;}.cls-2{fill:#da291c;}.cls-3{fill:#464646;}</style></defs><path class="cls-3" d="m73.05,52.8h-4v-17.4c0-14.85,12.08-26.93,26.93-26.93s26.93,12.08,26.93,26.93v17.15h-4v-17.15c0-12.65-10.29-22.93-22.93-22.93s-22.93,10.29-22.93,22.93v17.4Z"/><path class="cls-3" d="m175.62,97.75h-35.55c-1.1,0-2-.9-2-2s.9-2,2-2h35.55c1.1,0,2,.9,2,2s-.9,2-2,2Z"/><polygon class="cls-3" points="173.99 101.34 183.66 95.75 173.99 90.17 173.99 101.34"/><line class="cls-1" x1="51.25" y1="95.75" x2="7.66" y2="95.75"/><path class="cls-3" d="m51.25,97.75H15.7c-1.1,0-2-.9-2-2s.9-2,2-2h35.55c1.1,0,2,.9,2,2s-.9,2-2,2Z"/><polygon class="cls-3" points="17.33 90.17 7.66 95.75 17.33 101.34 17.33 90.17"/><path class="cls-2" d="m128.88,52.55H63.09c-6.19,0-11.2,5.01-11.2,11.2v65.79c0,6.19,5.02,11.2,11.2,11.2h65.79c6.19,0,11.2-5.02,11.2-11.2V63.75c0-6.19-5.01-11.2-11.2-11.2Zm-27.89,43.94l2.64,10.85c1.2,4.95-2.54,9.72-7.64,9.72s-8.84-4.77-7.64-9.72l2.64-10.85.8-3.29c-3.42-1.59-5.8-5.04-5.8-9.06,0-5.9,5.11-10.6,11.14-9.94,4.45.49,8.12,4.03,8.75,8.46.67,4.64-1.86,8.76-5.69,10.54l.8,3.28Z"/><path class="cls-3" d="m128.88,142.74H63.09c-7.28,0-13.2-5.92-13.2-13.2V63.75c0-7.28,5.92-13.2,13.2-13.2h65.79c7.28,0,13.2,5.92,13.2,13.2v65.79c0,7.28-5.92,13.2-13.2,13.2ZM63.09,54.55c-5.07,0-9.2,4.13-9.2,9.2v65.79c0,5.07,4.13,9.2,9.2,9.2h65.79c5.07,0,9.2-4.13,9.2-9.2V63.75c0-5.07-4.13-9.2-9.2-9.2H63.09Zm32.89,64.51c-3.04,0-5.87-1.37-7.75-3.77s-2.55-5.46-1.83-8.42l3.08-12.65c-3.38-2.19-5.5-5.99-5.5-10.07,0-3.41,1.46-6.67,4-8.94,2.54-2.27,5.95-3.36,9.36-2.98,5.33.59,9.75,4.86,10.51,10.16.68,4.75-1.44,9.32-5.37,11.84l.44,1.8h0s2.64,10.85,2.64,10.85c.72,2.96.05,6.03-1.83,8.42s-4.71,3.77-7.75,3.77Zm0-42.92c-1.98,0-3.84.71-5.33,2.04-1.69,1.52-2.67,3.69-2.67,5.96,0,3.1,1.82,5.94,4.64,7.25.87.4,1.33,1.36,1.1,2.29l-3.44,14.13c-.43,1.76-.03,3.58,1.09,5.01s2.8,2.24,4.61,2.24,3.49-.82,4.61-2.24,1.51-3.25,1.09-5.01l-3.44-14.13c-.23-.93.24-1.89,1.1-2.29,3.23-1.5,5.06-4.9,4.56-8.45-.51-3.52-3.45-6.36-6.99-6.75-.31-.03-.62-.05-.93-.05Z"/><path class="cls-3" d="m38.68,169.28c-.83-.68-1.77-1.24-2.81-1.69-1.04-.45-2.13-.8-3.25-1.06l-2.79-.7c-.61-.15-1.22-.33-1.82-.54-.6-.21-1.15-.48-1.65-.79-.5-.32-.89-.7-1.17-1.16-.29-.46-.43-.99-.43-1.62,0-.75.23-1.41.66-1.99.43-.58,1.04-1.04,1.85-1.38.81-.34,1.77-.51,2.9-.51,1.6,0,2.9.35,3.91,1.06.57.4,1.01.9,1.3,1.49.43.87,1.25,1.48,2.22,1.48h.41c1.81,0,2.96-1.91,2.14-3.52-.16-.32-.35-.64-.57-.94-.91-1.3-2.17-2.31-3.76-3.04-1.6-.73-3.45-1.1-5.57-1.1s-3.95.37-5.6,1.1c-1.65.73-2.95,1.76-3.91,3.08s-1.43,2.86-1.43,4.61c0,2.13.71,3.85,2.13,5.13,1.42,1.29,3.36,2.24,5.82,2.88l3.39.87c1.07.27,2,.58,2.8.92.8.34,1.42.77,1.87,1.28.45.51.67,1.15.68,1.93,0,.85-.27,1.6-.77,2.23-.5.64-1.2,1.13-2.09,1.48-.89.35-1.92.53-3.09.53s-2.14-.17-3.05-.51c-.91-.34-1.64-.85-2.21-1.54-.23-.28-.41-.58-.56-.91-.44-.98-1.34-1.68-2.42-1.68h-.17c-1.83,0-3.1,1.86-2.4,3.54.22.53.49,1.03.82,1.49.96,1.38,2.29,2.43,3.99,3.14,1.7.72,3.71,1.08,6.03,1.08s4.42-.37,6.11-1.11,2.97-1.78,3.86-3.1c.89-1.32,1.34-2.86,1.34-4.61,0-1.29-.24-2.42-.73-3.38-.49-.96-1.14-1.78-1.97-2.46Z"/><path class="cls-3" d="m65.29,169.28c-.83-.68-1.77-1.24-2.81-1.69-1.04-.45-2.13-.8-3.25-1.06l-2.79-.7c-.61-.15-1.22-.33-1.82-.54s-1.15-.48-1.64-.79c-.5-.32-.89-.7-1.17-1.16-.29-.46-.43-.99-.43-1.62,0-.75.23-1.41.66-1.99.43-.58,1.04-1.04,1.85-1.38.81-.34,1.77-.51,2.9-.51,1.6,0,2.9.35,3.91,1.06.57.4,1.01.9,1.3,1.49.43.87,1.25,1.48,2.22,1.48h.41c1.81,0,2.96-1.91,2.14-3.52-.16-.32-.35-.64-.57-.94-.91-1.3-2.17-2.31-3.76-3.04-1.6-.73-3.45-1.1-5.57-1.1s-3.96.37-5.6,1.1c-1.65.73-2.95,1.76-3.91,3.08-.96,1.32-1.43,2.86-1.43,4.61,0,2.13.71,3.85,2.13,5.13,1.42,1.29,3.36,2.24,5.82,2.88l3.39.87c1.07.27,2,.58,2.8.92.8.34,1.42.77,1.87,1.28.45.51.67,1.15.68,1.93,0,.85-.27,1.6-.77,2.23-.5.64-1.2,1.13-2.09,1.48-.89.35-1.92.53-3.09.53s-2.14-.17-3.05-.51c-.91-.34-1.64-.85-2.21-1.54-.23-.28-.41-.58-.56-.91-.44-.98-1.34-1.68-2.42-1.68h-.17c-1.83,0-3.1,1.86-2.4,3.54.22.53.49,1.03.82,1.49.96,1.38,2.29,2.43,3.99,3.14,1.7.72,3.71,1.08,6.03,1.08s4.42-.37,6.11-1.11,2.97-1.78,3.86-3.1,1.34-2.86,1.34-4.61c0-1.29-.24-2.42-.73-3.38-.49-.96-1.14-1.78-1.97-2.46Z"/><path class="cls-3" d="m75.49,153.68h0c-1.49,0-2.7,1.21-2.7,2.7v24.85c0,1.25,1.01,2.26,2.26,2.26h14c1.25,0,2.26-1.01,2.26-2.26h0c0-1.25-1.01-2.26-2.26-2.26h-10.87v-22.59c0-1.49-1.21-2.7-2.7-2.7Z"/><path class="cls-3" d="m104.98,177.14h-.31l-7.13-21.56c-.38-1.14-1.44-1.9-2.63-1.9h0c-1.91,0-3.25,1.89-2.62,3.7l8.54,24.26c.39,1.11,1.44,1.85,2.62,1.85h2.73c1.18,0,2.23-.74,2.62-1.86l8.55-24.25c.64-1.81-.7-3.71-2.62-3.71h0c-1.2,0-2.26.77-2.64,1.91l-7.11,21.56Z"/><path class="cls-3" d="m139.54,154.96c-1.56-.85-3.48-1.28-5.77-1.28h-8.48c-1.49,0-2.7,1.21-2.7,2.7v24.41c0,1.49,1.21,2.7,2.7,2.7h0c1.49,0,2.7-1.21,2.7-2.7v-7.37h5.71c2.3,0,4.24-.42,5.81-1.27s2.76-2.02,3.57-3.5c.81-1.48,1.21-3.18,1.21-5.09s-.4-3.58-1.2-5.07-1.98-2.66-3.54-3.52Zm-1.38,11.4c-.41.82-1.05,1.46-1.9,1.92-.85.47-1.95.7-3.29.7h-4.98v-10.79h4.95c1.35,0,2.45.23,3.31.68.86.45,1.49,1.08,1.91,1.89.41.81.62,1.74.62,2.79s-.21,1.99-.62,2.81Z"/><path class="cls-3" d="m170.78,153.68c-1.48,0-2.69,1.2-2.69,2.69v17.64h-.26l-13.23-19.16c-.5-.73-1.33-1.16-2.21-1.16h-.74c-1.48,0-2.69,1.2-2.69,2.69v24.44c0,1.48,1.2,2.69,2.69,2.69h.03c1.48,0,2.69-1.2,2.69-2.69v-17.62h.25l13.25,19.15c.5.73,1.33,1.16,2.21,1.16h.71c1.48,0,2.69-1.2,2.69-2.69v-24.44c0-1.48-1.2-2.69-2.69-2.69h0Z"/></svg>
