<?xml version="1.0" encoding="UTF-8"?><svg id="Security_Networking" xmlns="http://www.w3.org/2000/svg" viewBox="0 0 192 192"><defs><style>.cls-1{fill:#9063cd;}.cls-2{fill:#464646;}</style></defs><path class="cls-2" d="m56.26,97.17c-.69-.56-1.46-1.03-2.33-1.4-.86-.37-1.76-.66-2.69-.88l-2.31-.58c-.51-.12-1.01-.27-1.51-.45-.5-.18-.95-.4-1.36-.66-.41-.26-.73-.58-.97-.96-.24-.38-.36-.82-.36-1.34,0-.62.19-1.17.54-1.65.35-.48.86-.86,1.53-1.14.67-.28,1.47-.42,2.4-.42,1.33,0,2.4.29,3.23.88.48.34.83.75,1.07,1.23.36.72,1.03,1.22,1.84,1.22h.34c1.5,0,2.45-1.58,1.77-2.92-.14-.27-.29-.53-.47-.78-.76-1.07-1.79-1.91-3.11-2.52-1.32-.61-2.86-.91-4.61-.91s-3.27.3-4.64.91c-1.37.61-2.44,1.46-3.24,2.55-.79,1.09-1.19,2.37-1.19,3.82,0,1.77.59,3.18,1.76,4.25,1.18,1.06,2.78,1.86,4.81,2.38l2.81.72c.88.23,1.66.48,2.32.77.66.29,1.18.64,1.55,1.06.37.42.56.95.57,1.6,0,.71-.22,1.32-.64,1.85-.42.53-.99.94-1.73,1.23-.74.29-1.59.44-2.56.44s-1.77-.14-2.52-.42c-.75-.28-1.36-.71-1.83-1.28-.19-.23-.34-.48-.46-.75-.36-.81-1.11-1.39-2-1.39h-.14c-1.51,0-2.57,1.54-1.98,2.93.18.44.41.85.68,1.24.79,1.14,1.89,2.01,3.3,2.6,1.41.59,3.07.89,4.99.89s3.66-.31,5.05-.92c1.39-.61,2.46-1.47,3.2-2.57.74-1.1,1.11-2.37,1.11-3.81,0-1.07-.2-2-.6-2.8-.4-.8-.95-1.47-1.63-2.04Z"/><path class="cls-2" d="m78.29,97.17c-.69-.56-1.46-1.03-2.33-1.4-.86-.37-1.76-.66-2.69-.88l-2.31-.58c-.51-.12-1.01-.27-1.51-.45s-.95-.4-1.36-.66c-.41-.26-.73-.58-.97-.96-.24-.38-.36-.82-.36-1.34,0-.62.19-1.17.54-1.65.35-.48.86-.86,1.53-1.14.67-.28,1.47-.42,2.4-.42,1.33,0,2.4.29,3.23.88.48.34.83.75,1.07,1.23.36.72,1.03,1.22,1.84,1.22h.34c1.5,0,2.45-1.58,1.77-2.92-.14-.27-.29-.53-.47-.78-.76-1.07-1.79-1.91-3.11-2.52-1.32-.61-2.86-.91-4.61-.91s-3.27.3-4.64.91c-1.37.61-2.44,1.46-3.24,2.55-.79,1.09-1.19,2.37-1.19,3.82,0,1.77.59,3.18,1.76,4.25,1.18,1.06,2.78,1.86,4.81,2.38l2.81.72c.88.23,1.66.48,2.32.77.66.29,1.18.64,1.55,1.06.37.42.56.95.57,1.6,0,.71-.22,1.32-.64,1.85-.42.53-.99.94-1.73,1.23-.74.29-1.59.44-2.56.44s-1.77-.14-2.52-.42c-.75-.28-1.36-.71-1.83-1.28-.19-.23-.34-.48-.46-.75-.36-.81-1.11-1.39-2-1.39h-.14c-1.51,0-2.57,1.54-1.98,2.93.18.44.41.85.68,1.24.79,1.14,1.89,2.01,3.3,2.6,1.41.59,3.07.89,4.99.89s3.66-.31,5.05-.92,2.46-1.47,3.2-2.57c.74-1.1,1.11-2.37,1.11-3.81,0-1.07-.2-2-.6-2.8-.4-.8-.95-1.47-1.63-2.04Z"/><path class="cls-2" d="m86.73,84.25h0c-1.23,0-2.23,1-2.23,2.23v20.57c0,1.03.84,1.87,1.87,1.87h11.59c1.03,0,1.87-.84,1.87-1.87h0c0-1.03-.84-1.87-1.87-1.87h-8.99s0-18.69,0-18.69c0-1.23-1-2.23-2.23-2.23Z"/><path class="cls-2" d="m111.14,103.67h-.25l-5.9-17.85c-.31-.94-1.19-1.58-2.18-1.58h0c-1.58,0-2.69,1.57-2.17,3.06l6.69,19.02c.55,1.56,2.02,2.6,3.67,2.6h0c1.65,0,3.13-1.04,3.68-2.6l6.7-19.01c.53-1.5-.58-3.07-2.17-3.07h0c-.99,0-1.87.64-2.19,1.58l-5.89,17.84Z"/><path class="cls-2" d="m139.75,85.31c-1.29-.71-2.88-1.06-4.78-1.06h-7.02c-1.23,0-2.24,1-2.24,2.24v20.21c0,1.23,1,2.24,2.24,2.24h0c1.23,0,2.24-1,2.24-2.24v-6.1h4.72c1.9,0,3.51-.35,4.81-1.05,1.3-.7,2.29-1.67,2.95-2.9.67-1.23,1-2.63,1-4.22s-.33-2.97-.99-4.2c-.66-1.23-1.64-2.2-2.93-2.91Zm-1.14,9.43c-.34.67-.87,1.21-1.57,1.59-.71.39-1.61.58-2.72.58h-4.12v-8.93h4.1c1.12,0,2.03.19,2.74.56.71.37,1.24.89,1.58,1.56.34.67.51,1.44.51,2.31s-.17,1.65-.51,2.33Z"/><path class="cls-2" d="m165.6,84.25c-1.23,0-2.22,1-2.22,2.22v14.6h-.22l-10.95-15.86c-.42-.6-1.1-.96-1.83-.96h-.61c-1.23,0-2.22,1-2.22,2.22v20.23c0,1.23,1,2.22,2.22,2.22h.02c1.23,0,2.22-1,2.22-2.22v-14.59h.2l10.96,15.85c.42.6,1.1.96,1.83.96h.59c1.23,0,2.22-1,2.22-2.22v-20.23c0-1.23-1-2.22-2.22-2.22h0Z"/><rect class="cls-2" x="30.42" y="46.71" width="130.54" height="4"/><polygon class="cls-2" points="32.58 56.09 19.8 48.71 32.58 41.33 32.58 56.09"/><polygon class="cls-2" points="158.8 56.09 171.58 48.71 158.8 41.33 158.8 56.09"/><path class="cls-1" d="m33.71,96.52c0,15.31-5.32,27.72-11.88,27.72v-55.43c6.56,0,11.88,12.41,11.88,27.72Z"/><path class="cls-2" d="m21.83,126.23c-1.1,0-2-.9-2-2v-55.43c0-1.1.9-2,2-2,7.91,0,13.88,12.78,13.88,29.72s-5.97,29.72-13.88,29.72Zm2-54.81v50.2c4.04-2.46,7.88-12.09,7.88-25.1s-3.84-22.63-7.88-25.1Z"/><ellipse class="cls-1" cx="21.83" cy="96.52" rx="11.88" ry="27.72"/><path class="cls-2" d="m21.83,126.23c-7.91,0-13.88-12.78-13.88-29.72s5.97-29.72,13.88-29.72,13.88,12.78,13.88,29.72-5.97,29.72-13.88,29.72Zm0-55.43c-4.67,0-9.88,10.56-9.88,25.72s5.21,25.72,9.88,25.72,9.88-10.56,9.88-25.72-5.21-25.72-9.88-25.72Z"/><path class="cls-2" d="m169.92,126.41l-148.09-.18c-1.1,0-2-.9-2-2s.9-2,2-2c4.67,0,9.88-10.56,9.88-25.72s-5.2-25.7-9.87-25.72h-.01c-1.1,0-2-.9-2-2s.9-2,2-2h.01l148.3.18c7.91,0,13.88,12.78,13.88,29.73s-5.84,29.4-13.59,29.7h-.5Zm-140.94-4.17l141.36.17c4.53-.18,9.67-10.79,9.67-25.71s-5.21-25.73-9.88-25.73l-141.14-.17c4.08,5.06,6.71,14.46,6.71,25.71s-2.63,20.67-6.72,25.72Z"/></svg>
