<?xml version="1.0" encoding="utf-8"?>
<!-- Generator: Adobe Illustrator 27.7.0, SVG Export Plug-In . SVG Version: 6.00 Build 0)  -->
<svg version="1.1" id="Security_Networking" xmlns="http://www.w3.org/2000/svg" xmlns:xlink="http://www.w3.org/1999/xlink"
	 x="0px" y="0px" viewBox="0 0 192 192" style="enable-background:new 0 0 192 192;" xml:space="preserve">
<style type="text/css">
	.st0{fill:#FFFFFF;}
</style>
<path class="st0" d="M96,180c-0.3,0-0.6-0.1-0.9-0.2l-1.8-0.8c-25.4-12.2-37.7-19.2-48-30.9c-8.8-10.1-14.1-24.5-14.1-38.6V33.6
	c0-1,0.8-1.9,1.8-2l3.7-0.3c20-1.6,38.8-7.6,56.1-17.8l2.1-1.2c0.6-0.4,1.4-0.4,2,0l2.1,1.2c17,10,36.3,16.2,56.1,17.8l3.7,0.3
	c1,0.1,1.8,0.9,1.8,2v75.9c0,14.1-5.3,28.6-14.1,38.6c-10.3,11.7-22.5,18.6-47.9,30.9l-1.8,0.8C96.6,179.9,96.3,180,96,180L96,180z
	 M35.3,35.4v74c0,13.2,4.9,26.6,13.1,36c9.8,11.1,21.8,17.9,46.7,29.9l0.9,0.4l0.9-0.4c24.9-12,36.9-18.8,46.7-29.9
	c8.2-9.3,13.1-22.8,13.1-36v-74l-1.9-0.2C134.5,33.6,114.5,27.3,97,17l-1-0.6L95,17C77.2,27.5,57.8,33.6,37.2,35.3L35.3,35.4
	L35.3,35.4z"/>
<path class="st0" d="M96,93.9c-11.5,0-20.9-9.4-20.9-20.9S84.5,52.1,96,52.1s20.9,9.4,20.9,20.9S107.5,93.9,96,93.9z M96,56.2
	c-9.3,0-16.9,7.6-16.9,16.9S86.7,90,96,90s16.9-7.6,16.9-16.9S105.3,56.2,96,56.2z"/>
<path class="st0" d="M127.9,125.8H64.1c-1.1,0-2-0.9-2-2c0-18.7,15.2-33.9,33.9-33.9s33.9,15.2,33.9,33.9
	C129.9,124.9,129,125.8,127.9,125.8z M66.2,121.8h59.7c-1-15.6-14-27.9-29.8-27.9S67.2,106.3,66.2,121.8L66.2,121.8z"/>
<path class="st0" d="M79.5,125.8c-1.1,0-2-0.9-2-2v-13c0-1.1,0.9-2,2-2s2,0.9,2,2v13C81.5,124.9,80.6,125.8,79.5,125.8z"/>
<path class="st0" d="M112.5,125.8c-1.1,0-2-0.9-2-2v-13c0-1.1,0.9-2,2-2s2,0.9,2,2v13C114.5,124.9,113.6,125.8,112.5,125.8z"/>
</svg>
