<?xml version="1.0" encoding="UTF-8"?>
<svg id="Security_Networking" data-name="Security Networking" xmlns="http://www.w3.org/2000/svg" viewBox="0 0 192 192">
  <defs>
    <style>
      .cls-1 {
        fill: #464646;
      }

      .cls-1, .cls-2, .cls-3 {
        stroke-width: 0px;
      }

      .cls-2 {
        fill: #d8291c;
      }

      .cls-3 {
        fill: #fff;
      }
    </style>
  </defs>
  <path class="cls-1" d="M149.79,179.8c-.31,0-.63-.05-.95-.15-1.57-.52-2.42-2.22-1.9-3.79.52-1.57,2.2-2.43,3.78-1.91,0,0,.02,0,.03,0,1.57.52,2.42,2.22,1.9,3.79-.42,1.26-1.59,2.05-2.85,2.05Z"/>
  <path class="cls-1" d="M162.48,175.29c-.31,0-.63-.05-.95-.15-1.57-.52-2.42-2.22-1.9-3.79.52-1.57,2.2-2.43,3.78-1.91,0,0,.02,0,.03,0,1.57.52,2.42,2.22,1.9,3.79-.42,1.26-1.59,2.05-2.85,2.05Z"/>
  <path class="cls-1" d="M29.52,23.19c-.31,0-.62-.05-.93-.15,0,0-.02,0-.03,0-1.57-.52-2.42-2.22-1.9-3.79.52-1.57,2.22-2.42,3.79-1.9,1.57.52,2.42,2.22,1.9,3.79-.42,1.26-1.59,2.06-2.84,2.06Z"/>
  <path class="cls-1" d="M169.2,23.03c-6.18-6.18-14.4-9.58-23.14-9.58s-16.97,3.4-23.15,9.58l-28.33,28.33-1.57,1.57L22.79,123.15c-6.38,6.39-9.57,14.77-9.57,23.15s3.19,16.77,9.57,23.15c6.18,6.18,14.4,9.59,23.15,9.59s16.96-3.41,23.15-9.59l26.74-26.75,1.58-1.58,1.58-1.57h0s40.31-40.32,40.31-40.32l1.58-1.57.05-.05,1.53-1.54,26.74-26.74c6.19-6.18,9.59-14.4,9.59-23.15s-3.4-16.96-9.59-23.15ZM166.38,66.5l-26.75,26.75-.16.17-1.41,1.41-1.42,1.41-.16.16-40.32,40.32-.16.16-1.41,1.42-1.42,1.41-26.91,26.91c-5.43,5.43-12.65,8.42-20.32,8.42-3.84,0-7.56-.75-11-2.17-3.44-1.43-6.6-3.53-9.32-6.25-11.21-11.2-11.21-29.43,0-40.64l26.91-26.91,1.42-1.41,1.41-1.42,40.64-40.64,1.42-1.41,1.41-1.41.16-.17,26.75-26.75c5.6-5.6,12.96-8.4,20.32-8.4s14.71,2.8,20.32,8.4c11.2,11.21,11.2,29.44,0,40.64Z"/>
  <path class="cls-1" d="M98.83,52.78l.16.16c-.04.72-.34,1.43-.87,1.95h0c-.14.14-.29.27-.46.38-.16.11-.33.2-.52.27-.18.08-.37.14-.56.18-.14.02-.28.04-.42.04-.05,0-.11,0-.16,0s-.11,0-.16,0c-.15,0-.29-.02-.43-.04-.19-.04-.38-.1-.56-.18-.18-.07-.36-.16-.52-.27-.16-.11-.32-.24-.45-.37h0c-.53-.53-.84-1.24-.87-1.97l1.57-1.57,1.57-1.57c.15,0,.29.02.43.04.19.04.38.1.56.17.19.08.36.17.52.28.17.11.32.24.46.37.52.52.83,1.23.87,1.96l-.16.17Z"/>
  <path class="cls-1" d="M42.89,89.6c-.77,0-1.54-.29-2.12-.88-1.17-1.17-1.18-3.07,0-4.25,1.17-1.17,3.07-1.17,4.24,0h0c1.17,1.18,1.17,3.08,0,4.25-.59.59-1.35.88-2.12.88Z"/>
  <path class="cls-1" d="M33.28,79.99c-.77,0-1.54-.29-2.12-.88-1.17-1.17-1.18-3.07,0-4.25,1.17-1.17,3.07-1.17,4.24,0h0c1.17,1.18,1.17,3.08,0,4.25-.59.59-1.35.88-2.12.88Z"/>
  <path class="cls-1" d="M23.68,70.37c-.81,0-1.61-.32-2.21-.97-1.12-1.21-1.05-3.1.15-4.23s3.09-1.07,4.22.12c0,0,.02.03.03.04,1.12,1.22,1.05,3.12-.17,4.24-.58.53-1.31.8-2.03.8Z"/>
  <path class="cls-1" d="M16.75,58.82c-1.28,0-2.46-.82-2.86-2.1-.49-1.58.38-3.26,1.95-3.76,1.58-.5,3.26.37,3.76,1.94,0,0,0,.02,0,.03.5,1.58-.38,3.26-1.96,3.76-.3.09-.6.14-.9.14Z"/>
  <path class="cls-1" d="M86.39,46.17c-.77,0-1.53-.29-2.12-.88h0c-1.17-1.18-1.17-3.08,0-4.25,1.17-1.17,3.07-1.17,4.24,0,1.17,1.17,1.18,3.07,0,4.25-.59.59-1.35.88-2.12.88Z"/>
  <path class="cls-1" d="M15.44,45.4c-.08,0-.16,0-.23,0-1.65-.13-2.89-1.57-2.76-3.22,0-.07.02-.16.03-.23.25-1.64,1.78-2.77,3.41-2.52,1.61.24,2.73,1.73,2.53,3.34-.18,1.51-1.47,2.64-2.98,2.64Z"/>
  <path class="cls-1" d="M76.78,36.56c-.77,0-1.53-.29-2.12-.88h0c-1.17-1.18-1.17-3.08,0-4.25,1.17-1.17,3.07-1.17,4.24,0,1.17,1.17,1.18,3.07,0,4.25-.59.59-1.35.88-2.12.88Z"/>
  <path class="cls-1" d="M19.97,32.72c-.54,0-1.09-.15-1.58-.45-1.41-.88-1.84-2.73-.96-4.13.88-1.41,2.73-1.84,4.13-.97,1.41.88,1.84,2.72.96,4.13h0c-.57.92-1.55,1.42-2.55,1.42Z"/>
  <path class="cls-1" d="M67.17,26.96c-.73,0-1.46-.26-2.04-.8-.03-.03-.06-.06-.09-.09-1.17-1.17-1.17-3.07,0-4.24,1.15-1.15,3.02-1.17,4.19-.05,1.19,1.13,1.26,3.01.14,4.22-.59.64-1.4.96-2.2.96Z"/>
  <path class="cls-1" d="M55.63,20c-.31,0-.62-.05-.93-.15,0,0-.02,0-.03,0-1.57-.52-2.42-2.22-1.9-3.79.52-1.57,2.22-2.42,3.79-1.9,1.57.52,2.42,2.22,1.9,3.79-.42,1.26-1.59,2.06-2.84,2.06Z"/>
  <path class="cls-1" d="M42.22,18.68c-.31,0-.62-.05-.93-.15,0,0-.02,0-.03,0-1.57-.52-2.42-2.22-1.9-3.79.52-1.57,2.22-2.42,3.79-1.9,1.57.52,2.42,2.22,1.9,3.79-.42,1.26-1.59,2.06-2.84,2.06Z"/>
  <path class="cls-1" d="M55.53,96.24s0,.11,0,.16c-.03.73-.35,1.45-.87,1.96-.14.14-.29.27-.46.38-.16.11-.33.2-.51.27-.18.08-.37.14-.57.17-.14.03-.29.05-.43.05l-.15-.16-.16.16c-.15,0-.29-.02-.43-.05-.19-.03-.38-.09-.56-.17-.18-.07-.35-.16-.52-.27-.16-.11-.31-.24-.45-.38-.52-.51-.84-1.23-.87-1.96l3.15-3.15c.14,0,.28.02.42.05.2.04.39.1.57.17.18.08.35.17.51.28.17.11.32.23.46.37.52.52.83,1.22.87,1.96,0,.05,0,.11,0,.16Z"/>
  <path class="cls-1" d="M98.99,139.54h0s-1.58,1.58-1.58,1.58l-1.58,1.58c-.14,0-.28-.02-.42-.05-.19-.04-.38-.09-.56-.17-.18-.07-.36-.17-.52-.27-.16-.11-.32-.24-.45-.38-.52-.52-.83-1.22-.87-1.96l.16-.16-.16-.16c0-.14.02-.28.05-.42.03-.2.09-.38.17-.57.07-.18.16-.35.27-.51.11-.17.24-.32.38-.46.13-.14.29-.26.45-.37.16-.11.34-.2.52-.28.18-.07.37-.13.56-.17.14-.03.28-.05.43-.05.11-.01.21-.01.32,0,.14,0,.28.02.42.05.19.04.38.1.56.17.19.08.36.17.52.28.17.11.32.23.46.37.14.14.26.29.37.46.11.16.2.33.28.51.07.19.13.37.17.57.03.13.05.27.05.41Z"/>
  <path class="cls-1" d="M136.38,178.48c-.31,0-.63-.05-.95-.15-1.57-.52-2.42-2.22-1.9-3.79.52-1.57,2.2-2.43,3.78-1.91,0,0,.02,0,.03,0,1.57.52,2.42,2.22,1.9,3.79-.42,1.26-1.59,2.05-2.85,2.05Z"/>
  <path class="cls-1" d="M124.83,171.53c-.75,0-1.49-.28-2.07-.83-1.19-1.13-1.26-3.01-.14-4.22,1.12-1.22,3.02-1.29,4.24-.17.03.03.06.06.09.09,1.17,1.17,1.17,3.07,0,4.24-.59.59-1.35.88-2.12.88Z"/>
  <path class="cls-1" d="M172.01,165.76c-.54,0-1.09-.15-1.58-.45-1.41-.88-1.84-2.72-.96-4.13h0c.88-1.41,2.72-1.85,4.13-.97,1.41.88,1.84,2.73.96,4.13-.57.91-1.55,1.42-2.56,1.42Z"/>
  <path class="cls-1" d="M115.22,161.92c-.77,0-1.54-.29-2.12-.88-1.17-1.17-1.18-3.07,0-4.25,1.17-1.17,3.07-1.17,4.24,0h0c1.17,1.18,1.17,3.08,0,4.25-.59.59-1.35.88-2.12.88Z"/>
  <path class="cls-1" d="M176.57,153.08c-.15,0-.3-.01-.45-.03-1.61-.24-2.73-1.73-2.53-3.34.19-1.59,1.6-2.76,3.21-2.63,1.65.13,2.89,1.57,2.76,3.22,0,.07-.02.16-.03.23-.22,1.49-1.5,2.55-2.96,2.55Z"/>
  <path class="cls-1" d="M105.61,152.31c-.77,0-1.54-.29-2.12-.88-1.17-1.17-1.18-3.07,0-4.25,1.17-1.17,3.07-1.17,4.24,0h0c1.17,1.18,1.17,3.08,0,4.25-.59.59-1.35.88-2.12.88Z"/>
  <path class="cls-1" d="M175.25,139.66c-1.27,0-2.45-.81-2.85-2.08,0,0,0-.02,0-.03-.5-1.58.38-3.26,1.96-3.76,1.58-.5,3.26.38,3.76,1.96.49,1.58-.38,3.26-1.95,3.76-.3.1-.61.14-.91.14Z"/>
  <path class="cls-1" d="M168.32,128.11c-.79,0-1.58-.31-2.17-.93,0,0-.02-.03-.03-.04-1.12-1.22-1.05-3.12.17-4.24,1.22-1.12,3.12-1.05,4.24.17,1.12,1.21,1.05,3.1-.15,4.23-.58.54-1.32.81-2.05.81Z"/>
  <path class="cls-1" d="M158.72,118.49c-.77,0-1.54-.3-2.13-.89h0c-1.17-1.18-1.16-3.08.02-4.25,1.18-1.17,3.08-1.16,4.24.02,1.17,1.18,1.16,3.08-.02,4.25-.59.58-1.35.87-2.11.87Z"/>
  <path class="cls-1" d="M149.11,108.88c-.77,0-1.54-.3-2.13-.89h0c-1.17-1.18-1.16-3.08.02-4.25,1.18-1.17,3.08-1.16,4.24.02,1.17,1.18,1.16,3.08-.02,4.25-.59.58-1.35.87-2.11.87Z"/>
  <path class="cls-1" d="M142.46,96.07l-1.53,1.54-.05.05-1.58,1.57c-.73-.04-1.43-.34-1.95-.87h0c-.51-.51-.83-1.23-.86-1.96-.01-.05-.01-.11-.01-.16s0-.11.01-.16c.04-.74.35-1.44.86-1.96h0c.53-.52,1.23-.82,1.96-.86l.16.16.16-.17c.14.01.28.02.42.05.19.04.38.1.56.17.18.08.36.17.52.28.16.11.32.23.46.37.51.52.83,1.22.87,1.95Z"/>
  <g>
    <rect class="cls-2" x="65.26" y="65.5" width="61.47" height="61.47" transform="translate(-39.93 96.07) rotate(-45)"/>
    <path class="cls-1" d="M96.16,136.72l-.16.16-.16-.16-40.32-40.32-.16-.16,40.64-40.64.16.16,40.48,40.48-.16.16-40.32,40.32ZM140.88,94.83l-43.47-43.47c-.78-.78-2.05-.78-2.83,0l-1.57,1.57-41.9,41.9c-.37.37-.58.88-.58,1.41s.21,1.04.58,1.42l1.42,1.41.15.16,40.33,40.32.16.16,1.41,1.41c.39.4.9.59,1.42.59s1.02-.19,1.41-.59l1.58-1.57h0s40.31-40.32,40.31-40.32l1.58-1.57.05-.05c.34-.37.54-.86.54-1.37s-.22-1.04-.59-1.41Z"/>
  </g>
  <g>
    <path class="cls-3" d="M93.62,66.71c-.64.64-.99,1.48-.99,2.38s.35,1.75.99,2.38,1.48.99,2.38.99,1.75-.35,2.38-.99c1.31-1.31,1.31-3.45,0-4.76-1.27-1.27-3.49-1.27-4.76,0Z"/>
    <path class="cls-3" d="M107.17,80.26c-.64.64-.99,1.48-.99,2.38s.35,1.74.99,2.38c.64.64,1.48.99,2.38.99s1.75-.35,2.38-.99c1.31-1.31,1.31-3.45,0-4.76-1.27-1.27-3.49-1.27-4.76,0Z"/>
    <path class="cls-3" d="M125.52,93.84c-1.31-1.31-3.45-1.31-4.76,0-1.31,1.31-1.31,3.45,0,4.76.66.66,1.52.98,2.38.98s1.72-.33,2.38-.98h0c1.31-1.31,1.31-3.45,0-4.76Z"/>
    <path class="cls-3" d="M80.64,80.87c-1.31,1.31-1.31,3.45,0,4.76.66.66,1.52.98,2.38.98s1.72-.33,2.38-.98h0c1.31-1.31,1.31-3.45,0-4.76-1.27-1.27-3.49-1.27-4.76,0Z"/>
    <path class="cls-3" d="M93.6,93.84c-1.31,1.31-1.31,3.45,0,4.76.66.66,1.52.98,2.38.98s1.72-.33,2.38-.98c1.31-1.31,1.31-3.45,0-4.76s-3.45-1.31-4.76,0Z"/>
    <path class="cls-3" d="M106.59,106.82c-.64.64-.99,1.48-.99,2.38s.35,1.75.99,2.38c.64.64,1.48.99,2.38.99s1.75-.35,2.38-.99c1.31-1.31,1.31-3.45,0-4.76-1.27-1.27-3.49-1.27-4.76,0Z"/>
    <path class="cls-3" d="M66.48,93.83c-1.31,1.31-1.31,3.45,0,4.76.64.64,1.48.99,2.38.99s1.75-.35,2.38-.99h0c.64-.64.99-1.48.99-2.38s-.35-1.75-.99-2.38c-1.27-1.27-3.49-1.27-4.76,0Z"/>
    <path class="cls-3" d="M80.04,107.39c-1.31,1.31-1.31,3.45,0,4.76.66.66,1.52.98,2.38.98s1.72-.33,2.38-.98h0c.64-.64.99-1.48.99-2.38s-.35-1.74-.99-2.38c-1.27-1.27-3.49-1.27-4.76,0Z"/>
    <path class="cls-3" d="M93.62,120.98c-1.31,1.31-1.31,3.45,0,4.76.66.66,1.52.98,2.38.98s1.72-.33,2.38-.98c1.31-1.31,1.31-3.45,0-4.76-1.31-1.31-3.45-1.31-4.76,0Z"/>
  </g>
</svg>
