<?xml version="1.0" encoding="utf-8"?>
<!-- Generator: Adobe Illustrator 27.7.0, SVG Export Plug-In . SVG Version: 6.00 Build 0)  -->
<svg version="1.1" id="Security_Networking" xmlns="http://www.w3.org/2000/svg" xmlns:xlink="http://www.w3.org/1999/xlink"
	 x="0px" y="0px" viewBox="0 0 192 192" style="enable-background:new 0 0 192 192;" xml:space="preserve">
<style type="text/css">
	.st0{fill:#FFFFFF;}
</style>
<path class="st0" d="M96,179.7c-0.3,0-0.6-0.1-0.9-0.2l-1.8-0.8c-25.4-12.2-37.7-19.2-48-30.9c-8.8-10.1-14.1-24.5-14.1-38.6V33.3
	c0-1,0.8-1.9,1.8-2l3.7-0.3c20-1.6,38.8-7.6,56.1-17.8l2.1-1.2c0.6-0.4,1.4-0.4,2,0l2.1,1.2c17,10,36.3,16.2,56.1,17.8l3.7,0.3
	c1,0.1,1.8,0.9,1.8,2v75.9c0,14.1-5.3,28.6-14.1,38.6c-10.3,11.7-22.5,18.6-47.9,30.9l-1.8,0.8C96.6,179.6,96.3,179.7,96,179.7
	L96,179.7z M35.3,35.2v74c0,13.2,4.9,26.6,13.1,36c9.8,11.1,21.8,17.9,46.7,29.9l0.9,0.4l0.9-0.4c24.9-12,36.9-18.8,46.7-29.9
	c8.2-9.3,13.1-22.8,13.1-36v-74l-1.9-0.2c-20.3-1.6-40.3-7.9-57.8-18.3l-1-0.6l-1,0.6C77.2,27.2,57.8,33.4,37.2,35
	C37.2,35,35.3,35.2,35.3,35.2z"/>
<path class="st0" d="M81.9,105.6h0.3l8.2-25c0.4-1.3,1.7-2.2,3.1-2.2h0c2.2,0,3.8,2.2,3,4.3l-9.4,26.6c-0.8,2.2-2.8,3.6-5.1,3.6l0,0
	c-2.3,0-4.4-1.5-5.1-3.6l-9.4-26.6c-0.7-2.1,0.8-4.3,3-4.3l0,0c1.4,0,2.6,0.9,3.1,2.2L81.9,105.6L81.9,105.6z"/>
<path class="st0" d="M112.9,83.3c-3.9,0-6.2,1.9-6.2,4.5c0,2.9,3,4.1,5.9,4.8l3.2,0.8c5.2,1.2,10.1,4,10.2,9.9
	c0,6.1-4.8,10.2-13.1,10.2c-6.2,0-10.7-2.3-12.5-6.6c-0.8-2,0.6-4.2,2.7-4.2h0.3c1.2,0,2.2,0.8,2.6,1.8c1,2.4,3.6,3.5,6.8,3.5
	c4.1,0,6.9-2,6.9-4.9c0-2.7-2.5-3.8-6.2-4.8l-3.9-1c-5.7-1.5-9.2-4.3-9.2-9.3c0-6.1,5.4-10.2,12.7-10.2c5.5,0,9.7,2.3,11.5,6
	c0.9,1.8-0.5,4-2.6,4h-0.4c-1.1,0-2.1-0.7-2.6-1.7C118,84.3,115.9,83.3,112.9,83.3L112.9,83.3z"/>
</svg>
