<?xml version="1.0" encoding="UTF-8"?>
<svg id="Security_Networking" data-name="Security Networking" xmlns="http://www.w3.org/2000/svg" viewBox="0 0 192 192">
  <defs>
    <style>
      .cls-1 {
        fill: #464646;
      }

      .cls-1, .cls-2, .cls-3 {
        stroke-width: 0px;
      }

      .cls-2 {
        fill: #3cb17e;
      }

      .cls-3 {
        fill: #fff;
      }
    </style>
  </defs>
  <g>
    <path class="cls-2" d="m96.04,177.72l-1.75-.84c-25.15-12.09-37.28-18.97-47.33-30.39-8.54-9.7-13.63-23.65-13.63-37.3V33.31l3.72-.29c20.31-1.62,39.46-7.69,56.92-18.02l2.06-1.22,2.06,1.22c17.21,10.19,36.89,16.43,56.92,18.02l3.72.29v75.88c0,13.65-5.1,27.61-13.63,37.3-10.05,11.42-22.18,18.3-47.32,30.39l-1.75.84Z"/>
    <path class="cls-1" d="m96.04,179.72c-.3,0-.59-.07-.87-.2l-1.75-.84c-25.41-12.21-37.69-19.2-47.96-30.87-8.85-10.05-14.13-24.49-14.13-38.62V33.31c0-1.04.8-1.91,1.84-1.99l3.72-.29c19.99-1.59,38.85-7.57,56.06-17.75l2.06-1.22c.63-.37,1.41-.37,2.04,0l2.06,1.22c16.96,10.04,36.35,16.18,56.06,17.75l3.72.29c1.04.08,1.84.95,1.84,1.99v75.88c0,14.14-5.28,28.58-14.13,38.62-10.26,11.66-22.54,18.65-47.95,30.87l-1.75.84c-.27.13-.57.2-.87.2ZM35.33,35.16v74.03c0,13.19,4.91,26.64,13.13,35.98,9.8,11.14,21.79,17.94,46.69,29.91l.88.43.88-.43c24.89-11.97,36.88-18.77,46.69-29.91,8.23-9.33,13.14-22.78,13.14-35.98V35.16l-1.87-.15c-20.32-1.62-40.3-7.94-57.79-18.3l-1.04-.62-1.04.62c-17.74,10.5-37.18,16.66-57.79,18.3l-1.88.15Z"/>
  </g>
  <g>
    <path class="cls-3" d="m81.95,105.63h.35l8.24-24.97c.43-1.32,1.67-2.21,3.05-2.21h.01c2.22,0,3.77,2.19,3.03,4.28l-9.38,26.6c-.77,2.18-2.83,3.64-5.14,3.64h0c-2.31,0-4.38-1.46-5.14-3.64l-9.37-26.6c-.74-2.09.82-4.28,3.03-4.28h0c1.39,0,2.62.89,3.05,2.21l8.26,24.97Z"/>
    <path class="cls-3" d="m112.97,83.27c-3.91,0-6.24,1.91-6.25,4.5-.03,2.88,3.03,4.08,5.87,4.75l3.24.81c5.19,1.23,10.13,3.96,10.15,9.95-.02,6.09-4.82,10.22-13.1,10.22-6.23,0-10.7-2.32-12.51-6.55-.85-1.97.59-4.17,2.73-4.17h.35c1.17,0,2.15.76,2.6,1.84,1,2.38,3.6,3.54,6.78,3.54,4.08,0,6.88-1.97,6.9-4.92-.02-2.68-2.48-3.84-6.2-4.79l-3.93-1.01c-5.68-1.47-9.2-4.32-9.2-9.27-.02-6.1,5.43-10.18,12.68-10.18,5.53,0,9.71,2.33,11.49,5.97.91,1.84-.53,3.99-2.58,3.99h-.39c-1.13,0-2.09-.7-2.59-1.72-.94-1.88-3.09-2.95-6.02-2.95Z"/>
  </g>
</svg>
