<?xml version="1.0" encoding="UTF-8"?><svg id="Security_Networking" xmlns="http://www.w3.org/2000/svg" viewBox="0 0 192 192"><defs><style>.cls-1{fill:#9063cd;}.cls-2{fill:#464646;}</style></defs><rect class="cls-2" x="30.62" y="46" width="130.54" height="4"/><polygon class="cls-2" points="32.78 55.38 20 48 32.78 40.62 32.78 55.38"/><polygon class="cls-2" points="159 55.38 171.78 48 159 40.62 159 55.38"/><path class="cls-1" d="m33.88,95.81c0,15.3-5.31,27.69-11.87,27.69v-55.37c6.56,0,11.87,12.4,11.87,27.69Z"/><path class="cls-2" d="m22.02,125.49c-1.1,0-2-.9-2-2v-55.37c0-1.1.9-2,2-2,7.9,0,13.86,12.76,13.86,29.69s-5.96,29.69-13.86,29.69Zm2-54.75v50.13c4.04-2.46,7.86-12.07,7.86-25.07s-3.83-22.6-7.86-25.07Z"/><ellipse class="cls-1" cx="22.02" cy="95.81" rx="11.87" ry="27.69"/><path class="cls-2" d="m22.02,125.49c-7.9,0-13.86-12.76-13.86-29.69s5.96-29.69,13.86-29.69,13.86,12.76,13.86,29.69-5.96,29.69-13.86,29.69Zm0-55.37c-4.67,0-9.86,10.55-9.86,25.69s5.2,25.69,9.86,25.69,9.86-10.55,9.86-25.69-5.2-25.69-9.86-25.69Z"/><path class="cls-2" d="m169.94,125.67l-147.93-.18c-1.1,0-2-.9-2-2s.9-2,2-2c4.67,0,9.86-10.55,9.86-25.69s-5.19-25.67-9.86-25.69h-.01c-1.1,0-2-.9-2-2,0-1.1.92-1.98,2-2h.01l148.13.18c7.9,0,13.86,12.77,13.86,29.7s-5.84,29.36-13.58,29.67h-.5Zm-140.77-4.17l141.2.17c4.53-.18,9.66-10.77,9.66-25.67s-5.2-25.7-9.86-25.7l-140.98-.17c4.07,5.05,6.7,14.45,6.7,25.68s-2.63,20.65-6.71,25.69Z"/><path class="cls-1" d="m170.37,123.67c-.07.01-.14.01-.21.01s-.15,0-.22-.01h.42Z"/><path class="cls-2" d="m170.16,125.68c-.16,0-.35,0-.51-.03-1.04-.15-1.78-1.08-1.7-2.12.08-1.05.95-1.85,1.99-1.85h.42c1.05,0,1.92.81,1.99,1.85.08,1.05-.67,1.97-1.7,2.12-.17.02-.33.03-.5.03Zm-.04-4s0,0-.05.01l.08.53.08-.53s-.07,0-.11-.01Z"/><path class="cls-2" d="m52.51,110.82h0c-1.52,0-2.74-1.23-2.74-2.74v-24.81c0-1.52,1.23-2.74,2.74-2.74h0c1.52,0,2.74,1.23,2.74,2.74v24.81c0,1.52-1.23,2.74-2.74,2.74Z"/><path class="cls-2" d="m61.22,83.27c0-1.52,1.23-2.74,2.74-2.74h8.62c6.97,0,10.68,4.25,10.68,10.03s-3.76,10.03-10.75,10.03h-5.8v7.49c0,1.52-1.23,2.74-2.74,2.74h0c-1.52,0-2.74-1.23-2.74-2.74v-24.81Zm10.55,12.8c4.08,0,5.9-2.29,5.9-5.52s-1.82-5.44-5.93-5.44h-5.03v10.96h5.06Z"/><path class="cls-2" d="m102.52,94.46c-.89.1-1.71-.34-2.24-1.06-.68-.92-1.84-1.6-3.59-1.6-2.23,0-3.93,1.07-3.92,2.6-.01,1.32.9,2.12,3.21,2.63l3.88.83c4.29.93,6.38,2.91,6.39,6.15-.02,4.3-4.02,7.25-9.7,7.25-3.77,0-6.6-1.13-8.24-3.16-1.17-1.44-.19-3.61,1.66-3.79l.34-.03c.92-.09,1.76.41,2.27,1.18.76,1.16,2.12,1.76,3.96,1.76,2.54,0,4.23-1.17,4.23-2.72,0-1.29-.98-2.13-3.06-2.59l-3.88-.81c-4.36-.9-6.4-3.09-6.39-6.4-.01-4.2,3.71-6.89,9.19-6.89,3.43,0,5.93,1.02,7.47,2.77,1.25,1.42.33,3.68-1.56,3.88h0Z"/><path class="cls-2" d="m109.71,99.6c0-7.01,4.25-11.79,10.75-11.79,5.59,0,10.38,3.51,10.38,11.48h0c0,.91-.74,1.64-1.64,1.64h-14.19c.04,3.89,2.34,6.17,5.8,6.17,1.8,0,3.28-.61,4.19-1.8.52-.68,1.33-1.05,2.18-.95h0c1.95.22,2.84,2.59,1.48,4-1.76,1.84-4.49,2.92-7.92,2.92-6.85,0-11.03-4.54-11.03-11.67Zm16.01-2.28c-.03-3.09-2.1-5.34-5.18-5.34s-5.34,2.44-5.5,5.34h10.68Z"/><path class="cls-2" d="m134.41,99.55c0-6.94,4.2-11.75,10.86-11.75,4.02,0,7.14,1.7,8.7,4.51.91,1.64-.38,3.66-2.26,3.66h0c-.98,0-1.84-.59-2.29-1.46-.73-1.42-2.12-2.38-4.08-2.38-3.3,0-5.5,2.75-5.5,7.34s2.16,7.44,5.5,7.44c1.85,0,3.33-.87,4.1-2.42.43-.87,1.3-1.43,2.27-1.43h0c1.87,0,3.16,1.99,2.27,3.63-1.52,2.8-4.56,4.58-8.69,4.58-6.79,0-10.89-4.84-10.89-11.72Z"/></svg>
