<?xml version="1.0" encoding="UTF-8"?>
<svg id="Security_Networking" data-name="Security Networking" xmlns="http://www.w3.org/2000/svg" viewBox="0 0 192 192">
  <defs>
    <style>
      .cls-1 {
        fill: #464646;
      }

      .cls-1, .cls-2, .cls-3 {
        stroke-width: 0px;
      }

      .cls-2 {
        fill: #3cb17e;
      }

      .cls-3 {
        fill: #fff;
      }
    </style>
  </defs>
  <g>
    <path class="cls-2" d="m96.04,177.97l-1.75-.84c-25.15-12.09-37.28-18.97-47.33-30.39-8.54-9.7-13.63-23.65-13.63-37.3V33.57l3.72-.29c20.31-1.62,39.46-7.69,56.92-18.02l2.06-1.22,2.06,1.22c17.21,10.19,36.89,16.43,56.92,18.02l3.72.29v75.88c0,13.65-5.1,27.61-13.63,37.3-10.05,11.42-22.18,18.3-47.32,30.39l-1.75.84Z"/>
    <path class="cls-1" d="m96.04,179.97c-.3,0-.59-.07-.87-.2l-1.75-.84c-25.41-12.21-37.69-19.2-47.96-30.87-8.85-10.05-14.13-24.49-14.13-38.62V33.57c0-1.04.8-1.91,1.84-1.99l3.72-.29c19.99-1.59,38.85-7.57,56.06-17.75l2.06-1.22c.63-.37,1.41-.37,2.04,0l2.06,1.22c16.96,10.04,36.35,16.18,56.06,17.75l3.72.29c1.04.08,1.84.95,1.84,1.99v75.88c0,14.14-5.28,28.58-14.13,38.62-10.26,11.66-22.54,18.65-47.95,30.87l-1.75.84c-.27.13-.57.2-.87.2ZM35.33,35.42v74.03c0,13.19,4.91,26.64,13.13,35.98,9.8,11.14,21.79,17.94,46.69,29.91l.88.43.88-.43c24.9-11.97,36.88-18.77,46.69-29.91,8.23-9.33,13.14-22.78,13.14-35.98V35.42l-1.87-.15c-20.32-1.62-40.3-7.94-57.79-18.3l-1.04-.62-1.04.62c-17.74,10.5-37.18,16.66-57.79,18.3l-1.88.15Z"/>
  </g>
  <path class="cls-3" d="m96.04,56.9c-21.56,0-39.1,17.54-39.1,39.1s17.54,39.1,39.1,39.1,39.1-17.54,39.1-39.1-17.54-39.1-39.1-39.1Zm21.75,23.36c0,2.79-2.27,5.06-5.06,5.06s-5.06-2.27-5.06-5.06,2.27-5.06,5.06-5.06,5.06,2.27,5.06,5.06Zm3.44-3.12c1.28-.32,2.58-.59,3.89-.79,1.87,2.76,3.36,5.8,4.39,9.04-2.42-1.84-5.01-3.45-7.73-4.82,0-.1.02-.21.02-.31,0-1.1-.21-2.14-.56-3.12Zm1.12-4.35c-1.17.24-2.32.52-3.46.84-1.62-1.5-3.77-2.42-6.15-2.42-3.29,0-6.17,1.77-7.75,4.4-1.8-.2-3.62-.3-5.44-.3-6.03,0-11.9,1.08-17.47,3.19-1.28-1.57-3.07-2.7-5.11-3.14,1.1-4.06,2.79-7.92,5.03-11.5,4.31-1.89,9.06-2.95,14.06-2.95,10.46,0,19.86,4.61,26.3,11.89Zm-34.37,49.61c-2.79,0-5.06-2.27-5.06-5.06s2.27-5.06,5.06-5.06,5.06,2.27,5.06,5.06-2.27,5.06-5.06,5.06Zm-2.31-13.8c-1.22.32-2.34.89-3.3,1.65-3.33-5.16-5.53-10.97-6.44-17.03,4.58-.45,8.17-4.32,8.17-9.01,0-.73-.09-1.43-.26-2.11,5.02-1.84,10.29-2.79,15.7-2.79,1.39,0,2.79.09,4.18.21-.02.25-.04.49-.04.74,0,.28.02.55.04.82-9.17,6.77-15.53,16.45-18.05,27.51Zm-15.68-24.39c0-2.79,2.27-5.06,5.06-5.06s5.06,2.27,5.06,5.06-2.27,5.06-5.06,5.06-5.06-2.27-5.06-5.06Zm5.51-16.63c-1.12,2.53-2.02,5.16-2.69,7.86-3.91,1-6.82,4.54-6.82,8.77,0,1.26.26,2.46.73,3.55-2.06,1.82-3.96,3.81-5.69,5.94.7-10.73,6.24-20.16,14.46-26.12Zm-14.28,32.69c2.2-3.43,4.84-6.54,7.87-9.27.8.71,1.73,1.27,2.75,1.66.94,7.49,3.66,14.65,7.94,20.88-.54,1.16-.85,2.45-.85,3.81,0,3.93,2.52,7.27,6.02,8.52.17,1.22.39,2.44.66,3.65-12.96-4.05-22.7-15.42-24.38-29.25Zm28.76,30.3c-.38-1.39-.69-2.81-.92-4.24.94-.11,1.84-.37,2.67-.75,2.98,2.08,6.15,3.81,9.48,5.14-1.68.25-3.4.38-5.15.38-2.07,0-4.1-.19-6.07-.54Zm18.47-1.73c-4.79-1.17-9.29-3.12-13.41-5.83,1.25-1.55,2-3.52,2-5.66,0-4.37-3.11-8.02-7.23-8.87,2.36-9.29,7.69-17.46,15.27-23.4,1.6,2.55,4.43,4.25,7.66,4.25,3.45,0,6.46-1.94,7.98-4.79,3.71,1.95,7.12,4.4,10.17,7.3.16,1.37.26,2.76.26,4.17,0,14.99-9.45,27.81-22.7,32.83Z"/>
</svg>
