<?xml version="1.0" encoding="utf-8"?>
<!-- Generator: Adobe Illustrator 27.7.0, SVG Export Plug-In . SVG Version: 6.00 Build 0)  -->
<svg version="1.1" id="Security_Networking" xmlns="http://www.w3.org/2000/svg" xmlns:xlink="http://www.w3.org/1999/xlink"
	 x="0px" y="0px" viewBox="0 0 192 192" style="enable-background:new 0 0 192 192;" xml:space="preserve">
<style type="text/css">
	.st0{fill:#464646;}
	.st1{fill:#FFFFFF;}
</style>
<path class="st0" d="M96,180.1c-0.3,0-0.6-0.1-0.9-0.2l-1.8-0.8c-25.4-12.2-37.7-19.2-48-30.9c-8.8-10.1-14.1-24.5-14.1-38.6V33.7
	c0-1,0.8-1.9,1.8-2l3.7-0.3c20-1.6,38.8-7.6,56.1-17.8l2.1-1.2c0.6-0.4,1.4-0.4,2,0l2.1,1.2c17,10,36.3,16.2,56.1,17.8l3.7,0.3
	c1,0.1,1.8,0.9,1.8,2v75.9c0,14.1-5.3,28.6-14.1,38.6c-10.3,11.7-22.5,18.6-47.9,30.9l-1.8,0.8C96.6,180,96.3,180.1,96,180.1
	L96,180.1z M35.3,35.5v74c0,13.2,4.9,26.6,13.1,36c9.8,11.1,21.8,17.9,46.7,29.9l0.9,0.4l0.9-0.4c24.9-12,36.9-18.8,46.7-29.9
	c8.2-9.3,13.1-22.8,13.1-36v-74l-1.9-0.2c-20.3-1.6-40.3-7.9-57.8-18.3l-1-0.6l-1,0.6C77.2,27.6,57.8,33.7,37.2,35.4L35.3,35.5
	L35.3,35.5z"/>
<g id="Stroke">
	<path class="st1" d="M75,93.4c-5,0-9.1-4.1-9.1-9.1s4.1-9.1,9.1-9.1s9.1,4.1,9.1,9.1S80,93.4,75,93.4z M75,79.3
		c-2.8,0-5.1,2.3-5.1,5.1s2.3,5.1,5.1,5.1s5.1-2.3,5.1-5.1S77.8,79.3,75,79.3z"/>
	<path class="st1" d="M112.7,89.4c-5,0-9.1-4.1-9.1-9.1s4.1-9.1,9.1-9.1s9.1,4.1,9.1,9.1S117.7,89.4,112.7,89.4z M112.7,75.3
		c-2.8,0-5.1,2.3-5.1,5.1s2.3,5.1,5.1,5.1s5.1-2.3,5.1-5.1S115.5,75.3,112.7,75.3z"/>
	<path class="st1" d="M87.9,126.5c-5,0-9.1-4.1-9.1-9.1s4.1-9.1,9.1-9.1s9.1,4.1,9.1,9.1S92.9,126.5,87.9,126.5z M87.9,112.4
		c-2.8,0-5.1,2.3-5.1,5.1s2.3,5.1,5.1,5.1s5.1-2.3,5.1-5.1S90.7,112.4,87.9,112.4z"/>
	<path class="st1" d="M96,135.2c-21.6,0-39.1-17.5-39.1-39.1S74.4,57,96,57s39.1,17.5,39.1,39.1S117.6,135.2,96,135.2z M96,61
		c-19.3,0-35.1,15.8-35.1,35.1s15.8,35.1,35.1,35.1s35.1-15.8,35.1-35.1S115.4,61,96,61z"/>
	<path class="st1" d="M118.5,78l-1.2-3.8c2.8-0.9,5.6-1.5,8.5-1.9l0.5,4C123.6,76.6,121,77.2,118.5,78z"/>
	<path class="st1" d="M89.2,110.8l-3.9-0.8c2.4-12,9.3-22.5,19.4-29.6l2.3,3.3C97.8,90.2,91.4,99.8,89.2,110.8L89.2,110.8z"/>
	<path class="st1" d="M86.4,133c-0.8-2.7-1.4-5.5-1.7-8.4l4-0.4c0.3,2.6,0.8,5.2,1.6,7.7L86.4,133L86.4,133z"/>
	<path class="st1" d="M76.4,77.7l-3.9-0.8c1.2-5.6,3.4-10.8,6.4-15.6l3.4,2.2C79.4,67.8,77.4,72.6,76.4,77.7L76.4,77.7z"/>
	<path class="st1" d="M80.5,114.7c-5-6.8-8.1-14.9-8.9-23.3l4-0.4c0.7,7.7,3.5,15.1,8.1,21.3C83.7,112.4,80.5,114.7,80.5,114.7z"/>
	<path class="st1" d="M108.1,133c-6.3-1.5-12.2-4.2-17.5-8l2.4-3.2c4.8,3.6,10.2,6,16,7.4L108.1,133L108.1,133z"/>
	<path class="st1" d="M131.4,92.4c-3.7-3.6-7.9-6.6-12.6-8.7l1.7-3.6c5.1,2.4,9.7,5.6,13.7,9.5L131.4,92.4L131.4,92.4z"/>
	<path class="st1" d="M82,82.9l-1.5-3.7c6-2.5,12.4-3.8,19-3.8c2.3,0,4.6,0.2,6.9,0.5l-0.6,4c-2.1-0.3-4.2-0.4-6.3-0.4
		C93.4,79.4,87.6,80.6,82,82.9z"/>
	<path class="st1" d="M60.8,101l-3.4-2.1c2.8-4.6,6.4-8.6,10.5-12.1l2.6,3.1C66.7,93,63.4,96.8,60.8,101z"/>
</g>
</svg>
