<?xml version="1.0" encoding="UTF-8"?>
<svg id="Security_Networking" data-name="Security Networking" xmlns="http://www.w3.org/2000/svg" viewBox="0 0 192 192">
  <defs>
    <style>
      .cls-1 {
        stroke-miterlimit: 10;
      }

      .cls-1, .cls-2 {
        fill: none;
      }

      .cls-1, .cls-2, .cls-3 {
        stroke: #464646;
        stroke-width: 4px;
      }

      .cls-2 {
        stroke-linecap: round;
      }

      .cls-2, .cls-3 {
        stroke-linejoin: round;
      }

      .cls-3 {
        fill: #9063cd;
      }
    </style>
  </defs>
  <path class="cls-2" d="m158.76,59.88v69.88H33.31V59.88c0-2.83,2.28-5.11,5.11-5.11h29.02c1.22,14.64,13.44,26.17,28.38,26.27h.06c.06,0,.11,0,.17,0s.11,0,.17,0h.06c14.93-.11,27.15-11.64,28.38-26.27h29.02c2.82,0,5.1,2.28,5.1,5.11Z"/>
  <g>
    <path class="cls-3" d="m124.66,50.15c-4.24,1.99-8.7,3.55-13.38,4.62-4.89,1.14-9.99,1.73-15.24,1.73s-10.35-.59-15.24-1.73c-4.67-1.07-9.13-2.64-13.38-4.62.08-1.13.23-2.24.44-3.32,2.1-10.82,10.29-19.47,20.86-22.25,1.12-.3,2.26-.53,3.43-.69v-4.47h7.65v4.45c1.21.16,2.4.4,3.56.71,10.57,2.78,18.75,11.44,20.86,22.25.21,1.08.36,2.19.44,3.32Z"/>
    <path class="cls-2" d="m124.75,52.34c0,.81-.04,1.62-.11,2.43-1.22,14.64-13.44,26.17-28.38,26.27h-.06c-.06,0-.11,0-.17,0s-.11,0-.17,0h-.06c-14.93-.11-27.15-11.64-28.38-26.27-.07-.8-.1-1.61-.1-2.43,0-.74.03-1.47.1-2.2,4.24,1.99,8.7,3.55,13.38,4.62,4.89,1.14,9.99,1.73,15.24,1.73s10.35-.59,15.24-1.73c4.67-1.07,9.13-2.64,13.38-4.62.07.73.1,1.46.1,2.2Z"/>
    <path class="cls-2" d="m47.59,129.49c0-26.76,21.69-48.45,48.45-48.45s48.45,21.69,48.45,48.45H47.59Z"/>
    <g>
      <line class="cls-2" x1="70.92" y1="129.49" x2="70.92" y2="109.75"/>
      <line class="cls-2" x1="121.16" y1="129.49" x2="121.16" y2="109.75"/>
    </g>
  </g>
  <path class="cls-2" d="m172.93,160.14H19.03c-4.32,0-6.69-5.02-3.94-8.35l18.16-22.03h125.45l18.16,22.03c2.75,3.33.38,8.35-3.94,8.35Z"/>
  <path class="cls-2" d="m67.43,50.15c-2.01-.94-3.96-1.97-5.85-3.1"/>
  <path class="cls-2" d="m130.37,47.13c-1.85,1.09-3.75,2.1-5.71,3.02"/>
  <line class="cls-2" x1="92.15" y1="23.89" x2="92.15" y2="36.37"/>
  <line class="cls-2" x1="99.8" y1="23.87" x2="99.8" y2="36.37"/>
  <g>
    <path class="cls-1" d="m150.13,48.6v-6.03c0-4.77,3.87-8.63,8.63-8.63s8.63,3.87,8.63,8.63v5.94"/>
    <path class="cls-3" d="m170.15,48.52h-22.78c-2.14,0-3.88,1.74-3.88,3.88v22.78c0,2.14,1.74,3.88,3.88,3.88h22.78c2.14,0,3.88-1.74,3.88-3.88v-22.78c0-2.14-1.74-3.88-3.88-3.88Z"/>
  </g>
</svg>
